<svg width="748" height="1103" viewBox="0 0 748 1103" fill="none" xmlns="http://www.w3.org/2000/svg">
<g filter="url(#filter0_d_1280_4801)">
<g clip-path="url(#clip0_1280_4801)">
<mask id="path-1-inside-1_1280_4801" fill="white">
<path d="M0 0H720V1103H0V0Z"/>
</mask>
<path d="M0 0H720V1103H0V0Z" fill="#F5F9FF"/>
<path d="M0 0H720V1103H0V0Z" fill="url(#paint0_angular_1280_4801)"/>
<path d="M0 0H720V1103H0V0Z" fill="url(#paint1_angular_1280_4801)"/>
<path d="M0 0H720V1103H0V0Z" fill="url(#paint2_angular_1280_4801)" fill-opacity="0.5"/>
<g opacity="0.4">
<path d="M127.789 192.974C121.616 197.115 115.286 197.923 109.113 193.156C102.992 188.442 102.419 181.982 104.789 174.063C96.7665 175.809 89.5514 175.756 84.8108 168.62C80.7475 162.498 81.7372 156.508 85.7485 150.725C86.2434 150.23 86.7383 149.761 87.2332 149.267C90.0984 147.209 93.4325 145.203 96.7665 145.88C102.862 147.105 101.741 144.292 102.08 139.994C102.523 134.055 101.898 131.633 95.2557 132.596C92.8333 132.935 90.0463 130.799 87.4416 129.783C86.7383 129.08 86.035 128.377 85.3317 127.699C81.8154 121.787 80.7214 115.77 84.9931 109.805C89.7337 103.189 96.4279 102.616 104.659 104.804C102.575 96.7033 102.888 89.5924 109.998 84.8779C116.093 80.8666 122.084 81.8564 127.815 85.8416C128.31 86.3365 128.778 86.8314 129.273 87.3263C130.445 90.2176 132.972 93.3172 132.529 95.9219C131.357 102.955 134.691 101.678 139.562 102.069C145.423 102.538 145.918 100.949 145.761 95.9479C145.657 93.1088 147.897 90.2176 149.069 87.3263C149.59 86.8054 150.111 86.2584 150.632 85.7374C156.779 81.4136 163.109 80.6843 169.282 85.3728C175.429 90.0613 176.158 96.4689 173.788 104.335C181.602 102.981 188.895 102.642 193.688 109.857C197.751 115.978 196.814 121.969 192.959 127.804C192.36 128.403 191.761 128.976 191.188 129.575C188.27 130.721 185.223 133.065 182.462 132.753C176.497 132.075 176.575 134.185 176.653 139.238C176.731 144.135 176.445 146.479 182.488 145.802C185.249 145.49 188.296 147.86 191.188 149.006C191.787 149.605 192.386 150.204 193.011 150.803C197.126 156.95 197.934 163.28 193.219 169.401C188.531 175.47 182.227 176.434 174.283 173.829C175.898 182.008 175.637 189.457 168.084 194.146C162.275 197.74 156.545 196.751 151.023 193.234C150.267 192.479 149.538 191.723 148.783 190.994C145.865 186.67 145.11 181.852 145.918 176.824C137.608 175.887 130.706 176.121 131.565 187.139C131.67 188.468 130.211 189.9 129.456 191.281C128.883 191.88 128.336 192.427 127.789 192.974ZM167.589 167.63C162.822 164.739 172.824 155.648 162.197 155.596C156.779 155.57 155.503 157.419 155.555 162.446C155.633 172.995 164.593 163.019 167.589 167.63ZM111.197 167.76C114.14 163.775 124.741 173.23 122.892 160.258C121.407 149.944 114.869 158.071 111.249 155.414C112.733 159.711 111.171 163.306 111.197 167.76ZM167.953 111.212C155.373 112.514 155.685 112.566 155.321 115.483C154.096 125.616 161.754 122.177 167.693 123.766C165.922 119.052 167.302 115.197 167.953 111.212ZM111.092 110.665C111.796 115.249 112.238 119.182 111.535 123.61C114.999 120.51 121.954 128.168 123.126 117.958C124.559 105.325 113.906 115.353 111.092 110.665ZM134.431 138.561C134.639 141.244 132.607 145.099 138.103 144.005C140.89 143.458 144.485 145.438 144.016 139.655C143.703 135.722 143.495 134.185 138.989 134.472C135.603 134.68 133.18 134.342 134.431 138.561Z" fill="#A9F2A9"/>
<path d="M129.327 87.3262C128.832 86.8313 128.364 86.3364 127.869 85.8415C127.79 85.2164 127.869 84.5132 127.634 83.9662C124.43 76.9074 124.326 70.2393 130.89 65.082C136.23 60.8884 142.247 60.8623 147.612 65.0299C154.202 70.1351 154.124 76.8292 150.998 83.888C150.764 84.435 150.816 85.1383 150.738 85.7634C150.217 86.2843 149.696 86.8313 149.175 87.3523C142.533 90.0351 135.917 89.9831 129.327 87.3262Z" fill="#A9F2A9"/>
<path d="M193.015 150.829C192.416 150.23 191.817 149.631 191.192 149.032C188.405 142.546 188.457 136.086 191.192 129.6C191.791 129.001 192.39 128.428 192.963 127.829C195.073 127.178 197.131 126.37 199.293 125.954C205.414 124.782 210.675 126.266 214.192 131.71C217.395 136.685 217.395 141.921 214.218 146.896C210.727 152.34 205.44 153.85 199.319 152.678C197.183 152.314 195.125 151.48 193.015 150.829Z" fill="#A9F2A9"/>
<path d="M148.757 191.02C149.512 191.775 150.242 192.531 150.997 193.26C151.414 194.771 151.831 196.307 152.221 197.818C153.94 204.278 152.899 210.034 147.168 214.02C141.907 217.666 136.228 217.588 131.045 213.811C125.419 209.696 124.507 203.913 126.409 197.506C126.851 195.995 127.346 194.484 127.789 192.973C128.336 192.426 128.883 191.853 129.43 191.306C135.838 188.597 142.297 188.676 148.757 191.02Z" fill="#A9F2A9"/>
<path d="M87.2607 149.266C86.7658 149.761 86.2709 150.23 85.776 150.725C78.04 153.199 70.2779 155.413 64.5215 147.078C61.1614 142.234 61.0832 136.946 64.2871 131.945C69.783 123.428 77.5711 125.303 85.3853 127.647C86.0886 128.35 86.7918 129.054 87.4951 129.731C90.0217 136.295 89.7873 142.807 87.2607 149.266Z" fill="#A9F2A9"/>
<path d="M215.963 181.382C216.119 188.545 209.659 195.005 202.496 194.875C195.698 194.744 189.629 188.701 189.499 181.877C189.343 174.688 195.776 168.254 202.965 168.385C209.738 168.541 215.806 174.584 215.963 181.382Z" fill="#A9F2A9"/>
<path d="M75.9062 194.771C68.8213 194.849 62.4398 188.363 62.6742 181.304C62.8826 174.558 68.9255 168.619 75.6718 168.541C82.7566 168.463 89.1381 174.949 88.9037 182.007C88.7214 188.754 82.6524 194.692 75.9062 194.771Z" fill="#A9F2A9"/>
<path d="M110.105 202.324C110.391 209.409 104.062 215.947 96.925 215.947C90.1787 215.947 84.0576 210.008 83.7711 203.262C83.4846 196.177 89.814 189.639 96.951 189.639C103.723 189.639 109.844 195.552 110.105 202.324Z" fill="#A9F2A9"/>
<path d="M201.975 110.221C194.786 109.779 188.847 102.876 189.576 95.8173C190.28 88.993 196.739 83.4189 203.433 83.8357C210.622 84.2785 216.561 91.207 215.832 98.2398C215.155 105.064 208.695 110.638 201.975 110.221Z" fill="#A9F2A9"/>
<path d="M75.3328 83.9139C82.0009 83.6534 88.3304 89.3317 88.8774 96.104C89.4504 103.111 83.3814 109.883 76.2445 110.169C69.1857 110.456 62.6479 104.153 62.6739 97.0417C62.7 90.2954 68.5866 84.1744 75.3328 83.9139Z" fill="#A9F2A9"/>
<path d="M194.759 75.9432C194.733 83.1062 188.143 89.4096 181.032 89.071C174.234 88.7584 168.347 82.6113 168.373 75.813C168.399 68.65 174.989 62.3466 182.1 62.6852C188.898 62.9977 194.785 69.1709 194.759 75.9432Z" fill="#A9F2A9"/>
<path d="M97.0042 62.7633C104.115 62.7893 110.393 69.3532 110.054 76.412C109.741 83.1842 103.594 89.0449 96.874 88.9928C89.7631 88.9667 83.4857 82.4028 83.7983 75.344C84.1369 68.5978 90.2841 62.7112 97.0042 62.7633Z" fill="#A9F2A9"/>
<path d="M194.76 202.637C194.864 209.8 188.379 216.181 181.242 215.999C174.443 215.817 168.452 209.748 168.374 202.949C168.27 195.786 174.73 189.405 181.893 189.613C188.691 189.795 194.656 195.838 194.76 202.637Z" fill="#A9F2A9"/>
<path d="M105.885 223.188C106.953 215.739 111.172 211.753 118.674 211.831C125.837 211.91 131.072 218.005 130.161 225.194C129.197 232.721 124.508 236.498 117.085 235.977C109.505 235.43 106.093 230.533 105.885 223.188Z" fill="#A9F2A9"/>
<path d="M223.856 172.787C216.406 172.136 212.056 168.255 211.692 160.701C211.353 153.512 217.188 147.782 224.377 148.303C231.878 148.85 236.15 153.252 235.994 160.753C235.864 168.307 231.279 172.162 223.856 172.787Z" fill="#A9F2A9"/>
<path d="M66.7907 160.362C66.2176 167.812 62.4408 172.396 54.783 172.448C47.2032 172.5 42.7752 168.228 42.671 160.623C42.5928 153.043 46.8906 148.641 54.4703 148.511C62.1282 148.406 66.0614 152.887 66.7907 160.362Z" fill="#A9F2A9"/>
<path d="M172.723 223.813C172.176 231.185 168.399 235.847 160.845 236.081C153.37 236.29 148.89 232.122 148.239 224.595C147.613 217.406 153.292 211.493 160.481 211.753C168.034 212.04 171.968 216.338 172.723 223.813Z" fill="#A9F2A9"/>
<path d="M223.669 130.486C216.193 129.705 211.921 125.72 211.687 118.166C211.479 110.977 217.417 105.325 224.606 106.002C232.108 106.705 236.275 111.185 236.015 118.661C235.729 126.241 231.04 129.965 223.669 130.486Z" fill="#A9F2A9"/>
<path d="M55.1456 106.054C62.5951 106.965 66.8929 111.081 66.6063 118.661C66.3198 126.266 61.7095 130.408 54.1819 130.147C46.5761 129.887 42.4606 125.277 42.695 117.723C42.9295 110.065 47.67 106.444 55.1456 106.054Z" fill="#A9F2A9"/>
<path d="M130.345 54.4546C129.537 62.399 125.578 66.8791 117.946 66.7488C110.341 66.6186 106.017 62.1645 106.121 54.5587C106.225 46.953 110.705 42.6552 118.285 42.7073C125.995 42.7593 129.642 47.5 130.345 54.4546Z" fill="#A9F2A9"/>
<path d="M172.646 54.8711C171.943 62.2945 168.036 66.5923 160.482 66.8528C153.267 67.1132 147.693 61.3047 148.292 54.0897C148.891 46.5881 153.319 42.4466 160.795 42.655C168.348 42.8633 172.099 47.4737 172.646 54.8711Z" fill="#A9F2A9"/>
<path d="M76.1121 235.091C69.4701 234.336 65.0421 230.846 64.8858 224.178C64.7555 217.536 68.9232 213.212 75.5391 213.055C82.1812 212.899 86.505 217.093 86.6613 223.709C86.8696 230.377 82.5197 233.997 76.1121 235.091Z" fill="#A9F2A9"/>
<path d="M139.434 256.294C132.896 255.512 128.442 252.022 128.286 245.328C128.156 238.66 132.376 234.31 138.991 234.128C145.66 233.971 150.009 238.191 150.192 244.833C150.4 251.579 146.05 255.226 139.434 256.294Z" fill="#A9F2A9"/>
<path d="M245.812 128.194C251.725 129.158 255.762 132.7 256.127 139.342C256.439 145.359 250.214 151.22 244.327 150.412C237.841 149.527 234.039 145.489 233.96 138.847C233.856 133.169 239.639 128.038 245.812 128.194Z" fill="#A9F2A9"/>
<path d="M44.5988 139.238C43.5309 146.088 39.8842 150.36 33.2422 150.178C26.6523 149.995 22.4847 145.697 22.641 139.082C22.7972 132.492 27.1211 128.35 33.7371 128.48C40.4052 128.611 43.7392 133.143 44.5988 139.238Z" fill="#A9F2A9"/>
<path d="M139.097 22.4426C145.609 23.198 150.037 26.6883 150.141 33.3564C150.271 39.9984 146.077 44.3223 139.461 44.4525C132.819 44.5827 128.522 40.3892 128.365 33.7732C128.209 27.1051 132.533 23.4845 139.097 22.4426Z" fill="#A9F2A9"/>
<path d="M86.8728 54.5588C86.1435 61.0446 82.6792 65.4205 76.0372 65.5768C69.4212 65.707 65.1234 61.5655 64.9671 54.9756C64.8109 48.3596 68.9784 44.0618 75.5684 43.9055C82.2104 43.7232 85.8309 47.9949 86.8728 54.5588Z" fill="#A9F2A9"/>
<path d="M213.904 224.152C212.81 230.742 209.163 235.091 202.469 234.909C195.827 234.727 191.608 230.377 191.764 223.709C191.946 217.067 196.296 212.847 202.964 213.003C209.658 213.134 213.149 217.614 213.904 224.152Z" fill="#A9F2A9"/>
<path d="M202.544 43.5405C209.082 44.3219 213.536 47.8122 213.692 54.5064C213.822 61.1744 209.603 65.5244 202.961 65.6806C196.293 65.8369 191.943 61.5912 191.786 54.9492C191.578 48.2551 195.928 44.6085 202.544 43.5405Z" fill="#A9F2A9"/>
<path d="M54.5484 191.697C61.3988 192.739 65.6706 196.386 65.4883 203.028C65.332 209.618 61.0342 213.785 54.4182 213.655C47.8283 213.499 43.6868 209.201 43.791 202.585C43.9212 195.891 48.4273 192.557 54.5484 191.697Z" fill="#A9F2A9"/>
<path d="M224.031 87.0656C217.493 86.2842 213.039 82.7678 212.909 76.0737C212.779 69.4056 216.999 65.0557 223.667 64.8994C230.335 64.7432 234.659 68.9888 234.841 75.6309C234.997 82.3771 230.621 86.0237 224.031 87.0656Z" fill="#A9F2A9"/>
<path d="M65.7191 75.5525C64.9638 82.1945 61.4995 86.5965 54.8575 86.7268C48.2415 86.857 43.9437 82.6894 43.7875 76.0995C43.6312 69.4835 47.7987 65.2118 54.3886 65.0294C61.0827 64.8471 64.6512 69.197 65.7191 75.5525Z" fill="#A9F2A9"/>
<path d="M235.107 203.027C234.039 209.513 230.47 213.55 223.828 213.863C217.811 214.176 211.977 207.924 212.784 202.012C213.696 195.526 217.759 191.41 224.375 191.749C230.965 192.114 234.403 196.542 235.107 203.027Z" fill="#A9F2A9"/>
<path d="M245.341 86.8574C251.826 87.5346 255.369 91.1031 255.056 97.5888C254.718 104.153 250.628 107.435 244.221 107.044C238.204 106.679 234.896 102.955 234.974 96.9116C235.052 90.3738 238.933 87.196 245.341 86.8574Z" fill="#A9F2A9"/>
<path d="M245.289 191.906C238.517 191.28 234.818 187.92 234.922 181.487C235.026 175.053 238.751 171.459 245.159 171.537C251.592 171.615 255.135 175.366 255.135 181.773C255.109 188.337 251.123 191.359 245.289 191.906Z" fill="#A9F2A9"/>
<path d="M33.0859 191.723C26.7044 190.994 23.214 187.452 23.5787 181.018C23.9434 174.506 28.0067 171.302 34.3622 171.719C40.3531 172.11 43.5569 175.835 43.4267 181.799C43.3225 188.337 39.4414 191.411 33.0859 191.723Z" fill="#A9F2A9"/>
<path d="M181.55 23.4583C187.958 23.9531 191.683 27.2872 191.553 33.799C191.396 40.3368 187.541 43.749 181.108 43.5667C175.091 43.3844 171.679 39.842 171.574 33.8251C171.47 27.2872 175.143 23.9531 181.55 23.4583Z" fill="#A9F2A9"/>
<path d="M34.154 107.121C27.3817 106.731 23.5527 103.553 23.5527 97.0411C23.5788 90.5554 27.2514 87.013 33.7111 87.0911C39.702 87.1432 43.1663 90.5554 43.4267 96.5462C43.7133 103.084 40.0406 106.366 34.154 107.121Z" fill="#A9F2A9"/>
<path d="M191.786 245.094C191.031 251.97 187.41 255.486 180.95 255.122C174.386 254.757 171.13 250.616 171.547 244.208C171.938 238.165 175.715 234.935 181.732 235.013C188.374 235.144 191.317 239.181 191.786 245.094Z" fill="#A9F2A9"/>
<path d="M97.2899 255.252C90.4395 254.679 86.7668 251.267 86.9752 244.755C87.1836 238.217 91.0906 234.857 97.5243 235.092C103.541 235.326 106.875 238.92 106.953 244.937C107.058 251.579 103.15 254.653 97.2899 255.252Z" fill="#A9F2A9"/>
<path d="M107.033 33.9815C106.303 40.3631 102.761 43.8534 96.3271 43.4887C89.8153 43.1241 86.6115 39.0607 87.0282 32.7052C87.4189 26.7143 91.1437 23.5105 97.1086 23.6408C103.646 23.745 106.72 27.626 107.033 33.9815Z" fill="#A9F2A9"/>
<path d="M266.101 169.687C260.318 168.567 256.75 165.389 257.245 159.815C257.714 154.397 261.464 151.011 267.091 151.584C272.118 152.079 275.322 155.569 275.139 160.7C274.931 166.301 271.128 169.009 266.101 169.687Z" fill="#A9F2A9"/>
<path d="M12.3739 169.349C6.98214 168.802 3.51784 165.806 3.64808 160.206C3.75227 155.101 7.06026 151.819 12.1916 151.793C17.7657 151.767 21.1778 155.205 21.0737 160.805C20.9434 165.884 17.6094 168.724 12.3739 169.349Z" fill="#A9F2A9"/>
<path d="M160.14 3.48022C165.063 3.81884 168.657 6.34542 169.152 11.5028C169.673 17.155 166.417 20.8798 160.869 21.1923C155.269 21.5049 151.701 18.0146 151.622 12.4144C151.544 7.25709 154.852 4.31373 160.14 3.48022Z" fill="#A9F2A9"/>
<path d="M275.322 117.879C274.801 123.271 271.936 127.022 266.362 127.126C260.814 127.23 257.297 123.662 257.219 118.113C257.167 113.008 260.501 109.57 265.528 109.231C271.102 108.867 274.254 112.357 275.322 117.879Z" fill="#A9F2A9"/>
<path d="M12.091 109.336C16.9618 109.648 20.5042 112.123 20.9991 117.254C21.5201 122.854 18.3162 126.553 12.7942 126.865C7.24615 127.152 3.70376 123.766 3.62562 118.166C3.57353 113.034 6.80338 110.117 12.091 109.336Z" fill="#A9F2A9"/>
<path d="M127.163 266.062C126.616 271.401 123.724 275.1 118.202 275.126C112.706 275.152 109.242 271.636 109.242 266.114C109.242 261.035 112.576 257.675 117.577 257.388C123.099 257.075 126.225 260.514 127.163 266.062Z" fill="#A9F2A9"/>
<path d="M127.035 12.2577C126.645 17.2587 123.988 20.7751 118.856 21.1658C113.23 21.5826 109.506 18.2746 109.323 12.7005C109.115 7.10034 112.657 3.58396 118.283 3.61001C123.415 3.6621 126.306 7.02217 127.035 12.2577Z" fill="#A9F2A9"/>
<path d="M160.431 275.309C155.013 274.605 151.393 271.61 151.523 266.062C151.653 260.566 155.3 257.18 160.822 257.362C165.849 257.544 169.183 260.904 169.287 265.958C169.417 271.532 165.901 274.527 160.431 275.309Z" fill="#A9F2A9"/>
<path d="M244.922 232.044C239.686 231.627 236.769 228.814 237.003 223.448C237.212 218.578 240.155 215.869 245 215.921C250.392 215.973 253.205 219.098 252.996 224.412C252.84 229.335 249.819 231.731 244.922 232.044Z" fill="#A9F2A9"/>
<path d="M223.1 25.49C228.778 25.7765 231.852 28.3291 231.8 33.7209C231.748 38.5657 229.013 41.4048 224.168 41.509C218.854 41.6393 215.911 38.748 215.885 33.4344C215.911 28.5115 218.88 26.1412 223.1 25.49Z" fill="#A9F2A9"/>
<path d="M223.983 236.993C228.88 237.41 231.797 239.91 231.875 244.833C231.953 250.173 229.036 253.168 223.67 253.116C218.799 253.064 215.986 250.277 215.856 245.38C215.752 239.988 218.773 237.305 223.983 236.993Z" fill="#A9F2A9"/>
<path d="M244.299 46.5884C249.977 46.8749 253.077 49.4536 253.025 54.8714C252.973 59.7422 250.238 62.6074 245.341 62.7116C240.001 62.8418 237.006 59.9245 237.006 54.5588C237.006 49.6359 239.975 47.2135 244.299 46.5884Z" fill="#A9F2A9"/>
<path d="M62.5985 33.7468C62.1296 38.5395 59.603 41.4307 54.7062 41.4047C49.3144 41.3786 46.5013 38.2009 46.8399 32.9394C47.1264 28.0946 50.226 25.542 55.0708 25.7503C59.9677 25.9587 62.3119 28.9541 62.5985 33.7468Z" fill="#A9F2A9"/>
<path d="M33.7858 215.947C38.6045 216.468 41.4437 219.046 41.3656 223.995C41.2614 229.439 38.0316 232.2 32.718 231.81C27.8211 231.471 25.3205 228.293 25.581 223.422C25.8935 218.473 28.941 216.155 33.7858 215.947Z" fill="#A9F2A9"/>
<path d="M210.256 12.1537C209.865 16.5296 207.573 19.5511 203.197 19.7856C198.326 20.046 195.279 17.0766 195.331 12.2058C195.383 7.8299 198.274 5.06887 202.676 5.01678C207.13 4.99073 209.5 7.88198 210.256 12.1537Z" fill="#A9F2A9"/>
<path d="M83.2766 12.4403C82.6514 16.712 80.3333 19.7074 75.9834 19.7335C71.1907 19.7595 68.1953 16.712 68.4818 11.9193C68.7422 7.67364 71.6595 4.91261 76.0615 5.09494C80.4374 5.27727 82.7035 8.19457 83.2766 12.4403Z" fill="#A9F2A9"/>
<path d="M54.6251 237.097C59.4698 237.436 62.4653 239.884 62.5434 244.833C62.6216 250.225 59.5741 253.168 54.2084 252.96C49.2855 252.778 46.6547 249.756 46.7588 244.885C46.863 239.936 49.7803 237.488 54.6251 237.097Z" fill="#A9F2A9"/>
<path d="M266.127 210.451C261.464 209.8 258.443 207.247 258.703 202.35C258.938 198 261.777 195.239 266.153 195.291C270.997 195.37 273.889 198.365 273.68 203.236C273.472 207.638 270.529 209.93 266.127 210.451Z" fill="#A9F2A9"/>
<path d="M11.7764 195.265C16.4388 195.786 19.4602 198.052 19.6426 202.376C19.851 207.169 16.8555 210.216 12.0628 210.112C7.76505 210.034 5.03012 207.117 5.00407 202.767C4.97802 198.313 8.05161 196.177 11.7764 195.265Z" fill="#A9F2A9"/>
<path d="M33.7856 62.7376C28.498 62.1646 25.6068 59.6641 25.6589 54.7672C25.711 49.3754 28.8888 46.5884 34.1764 46.927C39.0212 47.2396 41.5477 50.3392 41.3394 55.184C41.131 60.1329 37.9532 62.2688 33.7856 62.7376Z" fill="#A9F2A9"/>
<path d="M265.712 83.4713C261.206 82.5076 258.237 79.8768 258.784 75.032C259.252 70.8124 262.196 68.1035 266.546 68.4161C271.286 68.7807 274.073 71.8803 273.578 76.673C273.136 80.9708 270.14 83.2109 265.712 83.4713Z" fill="#A9F2A9"/>
<path d="M83.3523 266.556C82.5709 270.828 80.1745 273.693 75.7465 273.641C71.3445 273.589 68.4793 270.802 68.4533 266.426C68.4272 261.555 71.5008 258.612 76.3456 258.899C80.6694 259.133 82.9616 262.181 83.3523 266.556Z" fill="#A9F2A9"/>
<path d="M202.205 258.56C207.285 259.289 210.332 261.764 210.15 266.609C209.967 270.906 207.154 273.694 202.804 273.667C198.012 273.641 195.147 270.672 195.251 265.853C195.381 261.503 198.507 259.42 202.205 258.56Z" fill="#A9F2A9"/>
<path d="M19.7711 76.0736C18.9637 80.3974 16.5412 83.3147 12.0872 83.1063C7.71124 82.924 4.92418 80.0067 5.08047 75.6047C5.2628 71.2288 8.15405 68.4418 12.5821 68.598C16.984 68.7804 19.2762 71.7758 19.7711 76.0736Z" fill="#A9F2A9"/>
<path d="M294 139.16C293.557 143.458 291.343 145.932 287.279 145.88C283.216 145.828 280.742 143.327 280.794 139.264C280.846 135.201 283.346 132.752 287.41 132.778C291.499 132.804 293.583 135.409 294 139.16Z" fill="#A9F2A9"/>
<path d="M187.359 286.665C187.202 290.546 185.535 292.786 182.253 293.099C178.503 293.464 176.028 291.484 175.898 287.629C175.768 283.8 178.034 281.664 181.837 281.716C185.249 281.768 186.786 284.06 187.359 286.665Z" fill="#A9F2A9"/>
<path d="M132.768 287.525C133.367 282.966 135.763 280.726 139.826 281.065C143.968 281.404 146 284.217 145.583 288.228C145.218 291.796 142.822 293.88 139.123 293.776C134.956 293.672 133.106 291.041 132.768 287.525Z" fill="#A9F2A9"/>
<path d="M102.709 287.368C102.292 290.963 100.391 293.203 96.6137 293.047C93.3578 292.891 91.3262 290.807 91.3262 287.551C91.3262 283.826 93.5662 281.664 97.2909 281.794C100.573 281.899 102.266 284.086 102.709 287.368Z" fill="#A9F2A9"/>
<path d="M293.191 96.4163C292.931 100.584 291.056 102.772 287.253 102.772C283.945 102.772 281.861 100.896 281.6 97.6405C281.288 93.9679 283.137 91.5455 286.94 91.2589C290.769 90.9985 292.592 93.2906 293.191 96.4163Z" fill="#A9F2A9"/>
<path d="M293.165 181.513C292.931 185.185 291.056 187.399 287.253 187.399C283.945 187.399 281.861 185.524 281.6 182.268C281.288 178.595 283.137 176.147 286.94 175.886C290.691 175.652 292.723 177.762 293.165 181.513Z" fill="#A9F2A9"/>
</g>
<g opacity="0.4">
<path d="M614.789 1055.96C608.616 1060.1 602.286 1060.91 596.113 1056.14C589.992 1051.43 589.419 1044.97 591.789 1037.05C583.766 1038.79 576.551 1038.74 571.811 1031.6C567.747 1025.48 568.737 1019.49 572.749 1013.71C573.243 1013.21 573.738 1012.75 574.233 1012.25C577.098 1010.19 580.432 1008.19 583.766 1008.86C589.862 1010.09 588.741 1007.28 589.08 1002.98C589.523 997.039 588.898 994.616 582.256 995.58C579.833 995.919 577.046 993.783 574.442 992.767C573.738 992.064 573.035 991.36 572.332 990.683C568.815 984.77 567.721 978.753 571.993 972.789C576.734 966.173 583.428 965.6 591.659 967.788C589.575 959.687 589.888 952.576 596.998 947.862C603.093 943.85 609.084 944.84 614.815 948.825C615.31 949.32 615.778 949.815 616.273 950.31C617.445 953.201 619.972 956.301 619.529 958.906C618.357 965.938 621.691 964.662 626.562 965.053C632.423 965.522 632.918 963.933 632.761 958.932C632.657 956.092 634.897 953.201 636.069 950.31C636.59 949.789 637.111 949.242 637.632 948.721C643.779 944.397 650.109 943.668 656.282 948.356C662.429 953.045 663.158 959.453 660.788 967.319C668.602 965.964 675.895 965.626 680.688 972.841C684.751 978.962 683.814 984.953 679.959 990.787C679.36 991.386 678.761 991.959 678.188 992.558C675.27 993.705 672.223 996.049 669.462 995.736C663.497 995.059 663.575 997.169 663.653 1002.22C663.731 1007.12 663.445 1009.46 669.488 1008.79C672.249 1008.47 675.296 1010.84 678.188 1011.99C678.787 1012.59 679.386 1013.19 680.011 1013.79C684.126 1019.93 684.934 1026.26 680.219 1032.38C675.531 1038.45 669.227 1039.42 661.283 1036.81C662.898 1044.99 662.637 1052.44 655.084 1057.13C649.275 1060.72 643.545 1059.73 638.023 1056.22C637.267 1055.46 636.538 1054.71 635.783 1053.98C632.865 1049.65 632.11 1044.84 632.918 1039.81C624.608 1038.87 617.706 1039.1 618.565 1050.12C618.67 1051.45 617.211 1052.88 616.456 1054.26C615.883 1054.86 615.336 1055.41 614.789 1055.96ZM654.589 1030.61C649.822 1027.72 659.824 1018.63 649.197 1018.58C643.779 1018.55 642.503 1020.4 642.555 1025.43C642.633 1035.98 651.593 1026 654.589 1030.61ZM598.197 1030.74C601.14 1026.76 611.741 1036.21 609.892 1023.24C608.407 1012.93 601.869 1021.05 598.249 1018.4C599.733 1022.7 598.171 1026.29 598.197 1030.74ZM654.953 974.195C642.373 975.498 642.685 975.55 642.321 978.467C641.096 988.599 648.754 985.161 654.693 986.75C652.922 982.035 654.302 978.18 654.953 974.195ZM598.092 973.648C598.796 978.233 599.238 982.166 598.535 986.594C601.999 983.494 608.954 991.152 610.126 980.941C611.559 968.309 600.906 978.337 598.092 973.648ZM621.431 1001.54C621.639 1004.23 619.607 1008.08 625.103 1006.99C627.89 1006.44 631.485 1008.42 631.016 1002.64C630.703 998.706 630.495 997.169 625.989 997.455C622.603 997.664 620.18 997.325 621.431 1001.54Z" fill="#A9F2A9"/>
<path d="M616.327 950.31C615.832 949.815 615.364 949.32 614.869 948.825C614.79 948.2 614.869 947.497 614.634 946.95C611.43 939.891 611.326 933.223 617.89 928.066C623.23 923.872 629.247 923.846 634.612 928.013C641.202 933.119 641.124 939.813 637.998 946.872C637.764 947.419 637.816 948.122 637.738 948.747C637.217 949.268 636.696 949.815 636.175 950.336C629.533 953.019 622.917 952.967 616.327 950.31Z" fill="#A9F2A9"/>
<path d="M680.015 1013.81C679.416 1013.21 678.817 1012.61 678.192 1012.02C675.405 1005.53 675.457 999.07 678.192 992.584C678.791 991.985 679.39 991.412 679.963 990.813C682.073 990.162 684.131 989.354 686.293 988.937C692.414 987.765 697.675 989.25 701.192 994.694C704.395 999.669 704.395 1004.9 701.218 1009.88C697.727 1015.32 692.44 1016.83 686.319 1015.66C684.183 1015.3 682.125 1014.46 680.015 1013.81Z" fill="#A9F2A9"/>
<path d="M635.757 1054C636.512 1054.76 637.242 1055.51 637.997 1056.24C638.414 1057.75 638.831 1059.29 639.221 1060.8C640.94 1067.26 639.899 1073.02 634.168 1077C628.907 1080.65 623.228 1080.57 618.045 1076.79C612.419 1072.68 611.507 1066.9 613.409 1060.49C613.851 1058.98 614.346 1057.47 614.789 1055.96C615.336 1055.41 615.883 1054.84 616.43 1054.29C622.838 1051.58 629.297 1051.66 635.757 1054Z" fill="#A9F2A9"/>
<path d="M574.261 1012.25C573.766 1012.74 573.271 1013.21 572.776 1013.71C565.04 1016.18 557.278 1018.4 551.521 1010.06C548.161 1005.22 548.083 999.93 551.287 994.929C556.783 986.411 564.571 988.287 572.385 990.631C573.089 991.334 573.792 992.037 574.495 992.715C577.022 999.278 576.787 1005.79 574.261 1012.25Z" fill="#A9F2A9"/>
<path d="M702.963 1044.37C703.119 1051.53 696.659 1057.99 689.496 1057.86C682.698 1057.73 676.629 1051.68 676.499 1044.86C676.343 1037.67 682.776 1031.24 689.965 1031.37C696.738 1031.52 702.806 1037.57 702.963 1044.37Z" fill="#A9F2A9"/>
<path d="M562.906 1057.75C555.821 1057.83 549.44 1051.35 549.674 1044.29C549.883 1037.54 555.926 1031.6 562.672 1031.52C569.757 1031.45 576.138 1037.93 575.904 1044.99C575.721 1051.74 569.652 1057.68 562.906 1057.75Z" fill="#A9F2A9"/>
<path d="M597.105 1065.31C597.391 1072.39 591.062 1078.93 583.925 1078.93C577.179 1078.93 571.058 1072.99 570.771 1066.25C570.485 1059.16 576.814 1052.62 583.951 1052.62C590.723 1052.62 596.844 1058.54 597.105 1065.31Z" fill="#A9F2A9"/>
<path d="M688.975 973.205C681.786 972.762 675.847 965.86 676.576 958.801C677.28 951.977 683.739 946.403 690.433 946.819C697.622 947.262 703.561 954.191 702.832 961.223C702.155 968.048 695.695 973.622 688.975 973.205Z" fill="#A9F2A9"/>
<path d="M562.333 946.898C569.001 946.637 575.33 952.316 575.877 959.088C576.45 966.095 570.381 972.867 563.244 973.153C556.186 973.44 549.648 967.136 549.674 960.026C549.7 953.279 555.587 947.158 562.333 946.898Z" fill="#A9F2A9"/>
<path d="M681.759 938.927C681.733 946.09 675.143 952.393 668.032 952.055C661.234 951.742 655.347 945.595 655.373 938.797C655.399 931.634 661.989 925.33 669.1 925.669C675.898 925.981 681.785 932.155 681.759 938.927Z" fill="#A9F2A9"/>
<path d="M584.004 925.747C591.115 925.773 597.393 932.337 597.054 939.396C596.741 946.168 590.594 952.029 583.874 951.976C576.763 951.95 570.486 945.386 570.798 938.328C571.137 931.581 577.284 925.695 584.004 925.747Z" fill="#A9F2A9"/>
<path d="M681.76 1065.62C681.864 1072.78 675.379 1079.16 668.242 1078.98C661.443 1078.8 655.452 1072.73 655.374 1065.93C655.27 1058.77 661.73 1052.39 668.893 1052.6C675.691 1052.78 681.656 1058.82 681.76 1065.62Z" fill="#A9F2A9"/>
<path d="M592.885 1086.17C593.953 1078.72 598.172 1074.74 605.674 1074.82C612.837 1074.89 618.072 1080.99 617.161 1088.18C616.197 1095.7 611.508 1099.48 604.085 1098.96C596.505 1098.41 593.093 1093.52 592.885 1086.17Z" fill="#A9F2A9"/>
<path d="M710.856 1035.77C703.406 1035.12 699.056 1031.24 698.692 1023.68C698.353 1016.5 704.188 1010.77 711.377 1011.29C718.878 1011.83 723.15 1016.24 722.994 1023.74C722.864 1031.29 718.279 1035.15 710.856 1035.77Z" fill="#A9F2A9"/>
<path d="M553.791 1023.35C553.218 1030.8 549.441 1035.38 541.783 1035.43C534.203 1035.48 529.775 1031.21 529.671 1023.61C529.593 1016.03 533.891 1011.62 541.47 1011.49C549.128 1011.39 553.061 1015.87 553.791 1023.35Z" fill="#A9F2A9"/>
<path d="M659.723 1086.8C659.176 1094.17 655.399 1098.83 647.845 1099.07C640.37 1099.27 635.89 1095.11 635.239 1087.58C634.613 1080.39 640.292 1074.48 647.481 1074.74C655.034 1075.02 658.968 1079.32 659.723 1086.8Z" fill="#A9F2A9"/>
<path d="M710.669 993.47C703.193 992.688 698.921 988.703 698.687 981.15C698.479 973.961 704.417 968.308 711.606 968.986C719.108 969.689 723.275 974.169 723.015 981.644C722.729 989.224 718.04 992.949 710.669 993.47Z" fill="#A9F2A9"/>
<path d="M542.146 969.037C549.595 969.949 553.893 974.064 553.606 981.644C553.32 989.25 548.709 993.391 541.182 993.131C533.576 992.871 529.461 988.26 529.695 980.707C529.929 973.049 534.67 969.428 542.146 969.037Z" fill="#A9F2A9"/>
<path d="M617.345 917.438C616.537 925.383 612.578 929.863 604.946 929.732C597.341 929.602 593.017 925.148 593.121 917.542C593.225 909.937 597.705 905.639 605.285 905.691C612.995 905.743 616.642 910.484 617.345 917.438Z" fill="#A9F2A9"/>
<path d="M659.646 917.855C658.943 925.278 655.036 929.576 647.482 929.836C640.267 930.097 634.693 924.288 635.292 917.073C635.891 909.572 640.319 905.43 647.795 905.639C655.348 905.847 659.099 910.457 659.646 917.855Z" fill="#A9F2A9"/>
<path d="M563.112 1098.08C556.47 1097.32 552.042 1093.83 551.886 1087.16C551.756 1080.52 555.923 1076.2 562.539 1076.04C569.181 1075.88 573.505 1080.08 573.661 1086.69C573.87 1093.36 569.52 1096.98 563.112 1098.08Z" fill="#A9F2A9"/>
<path d="M626.434 1119.28C619.896 1118.5 615.442 1115.01 615.286 1108.31C615.156 1101.64 619.376 1097.29 625.991 1097.11C632.66 1096.96 637.009 1101.17 637.192 1107.82C637.4 1114.56 633.05 1118.21 626.434 1119.28Z" fill="#A9F2A9"/>
<path d="M531.599 1002.22C530.531 1009.07 526.884 1013.34 520.242 1013.16C513.652 1012.98 509.485 1008.68 509.641 1002.07C509.797 995.475 514.121 991.334 520.737 991.464C527.405 991.594 530.739 996.126 531.599 1002.22Z" fill="#A9F2A9"/>
<path d="M626.097 885.426C632.609 886.182 637.037 889.672 637.141 896.34C637.271 902.982 633.077 907.306 626.461 907.436C619.819 907.566 615.522 903.373 615.365 896.757C615.209 890.089 619.533 886.468 626.097 885.426Z" fill="#A9F2A9"/>
<path d="M573.873 917.542C573.144 924.028 569.679 928.404 563.037 928.56C556.421 928.691 552.123 924.549 551.967 917.959C551.811 911.343 555.978 907.045 562.568 906.889C569.21 906.707 572.831 910.979 573.873 917.542Z" fill="#A9F2A9"/>
<path d="M700.904 1087.14C699.81 1093.73 696.163 1098.08 689.469 1097.89C682.827 1097.71 678.608 1093.36 678.764 1086.69C678.946 1080.05 683.296 1075.83 689.964 1075.99C696.658 1076.12 700.149 1080.6 700.904 1087.14Z" fill="#A9F2A9"/>
<path d="M689.544 906.524C696.082 907.306 700.536 910.796 700.692 917.49C700.822 924.158 696.603 928.508 689.961 928.664C683.293 928.821 678.943 924.575 678.786 917.933C678.578 911.239 682.928 907.592 689.544 906.524Z" fill="#A9F2A9"/>
<path d="M541.548 1054.68C548.399 1055.72 552.671 1059.37 552.488 1066.01C552.332 1072.6 548.034 1076.77 541.418 1076.64C534.828 1076.48 530.687 1072.18 530.791 1065.57C530.921 1058.87 535.427 1055.54 541.548 1054.68Z" fill="#A9F2A9"/>
<path d="M711.031 950.049C704.493 949.268 700.039 945.751 699.909 939.057C699.779 932.389 703.999 928.039 710.667 927.883C717.335 927.727 721.659 931.972 721.841 938.615C721.997 945.361 717.621 949.007 711.031 950.049Z" fill="#A9F2A9"/>
<path d="M552.719 938.536C551.964 945.178 548.5 949.58 541.858 949.71C535.242 949.84 530.944 945.673 530.787 939.083C530.631 932.467 534.799 928.195 541.389 928.013C548.083 927.831 551.651 932.18 552.719 938.536Z" fill="#A9F2A9"/>
<path d="M722.107 1066.01C721.039 1072.5 717.47 1076.53 710.828 1076.85C704.811 1077.16 698.977 1070.91 699.784 1065C700.696 1058.51 704.759 1054.39 711.375 1054.73C717.965 1055.1 721.403 1059.53 722.107 1066.01Z" fill="#A9F2A9"/>
<path d="M520.086 1054.71C513.704 1053.98 510.214 1050.44 510.579 1044C510.943 1037.49 515.007 1034.29 521.362 1034.7C527.353 1035.09 530.557 1038.82 530.427 1044.78C530.322 1051.32 526.441 1054.39 520.086 1054.71Z" fill="#A9F2A9"/>
<path d="M668.55 886.442C674.958 886.937 678.683 890.271 678.553 896.783C678.396 903.32 674.541 906.733 668.108 906.55C662.091 906.368 658.679 902.826 658.574 896.809C658.47 890.271 662.143 886.937 668.55 886.442Z" fill="#A9F2A9"/>
<path d="M521.154 970.105C514.382 969.715 510.553 966.537 510.553 960.025C510.579 953.539 514.251 949.997 520.711 950.075C526.702 950.127 530.166 953.539 530.427 959.53C530.713 966.068 527.041 969.35 521.154 970.105Z" fill="#A9F2A9"/>
<path d="M678.786 1108.08C678.031 1114.95 674.41 1118.47 667.95 1118.11C661.386 1117.74 658.13 1113.6 658.547 1107.19C658.938 1101.15 662.715 1097.92 668.732 1098C675.374 1098.13 678.317 1102.16 678.786 1108.08Z" fill="#A9F2A9"/>
<path d="M584.29 1118.24C577.439 1117.66 573.767 1114.25 573.975 1107.74C574.184 1101.2 578.091 1097.84 584.524 1098.08C590.541 1098.31 593.875 1101.9 593.953 1107.92C594.058 1114.56 590.15 1117.64 584.29 1118.24Z" fill="#A9F2A9"/>
<path d="M594.033 896.965C593.303 903.347 589.761 906.837 583.327 906.472C576.815 906.108 573.611 902.044 574.028 895.689C574.419 889.698 578.144 886.494 584.109 886.624C590.646 886.729 593.72 890.61 594.033 896.965Z" fill="#A9F2A9"/>
<path d="M499.374 1032.33C493.982 1031.79 490.518 1028.79 490.648 1023.19C490.752 1018.08 494.06 1014.8 499.192 1014.78C504.766 1014.75 508.178 1018.19 508.074 1023.79C507.943 1028.87 504.609 1031.71 499.374 1032.33Z" fill="#A9F2A9"/>
<path d="M647.14 866.464C652.063 866.802 655.657 869.329 656.152 874.486C656.673 880.139 653.417 883.863 647.869 884.176C642.269 884.489 638.701 880.998 638.622 875.398C638.544 870.241 641.852 867.297 647.14 866.464Z" fill="#A9F2A9"/>
<path d="M499.091 972.319C503.962 972.632 507.504 975.106 507.999 980.238C508.52 985.838 505.316 989.537 499.794 989.849C494.246 990.136 490.704 986.749 490.626 981.149C490.574 976.018 493.803 973.101 499.091 972.319Z" fill="#A9F2A9"/>
<path d="M614.035 875.241C613.645 880.242 610.988 883.759 605.856 884.149C600.23 884.566 596.506 881.258 596.323 875.684C596.115 870.084 599.657 866.568 605.283 866.594C610.415 866.646 613.306 870.006 614.035 875.241Z" fill="#A9F2A9"/>
<path d="M710.1 888.474C715.778 888.76 718.852 891.313 718.8 896.705C718.748 901.549 716.013 904.388 711.168 904.493C705.854 904.623 702.911 901.732 702.885 896.418C702.911 891.495 705.88 889.125 710.1 888.474Z" fill="#A9F2A9"/>
<path d="M710.983 1099.98C715.88 1100.39 718.797 1102.89 718.875 1107.82C718.953 1113.16 716.036 1116.15 710.67 1116.1C705.799 1116.05 702.986 1113.26 702.856 1108.36C702.752 1102.97 705.773 1100.29 710.983 1099.98Z" fill="#A9F2A9"/>
<path d="M549.598 896.73C549.13 901.523 546.603 904.414 541.706 904.388C536.314 904.362 533.501 901.185 533.84 895.923C534.126 891.078 537.226 888.526 542.071 888.734C546.968 888.942 549.312 891.938 549.598 896.73Z" fill="#A9F2A9"/>
<path d="M520.786 1078.93C525.605 1079.45 528.444 1082.03 528.366 1086.98C528.261 1092.42 525.032 1095.18 519.718 1094.79C514.821 1094.45 512.32 1091.28 512.581 1086.41C512.894 1081.46 515.941 1079.14 520.786 1078.93Z" fill="#A9F2A9"/>
<path d="M697.256 875.137C696.865 879.513 694.573 882.535 690.197 882.769C685.326 883.03 682.279 880.06 682.331 875.189C682.383 870.814 685.274 868.053 689.676 868C694.13 867.974 696.5 870.866 697.256 875.137Z" fill="#A9F2A9"/>
<path d="M570.277 875.424C569.651 879.696 567.333 882.691 562.983 882.717C558.191 882.743 555.195 879.696 555.482 874.903C555.742 870.657 558.66 867.896 563.062 868.079C567.437 868.261 569.704 871.178 570.277 875.424Z" fill="#A9F2A9"/>
<path d="M541.625 1100.08C546.47 1100.42 549.465 1102.87 549.543 1107.82C549.622 1113.21 546.574 1116.15 541.208 1115.94C536.285 1115.76 533.655 1112.74 533.759 1107.87C533.863 1102.92 536.78 1100.47 541.625 1100.08Z" fill="#A9F2A9"/>
<path d="M498.776 1058.25C503.439 1058.77 506.46 1061.04 506.643 1065.36C506.851 1070.15 503.856 1073.2 499.063 1073.1C494.765 1073.02 492.03 1070.1 492.004 1065.75C491.978 1061.3 495.052 1059.16 498.776 1058.25Z" fill="#A9F2A9"/>
<path d="M520.786 925.721C515.498 925.148 512.607 922.648 512.659 917.751C512.711 912.359 515.889 909.572 521.176 909.911C526.021 910.223 528.548 913.323 528.339 918.168C528.131 923.117 524.953 925.252 520.786 925.721Z" fill="#A9F2A9"/>
<path d="M506.771 939.057C505.964 943.381 503.541 946.298 499.087 946.09C494.711 945.908 491.924 942.99 492.08 938.588C492.263 934.212 495.154 931.425 499.582 931.582C503.984 931.764 506.276 934.759 506.771 939.057Z" fill="#A9F2A9"/>
<path d="M589.63 854.3C589.187 857.555 587.442 859.769 584.134 859.796C580.357 859.822 578.117 857.477 578.429 853.727C578.69 850.523 580.904 848.491 584.264 848.699C587.546 848.882 589.239 851.044 589.63 854.3Z" fill="#A9F2A9"/>
<path d="M632.606 854.274C632.085 858.858 629.532 860.89 625.443 860.499C621.744 860.134 619.765 857.634 619.999 853.935C620.26 849.637 622.995 847.658 627.084 848.048C630.809 848.361 632.476 850.94 632.606 854.274Z" fill="#A9F2A9"/>
<path d="M674.385 854.039C673.707 858.103 671.598 860.265 667.899 859.874C664.747 859.535 662.716 857.347 662.95 854.065C663.184 850.341 665.555 848.309 669.253 848.648C672.483 848.934 673.968 851.33 674.385 854.039Z" fill="#A9F2A9"/>
<path d="M483.854 959.999C483.463 963.255 481.718 965.495 478.436 965.547C474.659 965.625 472.419 963.307 472.653 959.53C472.862 956.3 475.076 954.295 478.41 954.425C481.744 954.607 483.437 956.769 483.854 959.999Z" fill="#A9F2A9"/>
<path d="M484.425 1002.35C484.164 1006.34 482.002 1008.65 477.835 1008.5C474.136 1008.37 472.026 1006.15 472 1002.46C471.974 998.262 474.344 996.022 478.512 996.152C482.237 996.257 484.138 998.523 484.425 1002.35Z" fill="#A9F2A9"/>
<path d="M483.849 1044.78C483.354 1048.01 481.583 1050.23 478.275 1050.17C474.498 1050.12 472.284 1047.75 472.648 1044C472.961 1040.82 475.227 1038.79 478.561 1039.05C481.843 1039.31 483.562 1041.5 483.849 1044.78Z" fill="#A9F2A9"/>
</g>
<g opacity="0.4">
<path d="M287.028 707.863L284.469 705.906C318.522 661.195 336.527 607.783 336.527 551.42C336.527 464.106 292.599 383.777 219.014 336.537L220.76 333.827C295.278 381.639 339.748 462.992 339.748 551.42C339.748 608.476 321.503 662.58 287.028 707.863Z" fill="#CCF7CB"/>
<path d="M81.39 809.78C-61.0828 809.78 -177 693.863 -177 551.39C-177 408.917 -61.0828 293 81.39 293V296.222C-59.3064 296.222 -173.748 410.694 -173.748 551.36C-173.748 692.056 -59.2763 806.498 81.39 806.498C123.903 806.498 165.995 795.84 203.088 775.667L204.624 778.497C167.048 799.001 124.415 809.78 81.39 809.78Z" fill="#CCF7CB"/>
<path d="M81.3919 784.851C55.7998 784.851 30.6593 780.726 6.63281 772.627L8.7103 766.515C32.0744 774.403 56.5223 778.407 81.4219 778.407C198.333 778.407 295.432 690.822 307.205 574.664L313.648 575.326C301.484 694.736 201.645 784.851 81.3919 784.851Z" fill="#CCF7CB"/>
<path d="M305.457 515.14C296.997 462.48 269.96 414.217 229.283 379.261C188.185 343.913 135.646 324.463 81.391 324.463C37.5833 324.463 -4.92975 336.958 -41.5716 360.624C-84.2653 388.203 -116.843 429.752 -133.312 477.625L-139.424 475.517C-122.503 426.29 -88.9923 383.566 -45.0943 355.204C-7.39862 330.877 36.3187 318.02 81.3608 318.02C137.182 318.02 191.196 338.042 233.468 374.383C275.289 410.332 303.109 459.981 311.81 514.146L305.457 515.14Z" fill="#CCF7CB"/>
<path d="M81.392 719.996C-11.5826 719.996 -87.2148 644.364 -87.2148 551.39C-87.2148 513.754 -75.0812 478.166 -52.1687 448.479L-47.0503 452.423C-69.0896 480.996 -80.7416 515.199 -80.7416 551.39C-80.7416 640.781 -7.99973 713.523 81.392 713.523C97.2591 713.523 112.946 711.235 127.97 706.719L129.836 712.921C114.18 717.648 97.8613 719.996 81.392 719.996Z" fill="#CCF7CB"/>
<path d="M195.258 675.737L190.893 670.98C224.343 640.33 243.522 596.763 243.522 551.42C243.522 519.505 234.249 488.614 216.726 462.088L222.115 458.536C240.361 486.115 249.995 518.24 249.995 551.45C249.965 598.57 230.033 643.883 195.258 675.737Z" fill="#CCF7CB"/>
<path d="M182.253 424.453C153.319 401.42 118.424 389.257 81.3904 389.257C48.9035 389.257 17.5607 398.831 -9.26587 416.956L-12.8789 411.597C15.0014 392.749 47.6088 382.813 81.3904 382.813C119.929 382.813 156.21 395.459 186.288 419.425L182.253 424.453Z" fill="#CCF7CB"/>
<path d="M81.3897 691.032C58.688 691.032 36.1368 685.462 16.2051 674.924L17.7105 672.064C37.1906 682.361 59.1998 687.811 81.3596 687.811C142.57 687.811 196.645 646.653 212.873 587.7L215.974 588.574C199.414 648.911 144.045 691.032 81.3897 691.032Z" fill="#CCF7CB"/>
<path d="M-17.3366 650.175C-43.7116 623.8 -58.2539 588.724 -58.2539 551.42C-58.2539 474.433 4.37151 411.777 81.3887 411.777C158.376 411.777 221.031 474.433 221.031 551.42H217.81C217.81 476.209 156.629 415.029 81.4188 415.029C6.20806 415.029 -54.9721 476.209 -54.9721 551.42C-54.9721 587.851 -40.7911 622.114 -14.9882 647.887L-17.3366 650.175Z" fill="#CCF7CB"/>
<path d="M81.392 638.253C33.4895 638.253 -5.4707 599.292 -5.4707 551.39C-5.4707 503.488 33.4895 464.527 81.392 464.527V471.001C37.0724 471.001 1.00258 507.07 1.00258 551.39C1.00258 595.71 37.0724 631.779 81.392 631.779C125.711 631.779 161.781 595.71 161.781 551.39H168.255C168.225 599.292 129.264 638.253 81.392 638.253Z" fill="#CCF7CB"/>
<path d="M81.3902 594.565C57.5745 594.565 38.2148 575.206 38.2148 551.39H41.4364C41.4364 573.399 59.3509 591.314 81.3601 591.314C103.369 591.314 121.284 573.399 121.284 551.39C121.284 529.381 103.369 511.466 81.3601 511.466C69.1361 511.466 57.7551 516.946 50.1076 526.52L47.5785 524.503C55.8282 514.146 68.1425 508.215 81.3601 508.215C105.176 508.215 124.535 527.574 124.535 551.39C124.535 575.206 105.176 594.565 81.3902 594.565Z" fill="#CCF7CB"/>
</g>
<g opacity="0.4">
<path d="M459.999 74.9216C459.999 -2.06218 489.987 -74.4425 544.415 -128.889L547.022 -126.283C436.076 -15.3365 436.076 165.161 547.022 276.107C600.766 329.852 672.222 359.451 748.207 359.451C824.193 359.451 895.667 329.852 949.393 276.107L952 278.714C897.553 333.161 825.173 363.13 748.189 363.13C671.205 363.13 598.825 333.142 544.378 278.714C489.968 224.286 459.999 151.905 459.999 74.9216Z" fill="#A9F2A9"/>
<path d="M479.948 74.9217C479.948 6.18358 506.108 -62.5361 558.429 -114.857L561.036 -112.25C457.836 -9.05052 457.836 158.875 561.036 262.094C664.236 365.293 832.18 365.293 935.38 262.094L937.986 264.7C833.345 369.342 663.071 369.342 558.411 264.7C506.108 212.379 479.948 143.641 479.948 74.9217Z" fill="#A9F2A9"/>
<path d="M499.655 74.9214C499.655 8.53122 525.52 -53.8841 572.461 -100.843L575.067 -98.2366C528.811 -51.9798 503.353 9.51106 503.353 74.9029C503.353 140.313 528.829 201.804 575.067 248.042C621.324 294.299 682.815 319.757 748.207 319.757C813.617 319.757 875.108 294.281 921.346 248.042L923.953 250.649C877.012 297.59 814.579 323.455 748.188 323.455C681.798 323.455 619.383 297.59 572.424 250.649C525.52 203.727 499.655 141.312 499.655 74.9214Z" fill="#A9F2A9"/>
<path d="M519.603 74.9216C519.603 16.3519 541.899 -42.2179 586.492 -86.8108L589.099 -84.204C501.355 3.53972 501.355 146.304 589.099 234.047C676.843 321.791 819.607 321.791 907.35 234.047L909.957 236.654C820.771 325.84 675.659 325.84 586.492 236.654C541.899 192.061 519.603 133.491 519.603 74.9216Z" fill="#A9F2A9"/>
<path d="M539.424 74.9217C539.424 21.4361 559.779 -32.068 600.508 -72.7969L603.115 -70.1901C523.099 9.82568 523.099 139.999 603.115 219.997C683.131 300.012 813.304 300.012 893.301 219.997L895.908 222.603C814.469 304.043 681.929 304.043 600.49 222.603C559.779 181.911 539.424 128.407 539.424 74.9217Z" fill="#A9F2A9"/>
<path d="M559.243 74.9215C559.243 26.5016 577.676 -21.9183 614.522 -58.7648L617.129 -56.158C544.86 16.1114 544.86 133.713 617.129 205.982C652.145 240.999 698.698 260.282 748.208 260.282C797.719 260.282 844.272 240.999 879.288 205.982L881.895 208.589C846.194 244.308 798.699 263.961 748.208 263.961C697.718 263.961 650.222 244.289 614.522 208.589C577.676 171.743 559.243 123.341 559.243 74.9215Z" fill="#A9F2A9"/>
<path d="M579.061 74.9217C579.061 31.5859 595.553 -11.7498 628.554 -44.7507L631.16 -42.1439C566.619 22.3974 566.619 127.409 631.16 191.95C695.702 256.492 800.713 256.492 865.255 191.95L867.861 194.557C801.878 260.54 694.518 260.54 628.535 194.557C595.571 161.593 579.061 118.257 579.061 74.9217Z" fill="#A9F2A9"/>
</g>
<path d="M89.2559 579.5V521.75H100.418L125.242 562.505H119.328L143.736 521.75H154.815L154.981 579.5H142.319L142.236 540.973H144.569L125.076 573.395H118.995L99.0855 540.973H101.918V579.5H89.2559Z" fill="#060931"/>
<path d="M169.057 579.5V535.115H182.052V579.5H169.057ZM175.554 528.928C173.166 528.928 171.223 528.24 169.723 526.865C168.224 525.49 167.474 523.785 167.474 521.75C167.474 519.715 168.224 518.01 169.723 516.635C171.223 515.26 173.166 514.573 175.554 514.573C177.942 514.573 179.886 515.233 181.385 516.553C182.885 517.818 183.635 519.468 183.635 521.503C183.635 523.648 182.885 525.435 181.385 526.865C179.942 528.24 177.998 528.928 175.554 528.928Z" fill="#060931"/>
<path d="M222.509 534.455C226.064 534.455 229.229 535.17 232.006 536.6C234.838 537.975 237.06 540.12 238.67 543.035C240.281 545.895 241.086 549.58 241.086 554.09V579.5H228.091V556.07C228.091 552.495 227.285 549.855 225.675 548.15C224.12 546.445 221.898 545.593 219.011 545.593C216.956 545.593 215.095 546.033 213.429 546.913C211.819 547.738 210.542 549.03 209.598 550.79C208.709 552.55 208.265 554.805 208.265 557.555V579.5H195.27V535.115H207.682V547.408L205.349 543.695C206.96 540.725 209.264 538.443 212.263 536.848C215.262 535.253 218.677 534.455 222.509 534.455Z" fill="#060931"/>
<path d="M254.022 579.5V535.115H267.017V579.5H254.022ZM260.52 528.928C258.132 528.928 256.188 528.24 254.689 526.865C253.189 525.49 252.439 523.785 252.439 521.75C252.439 519.715 253.189 518.01 254.689 516.635C256.188 515.26 258.132 514.573 260.52 514.573C262.908 514.573 264.852 515.233 266.351 516.553C267.85 517.818 268.6 519.468 268.6 521.503C268.6 523.648 267.85 525.435 266.351 526.865C264.907 528.24 262.963 528.928 260.52 528.928Z" fill="#060931"/>
<path d="M307.475 534.455C311.029 534.455 314.195 535.17 316.971 536.6C319.804 537.975 322.025 540.12 323.635 543.035C325.246 545.895 326.051 549.58 326.051 554.09V579.5H313.056V556.07C313.056 552.495 312.251 549.855 310.64 548.15C309.085 546.445 306.864 545.593 303.976 545.593C301.921 545.593 300.061 546.033 298.395 546.913C296.784 547.738 295.507 549.03 294.563 550.79C293.674 552.55 293.23 554.805 293.23 557.555V579.5H280.235V535.115H292.647V547.408L290.315 543.695C291.925 540.725 294.23 538.443 297.229 536.848C300.228 535.253 303.643 534.455 307.475 534.455Z" fill="#060931"/>
<path d="M360.389 596.165C356.168 596.165 352.086 595.643 348.143 594.598C344.256 593.608 341.007 592.095 338.397 590.06L343.562 580.82C345.45 582.36 347.838 583.57 350.726 584.45C353.669 585.385 356.557 585.853 359.389 585.853C363.998 585.853 367.33 584.835 369.385 582.8C371.496 580.765 372.551 577.74 372.551 573.725V567.043L373.384 555.905L373.217 544.685V535.115H385.546V572.075C385.546 580.325 383.38 586.403 379.048 590.308C374.717 594.213 368.497 596.165 360.389 596.165ZM358.389 577.355C354.224 577.355 350.448 576.475 347.06 574.715C343.728 572.9 341.035 570.398 338.98 567.208C336.981 563.963 335.981 560.195 335.981 555.905C335.981 551.56 336.981 547.793 338.98 544.603C341.035 541.358 343.728 538.855 347.06 537.095C350.448 535.335 354.224 534.455 358.389 534.455C362.166 534.455 365.498 535.225 368.386 536.765C371.273 538.25 373.523 540.588 375.133 543.778C376.744 546.913 377.549 550.955 377.549 555.905C377.549 560.8 376.744 564.843 375.133 568.033C373.523 571.168 371.273 573.505 368.386 575.045C365.498 576.585 362.166 577.355 358.389 577.355ZM360.972 566.795C363.249 566.795 365.276 566.355 367.053 565.475C368.83 564.54 370.218 563.248 371.218 561.598C372.218 559.948 372.717 558.05 372.717 555.905C372.717 553.705 372.218 551.808 371.218 550.213C370.218 548.563 368.83 547.298 367.053 546.418C365.276 545.483 363.249 545.015 360.972 545.015C358.695 545.015 356.668 545.483 354.891 546.418C353.114 547.298 351.697 548.563 350.642 550.213C349.643 551.808 349.143 553.705 349.143 555.905C349.143 558.05 349.643 559.948 350.642 561.598C351.697 563.248 353.114 564.54 354.891 565.475C356.668 566.355 358.695 566.795 360.972 566.795Z" fill="#060931"/>
<path d="M397.057 548.104V540.597L410.302 529.377C411.579 528.332 412.385 527.479 412.718 526.819C413.107 526.104 413.301 525.472 413.301 524.922C413.301 524.262 413.023 523.712 412.468 523.272C411.968 522.832 411.135 522.612 409.969 522.612C408.692 522.612 407.581 522.887 406.637 523.437C405.693 523.987 404.943 524.757 404.388 525.747L394.725 521.209C395.946 518.844 397.918 516.892 400.639 515.352C403.36 513.812 406.859 513.042 411.135 513.042C415.745 513.042 419.438 514.032 422.214 516.012C425.047 517.937 426.463 520.577 426.463 523.932C426.463 525.582 426.019 527.232 425.13 528.882C424.297 530.477 422.52 532.457 419.799 534.822L410.302 542.907L408.22 538.699H427.546V548.104H397.057Z" fill="#1BE046"/>
<path d="M431.009 542.494V534.739L445.587 513.867H459.499L444.837 534.739L439.089 533.089H466.079V542.494H431.009ZM449.252 548.104V542.494L450.752 533.089V528.552H461.914V548.104H449.252Z" fill="#1BE046"/>
</g>
<path d="M719 0V1103H721V0H719Z" fill="#EBECF1" mask="url(#path-1-inside-1_1280_4801)"/>
</g>
<defs>
<filter id="filter0_d_1280_4801" x="-28" y="-24" width="776" height="1159" filterUnits="userSpaceOnUse" color-interpolation-filters="sRGB">
<feFlood flood-opacity="0" result="BackgroundImageFix"/>
<feColorMatrix in="SourceAlpha" type="matrix" values="0 0 0 0 0 0 0 0 0 0 0 0 0 0 0 0 0 0 127 0" result="hardAlpha"/>
<feOffset dy="4"/>
<feGaussianBlur stdDeviation="14"/>
<feComposite in2="hardAlpha" operator="out"/>
<feColorMatrix type="matrix" values="0 0 0 0 0 0 0 0 0 0 0 0 0 0 0 0 0 0 0.01 0"/>
<feBlend mode="normal" in2="BackgroundImageFix" result="effect1_dropShadow_1280_4801"/>
<feBlend mode="normal" in="SourceGraphic" in2="effect1_dropShadow_1280_4801" result="shape"/>
</filter>
<radialGradient id="paint0_angular_1280_4801" cx="0" cy="0" r="1" gradientUnits="userSpaceOnUse" gradientTransform="translate(741.943 -69.8975) rotate(122.058) scale(1397.84 887.461)">
<stop offset="0.0145221" stop-color="white" stop-opacity="0"/>
<stop offset="0.171437" stop-color="#B0FC50" stop-opacity="0.1"/>
<stop offset="0.376715" stop-color="#4AB5B3" stop-opacity="0.117441"/>
<stop offset="0.680162" stop-color="#0082FA" stop-opacity="0.13"/>
<stop offset="0.811747" stop-color="#FAE100" stop-opacity="0.13"/>
</radialGradient>
<radialGradient id="paint1_angular_1280_4801" cx="0" cy="0" r="1" gradientUnits="userSpaceOnUse" gradientTransform="translate(736.219 319.532) rotate(132.792) scale(1083.72 941.189)">
<stop offset="0.0145221" stop-color="white" stop-opacity="0"/>
<stop offset="0.171437" stop-color="#B0FC50" stop-opacity="0.1"/>
<stop offset="0.376715" stop-color="#4AB5B3" stop-opacity="0.117441"/>
<stop offset="0.619792" stop-color="#00FA46" stop-opacity="0.13"/>
</radialGradient>
<radialGradient id="paint2_angular_1280_4801" cx="0" cy="0" r="1" gradientUnits="userSpaceOnUse" gradientTransform="translate(217.861 -140.382) rotate(99.8468) scale(1273.94 165.683)">
<stop offset="0.0145221" stop-color="white" stop-opacity="0"/>
<stop offset="0.171437" stop-color="#B0FC50" stop-opacity="0.1"/>
<stop offset="0.395833" stop-color="#4AB5B3" stop-opacity="0.117441"/>
<stop offset="0.604167" stop-color="#000AFA" stop-opacity="0.13"/>
<stop offset="0.814017" stop-color="#00FA46" stop-opacity="0.13"/>
</radialGradient>
<clipPath id="clip0_1280_4801">
<path d="M0 0H720V1103H0V0Z" fill="white"/>
</clipPath>
</defs>
</svg>
