<svg width="26" height="26" viewBox="0 0 26 26" fill="none" xmlns="http://www.w3.org/2000/svg">
<path d="M15.1159 12.9998L24.5659 3.56479C24.8483 3.28233 25.007 2.89924 25.007 2.49979C25.007 2.10034 24.8483 1.71725 24.5659 1.43479C24.2834 1.15233 23.9003 0.993652 23.5009 0.993652C23.1014 0.993652 22.7183 1.15233 22.4359 1.43479L13.0009 10.8848L3.56589 1.43479C3.28343 1.15233 2.90034 0.993653 2.50089 0.993653C2.10143 0.993653 1.71834 1.15233 1.43588 1.43479C1.15343 1.71725 0.994748 2.10034 0.994748 2.49979C0.994748 2.89924 1.15343 3.28233 1.43588 3.56479L10.8859 12.9998L1.43588 22.4348C1.29529 22.5742 1.1837 22.7401 1.10755 22.9229C1.0314 23.1057 0.992188 23.3018 0.992188 23.4998C0.992188 23.6978 1.0314 23.8939 1.10755 24.0767C1.1837 24.2594 1.29529 24.4253 1.43588 24.5648C1.57533 24.7054 1.74123 24.817 1.92402 24.8931C2.10681 24.9693 2.30287 25.0085 2.50089 25.0085C2.6989 25.0085 2.89496 24.9693 3.07775 24.8931C3.26054 24.817 3.42644 24.7054 3.56589 24.5648L13.0009 15.1148L22.4359 24.5648C22.5753 24.7054 22.7412 24.817 22.924 24.8931C23.1068 24.9693 23.3029 25.0085 23.5009 25.0085C23.6989 25.0085 23.895 24.9693 24.0778 24.8931C24.2605 24.817 24.4264 24.7054 24.5659 24.5648C24.7065 24.4253 24.8181 24.2594 24.8942 24.0767C24.9704 23.8939 25.0096 23.6978 25.0096 23.4998C25.0096 23.3018 24.9704 23.1057 24.8942 22.9229C24.8181 22.7401 24.7065 22.5742 24.5659 22.4348L15.1159 12.9998Z" fill="#060931"/>
</svg>
