<svg width="128" height="180" viewBox="0 0 128 180" fill="none" xmlns="http://www.w3.org/2000/svg">
<path d="M127.805 112.212L127.769 112.34C127.632 112.717 127.448 113.075 127.221 113.406L127.097 113.591C126.829 113.957 126.524 114.293 126.187 114.595C125.931 114.807 125.664 115.005 125.387 115.187C125.148 115.355 124.944 115.537 124.675 115.691L72.358 146.094L72.2695 177.504L124.586 147.115L124.728 147.031C124.944 146.903 125.099 146.753 125.294 146.616C125.572 146.43 125.84 146.231 126.098 146.019C126.122 145.998 126.147 145.979 126.174 145.961C126.43 145.725 126.668 145.469 126.885 145.196C126.929 145.139 126.965 145.077 127.009 145.015C127.053 144.953 127.093 144.891 127.133 144.825C127.21 144.725 127.281 144.62 127.345 144.511C127.466 144.304 127.568 144.087 127.65 143.861C127.65 143.83 127.65 143.795 127.681 143.76C127.712 143.724 127.681 143.68 127.716 143.636C127.766 143.491 127.806 143.344 127.836 143.194C127.878 142.978 127.903 142.759 127.911 142.539V142.438L127.999 111.027C127.994 111.43 127.929 111.829 127.805 112.212Z" fill="#AFCBE0"/>
<path d="M3.53094 115.7C1.27186 114.395 0.148961 112.684 0.153382 110.982L0.0605469 142.371C0.0605469 144.077 1.18345 145.788 3.44253 147.092L56.0909 177.504L56.1794 146.093L3.53094 115.7Z" fill="#AFCBE0"/>
<path d="M72.2728 177.505L72.3612 146.094C71.8485 146.386 71.3151 146.641 70.7653 146.855L70.3232 147.023C69.9783 147.146 69.6114 147.248 69.2489 147.35C68.8864 147.451 68.4929 147.553 68.1039 147.637C67.6618 147.73 67.1843 147.814 66.7157 147.871L66.3753 147.92C65.7365 147.989 65.0946 148.024 64.4522 148.026H64.1428C63.5062 148.026 62.874 147.991 62.2462 147.92L61.9588 147.889C61.3355 147.814 60.721 147.708 60.1197 147.575L59.7926 147.496C59.2558 147.36 58.7261 147.198 58.2055 147.009C58.1127 146.978 58.0154 146.952 57.9226 146.917C57.3203 146.686 56.7365 146.409 56.1763 146.09L56.0879 177.5C56.6183 177.805 57.171 178.07 57.7413 178.292L57.8341 178.327C57.927 178.362 58.0243 178.389 58.1171 178.42C58.4531 178.544 58.7846 178.663 59.1295 178.765C59.3196 178.818 59.5141 178.858 59.7042 178.902C59.8147 178.933 59.9208 178.959 60.0313 178.981L60.3231 179.056C60.6945 179.132 61.0747 179.198 61.4593 179.251C61.5919 179.273 61.7334 179.282 61.8704 179.3L62.1578 179.331C62.2948 179.331 62.4319 179.366 62.5689 179.375C62.9447 179.406 63.3205 179.428 63.6963 179.437H64.8678C65.3099 179.437 65.7166 179.392 66.1366 179.353L66.2825 179.331L66.6273 179.282C66.9545 179.242 67.2816 179.207 67.5999 179.149C67.7414 179.123 67.874 179.074 68.0111 179.043C68.4045 178.964 68.7847 178.866 69.1605 178.76C69.3594 178.703 69.5716 178.672 69.7661 178.61C69.9607 178.548 70.0756 178.491 70.2303 178.433C70.3851 178.376 70.5309 178.323 70.6724 178.261C71.2248 178.051 71.7599 177.798 72.2728 177.505Z" fill="#C5D9E8"/>
<path d="M124.615 106.32C129.107 108.911 129.115 113.111 124.668 115.692L72.3599 146.095C67.9125 148.681 60.6667 148.69 56.175 146.095L3.53105 115.701C-0.960577 113.111 -0.969417 108.911 3.478 106.329L55.7949 75.9397C60.2423 73.3579 67.4881 73.349 71.9797 75.9397L124.615 106.32Z" fill="#DBE7F3"/>
<path d="M90.6581 147.835L81.8959 152.985C81.4096 153.272 81.0117 153.109 81.0117 152.622C81.0409 152.335 81.1358 152.059 81.2891 151.814C81.4425 151.569 81.6501 151.363 81.8959 151.212L90.6581 146.062C91.1444 145.774 91.5423 145.938 91.5423 146.424C91.5138 146.712 91.4192 146.988 91.2658 147.233C91.1124 147.478 90.9044 147.684 90.6581 147.835Z" fill="#7CABD6"/>
<path d="M104.517 139.68L95.7592 144.831C95.2685 145.118 94.875 144.954 94.875 144.468C94.9031 144.181 94.9977 143.904 95.1511 143.659C95.3045 143.414 95.5127 143.208 95.7592 143.058L104.517 137.907C105.003 137.62 105.401 137.784 105.401 138.27C105.372 138.557 105.278 138.834 105.124 139.079C104.971 139.323 104.763 139.529 104.517 139.68Z" fill="#7CABD6"/>
<path d="M118.378 131.529L109.621 136.68C109.13 136.967 108.736 136.803 108.736 136.313C108.765 136.026 108.86 135.75 109.013 135.506C109.167 135.262 109.375 135.057 109.621 134.907L118.378 129.752C118.865 129.465 119.262 129.633 119.262 130.119C119.233 130.406 119.138 130.683 118.985 130.927C118.831 131.172 118.624 131.378 118.378 131.529Z" fill="#7CABD6"/>
<path d="M90.6581 152.152L81.8959 157.285C81.4096 157.572 81.0117 157.409 81.0117 156.918C81.0409 156.631 81.1358 156.355 81.2892 156.112C81.4426 155.868 81.6502 155.663 81.8959 155.512L90.6581 150.357C91.1444 150.07 91.5423 150.238 91.5423 150.724C91.5158 151.015 91.4221 151.295 91.2686 151.543C91.1152 151.79 90.9062 151.999 90.6581 152.152Z" fill="#7CABD6"/>
<path d="M104.517 143.996L95.7592 149.151C95.2685 149.439 94.875 149.275 94.875 148.784C94.9031 148.497 94.9977 148.221 95.1512 147.977C95.3046 147.733 95.5128 147.528 95.7592 147.378L104.517 142.224C105.003 141.936 105.401 142.1 105.401 142.591C105.372 142.877 105.277 143.153 105.123 143.397C104.97 143.641 104.762 143.846 104.517 143.996Z" fill="#7CABD6"/>
<path d="M118.378 135.844L109.621 140.999C109.13 141.286 108.736 141.118 108.736 140.632C108.765 140.345 108.859 140.068 109.013 139.823C109.166 139.578 109.374 139.373 109.621 139.222L118.378 134.071C118.865 133.784 119.262 133.948 119.262 134.438C119.233 134.725 119.138 135.001 118.985 135.244C118.831 135.488 118.624 135.693 118.378 135.844Z" fill="#7CABD6"/>
<path d="M90.6581 156.467L81.8959 161.622C81.4096 161.905 81.0117 161.741 81.0117 161.255C81.0409 160.968 81.1358 160.691 81.2891 160.447C81.4425 160.202 81.6501 159.996 81.8959 159.845L90.6581 154.695C91.1444 154.407 91.5423 154.571 91.5423 155.057C91.5138 155.344 91.4192 155.621 91.2658 155.866C91.1124 156.111 90.9044 156.316 90.6581 156.467Z" fill="#7CABD6"/>
<path d="M104.517 148.315L95.7592 153.465C95.2685 153.753 94.875 153.589 94.875 153.103C94.9031 152.815 94.9977 152.538 95.1511 152.294C95.3045 152.049 95.5127 151.843 95.7592 151.693L104.517 146.542C105.003 146.255 105.401 146.418 105.401 146.905C105.372 147.192 105.278 147.469 105.124 147.713C104.971 147.958 104.763 148.164 104.517 148.315Z" fill="#7CABD6"/>
<path d="M118.378 140.16L109.621 145.31C109.13 145.598 108.736 145.434 108.736 144.948C108.764 144.66 108.859 144.383 109.012 144.139C109.166 143.894 109.374 143.688 109.621 143.538L118.378 138.383C118.865 138.1 119.262 138.263 119.262 138.75C119.233 139.037 119.138 139.313 118.985 139.558C118.831 139.802 118.624 140.008 118.378 140.16Z" fill="#7CABD6"/>
<path d="M44.5959 145.851V145.789C44.5959 145.763 44.5959 145.741 44.5959 145.719C44.5959 145.696 44.5959 145.67 44.5959 145.648V145.577V145.515V145.44C44.5959 145.413 44.5959 145.387 44.5959 145.365C44.5978 145.338 44.5978 145.312 44.5959 145.285C44.5973 145.265 44.5973 145.244 44.5959 145.223C44.5972 145.198 44.5972 145.173 44.5959 145.148L44.5693 145.078L44.5428 145.007L44.5163 144.936L44.4898 144.879L44.4588 144.812L44.4234 144.733C44.407 144.706 44.3922 144.678 44.3792 144.649L44.3262 144.556C44.2941 144.496 44.2586 144.439 44.2201 144.383L44.1317 144.255C44.1136 144.225 44.0928 144.197 44.0698 144.171C44.052 144.147 44.0328 144.123 44.0123 144.1L43.9592 144.039L43.9018 143.977C43.886 143.963 43.8712 143.948 43.8576 143.932L43.7957 143.871L43.7338 143.813L43.6675 143.756L43.6365 143.729L43.6144 143.707L43.5525 143.658L43.4862 143.614L43.4287 143.574L43.3668 143.539L14.5338 126.983L14.4896 126.956L14.4321 126.925L14.3746 126.899L14.3172 126.872H14.2597H14.2199H14.1624C14.142 126.868 14.121 126.868 14.1005 126.872H14.0387H13.8309H13.7513L13.6584 126.899C13.6168 126.912 13.5768 126.93 13.5391 126.952L11.9785 127.889C12.0436 127.853 12.1136 127.826 12.1863 127.809C12.2671 127.8 12.3486 127.8 12.4294 127.809C12.5198 127.818 12.6088 127.838 12.6947 127.867C12.796 127.902 12.8937 127.946 12.9865 128L41.625 144.45C41.7255 144.509 41.8216 144.575 41.9124 144.649C42.0036 144.727 42.0907 144.809 42.1732 144.896C42.2572 144.989 42.3412 145.086 42.4164 145.188C42.4922 145.29 42.5616 145.396 42.6241 145.506C42.6863 145.615 42.7424 145.727 42.7921 145.842C42.8407 145.957 42.8835 146.073 42.9203 146.192C42.9553 146.309 42.9819 146.429 42.9999 146.55C43.021 146.665 43.0314 146.782 43.0309 146.899C43.03 147.003 43.0196 147.106 42.9999 147.208C42.9806 147.295 42.9525 147.379 42.9159 147.46C42.8859 147.521 42.8488 147.577 42.8054 147.628C42.8054 147.628 42.8054 147.664 42.7656 147.677C42.7214 147.728 42.6691 147.771 42.6109 147.805L44.1714 146.868C44.2311 146.834 44.2849 146.791 44.3306 146.74L44.3704 146.691L44.4234 146.625L44.4765 146.528C44.4765 146.505 44.4986 146.479 44.5074 146.452L44.534 146.377C44.534 146.355 44.534 146.329 44.534 146.302C44.536 146.293 44.536 146.284 44.534 146.276C44.534 146.276 44.534 146.253 44.534 146.245V146.174C44.534 146.152 44.534 146.13 44.534 146.103C44.5361 146.081 44.5361 146.059 44.534 146.037V145.971L44.5959 145.851Z" fill="#7CABD6"/>
<path d="M41.6169 144.37C42.0347 144.642 42.3825 145.009 42.6321 145.441C42.8817 145.872 43.0261 146.357 43.0537 146.855C43.0537 147.765 42.4038 148.132 41.608 147.677L12.9695 131.222C12.5518 130.952 12.2043 130.586 11.9553 130.155C11.7064 129.723 11.5631 129.24 11.5371 128.742C11.5371 127.832 12.187 127.46 12.9783 127.92L41.6169 144.37Z" fill="white"/>
<path d="M41.6192 144.372L12.9806 127.922C12.8366 127.817 12.6677 127.753 12.4908 127.734C12.3139 127.715 12.1353 127.744 11.9727 127.816C12.1199 127.783 12.2723 127.781 12.4205 127.809C12.5687 127.837 12.7096 127.895 12.8347 127.979L41.4777 144.429C41.8949 144.702 42.2421 145.069 42.4909 145.5C42.7398 145.932 42.8834 146.416 42.9101 146.914C42.9279 147.094 42.8962 147.276 42.8183 147.44C42.7404 147.603 42.6192 147.742 42.468 147.842C42.6616 147.767 42.8242 147.629 42.9294 147.45C43.0345 147.271 43.076 147.062 43.0471 146.856C43.0206 146.359 42.8775 145.875 42.6295 145.444C42.3814 145.012 42.0353 144.645 41.6192 144.372Z" fill="white"/>
<path d="M44.5959 153.599V153.528C44.5959 153.506 44.5959 153.484 44.5959 153.462C44.5959 153.44 44.5959 153.413 44.5959 153.391V153.321V153.254V153.179C44.5959 153.157 44.5959 153.13 44.5959 153.104C44.5959 153.077 44.5959 153.055 44.5959 153.029L44.5738 152.967L44.5472 152.892L44.5207 152.821L44.4942 152.75L44.4677 152.68C44.4659 152.66 44.4659 152.641 44.4677 152.622L44.4367 152.551C44.4367 152.551 44.4367 152.503 44.4013 152.476L44.3571 152.392L44.3041 152.299C44.2687 152.242 44.2334 152.184 44.1936 152.127C44.1538 152.069 44.1361 152.043 44.1051 151.999L44.0388 151.915C44.0222 151.889 44.0029 151.866 43.9813 151.844L43.9283 151.778L43.8708 151.716L43.8266 151.667L43.7647 151.61L43.7028 151.548L43.6365 151.495L43.6056 151.468L43.5791 151.446L43.5172 151.397L43.4553 151.353L43.3934 151.313L43.3315 151.278L14.5338 134.74L14.4896 134.717L14.4321 134.686L14.3746 134.66L14.3172 134.633L14.2597 134.611H14.2199H14.1624H14.1005H14.0387H13.8309H13.7513L13.6584 134.638L13.5391 134.691L11.9785 135.628C12.0436 135.592 12.1136 135.565 12.1863 135.549C12.2668 135.535 12.3489 135.535 12.4294 135.549C12.5198 135.557 12.6089 135.576 12.6947 135.606C12.7948 135.644 12.8923 135.688 12.9865 135.739L41.625 152.193C41.7255 152.252 41.8216 152.319 41.9124 152.392C42.0036 152.47 42.0907 152.553 42.1732 152.64C42.2603 152.732 42.3415 152.829 42.4164 152.932C42.4922 153.033 42.5616 153.139 42.6241 153.25C42.686 153.356 42.7435 153.471 42.7966 153.581C42.8452 153.701 42.8894 153.816 42.9292 153.935C42.9636 154.051 42.9902 154.169 43.0087 154.289C43.0262 154.403 43.0351 154.518 43.0353 154.634C43.0371 154.738 43.0268 154.841 43.0043 154.943C42.9871 155.032 42.9588 155.118 42.9203 155.199C42.8911 155.258 42.8555 155.313 42.8142 155.363L42.77 155.416C42.7247 155.466 42.6726 155.509 42.6153 155.544L44.1759 154.607C44.2345 154.572 44.288 154.529 44.335 154.479L44.3748 154.426C44.3938 154.406 44.4115 154.386 44.4279 154.364C44.4482 154.331 44.4659 154.297 44.4809 154.262C44.4931 154.238 44.5034 154.213 44.5119 154.187L44.5384 154.112C44.5384 154.085 44.5384 154.063 44.5384 154.037C44.5408 154.027 44.5408 154.016 44.5384 154.006C44.5384 154.006 44.5384 154.006 44.5384 153.975V153.909C44.5384 153.909 44.5384 153.86 44.5384 153.838C44.5406 153.816 44.5406 153.794 44.5384 153.771C44.5384 153.749 44.5384 153.727 44.5384 153.701C44.5384 153.701 44.5959 153.621 44.5959 153.599Z" fill="#7CABD6"/>
<path d="M41.6169 152.116C42.0348 152.387 42.3828 152.753 42.6325 153.184C42.8822 153.615 43.0265 154.099 43.0537 154.596C43.0537 155.511 42.4038 155.878 41.608 155.423L12.9695 138.968C12.5518 138.696 12.2042 138.33 11.9553 137.898C11.7064 137.466 11.5631 136.982 11.5371 136.484C11.5371 135.577 12.187 135.206 12.9783 135.661L41.6169 152.116Z" fill="white"/>
<path d="M41.6192 152.115L12.9806 135.661C12.8362 135.557 12.6673 135.493 12.4906 135.474C12.314 135.456 12.1355 135.483 11.9727 135.555C12.12 135.523 12.2721 135.522 12.4201 135.55C12.5681 135.578 12.709 135.635 12.8347 135.718L41.4777 152.173C41.8948 152.444 42.242 152.81 42.4909 153.241C42.7398 153.672 42.8834 154.156 42.9101 154.653C42.9283 154.834 42.8967 155.016 42.8188 155.181C42.7409 155.345 42.6196 155.485 42.468 155.586C42.662 155.51 42.8247 155.371 42.9298 155.191C43.035 155.011 43.0763 154.801 43.0471 154.595C43.0209 154.099 42.878 153.615 42.6299 153.184C42.3818 152.753 42.0355 152.387 41.6192 152.115Z" fill="white"/>
<path d="M44.5959 161.343V161.263C44.5959 161.263 44.5959 161.219 44.5959 161.192C44.5959 161.166 44.5959 161.148 44.5959 161.126V161.051C44.5959 161.051 44.5959 161.007 44.5959 160.985C44.5959 160.963 44.5959 160.936 44.5959 160.91C44.598 160.885 44.598 160.859 44.5959 160.834C44.5959 160.808 44.5959 160.786 44.5959 160.759C44.5944 160.739 44.5944 160.718 44.5959 160.697L44.5693 160.622L44.5428 160.547C44.5372 160.522 44.5282 160.499 44.5163 160.476L44.4898 160.41C44.4898 160.388 44.4898 160.37 44.4898 160.353C44.4813 160.328 44.471 160.304 44.4588 160.282C44.4489 160.256 44.437 160.231 44.4234 160.207C44.4234 160.176 44.3925 160.149 44.3792 160.118L44.3262 160.025C44.2908 159.963 44.2555 159.91 44.2157 159.853C44.1887 159.809 44.1592 159.766 44.1272 159.725L44.0609 159.641L44.0079 159.574L43.9504 159.508L43.8929 159.446L43.8487 159.398L43.7868 159.336L43.725 159.278L43.6586 159.225L43.6277 159.199H43.6012L43.5393 159.15L43.4774 159.106L43.4155 159.066L43.3536 159.026L14.5338 142.47L14.4896 142.443L14.4321 142.413L14.3746 142.386L14.3172 142.364L14.2597 142.342H14.2199H14.1624H14.1005H14.0387H13.8353H13.7513L13.6584 142.368L13.5391 142.421L11.9785 143.359C12.043 143.318 12.1153 143.291 12.1907 143.279C12.2712 143.266 12.3534 143.266 12.4339 143.279C12.5241 143.288 12.6131 143.308 12.6991 143.336C12.7993 143.37 12.8956 143.415 12.9865 143.469L41.625 159.924C41.7261 159.98 41.8223 160.045 41.9124 160.118C42.0047 160.195 42.0918 160.278 42.1732 160.366C42.2624 160.456 42.3437 160.554 42.4164 160.658C42.4922 160.759 42.5616 160.865 42.6241 160.976C42.6877 161.085 42.7453 161.197 42.7966 161.312C42.8491 161.426 42.8934 161.545 42.9292 161.666C42.9645 161.785 42.9911 161.904 43.0132 162.019C43.0305 162.135 43.0393 162.252 43.0397 162.368C43.0412 162.472 43.0308 162.576 43.0087 162.678C42.9908 162.766 42.9626 162.852 42.9247 162.934C42.8967 162.995 42.8611 163.051 42.8187 163.102L42.7789 163.151C42.7322 163.202 42.6787 163.247 42.6197 163.284L44.1803 162.346C44.2401 162.311 44.2938 162.266 44.3394 162.214L44.3792 162.165C44.3993 162.145 44.4171 162.123 44.4323 162.099C44.4542 162.069 44.4721 162.036 44.4853 162.002C44.4853 161.975 44.5074 161.948 44.5163 161.926L44.5428 161.847C44.5428 161.847 44.5428 161.803 44.5428 161.776C44.5428 161.75 44.5428 161.754 44.5428 161.745C44.5428 161.745 44.5428 161.745 44.5428 161.714V161.648C44.5428 161.621 44.5428 161.599 44.5428 161.577C44.545 161.555 44.545 161.533 44.5428 161.511C44.5428 161.484 44.5428 161.462 44.5428 161.44C44.567 161.412 44.5851 161.379 44.5959 161.343Z" fill="#7CABD6"/>
<path d="M41.6169 159.861C42.0353 160.131 42.3837 160.497 42.6334 160.928C42.8832 161.359 43.0272 161.844 43.0537 162.341C43.0537 163.252 42.4038 163.623 41.608 163.163L12.9695 146.713C12.5518 146.441 12.2042 146.075 11.9553 145.643C11.7064 145.211 11.5631 144.726 11.5371 144.229C11.5371 143.318 12.187 142.951 12.9783 143.406L41.6169 159.861Z" fill="white"/>
<path d="M41.6192 159.861L12.9806 143.407C12.8362 143.303 12.6673 143.239 12.4906 143.22C12.314 143.202 12.1355 143.229 11.9727 143.301C12.1199 143.268 12.2723 143.266 12.4205 143.294C12.5687 143.322 12.7096 143.38 12.8347 143.464L41.4777 159.936C41.8947 160.208 42.2419 160.575 42.4915 161.005C42.7411 161.436 42.8859 161.92 42.9145 162.417C42.9312 162.597 42.899 162.779 42.8213 162.944C42.7435 163.108 42.623 163.248 42.4724 163.349C42.6664 163.274 42.8291 163.135 42.9343 162.955C43.0394 162.775 43.0807 162.565 43.0515 162.359C43.0283 161.859 42.8863 161.371 42.6372 160.937C42.3881 160.503 42.0391 160.134 41.6192 159.861Z" fill="white"/>
<path d="M127.805 75.2121L127.769 75.3403C127.632 75.7171 127.448 76.075 127.221 76.4058L127.097 76.5915C126.829 76.9565 126.524 77.2928 126.187 77.595C125.931 77.8072 125.664 78.0049 125.387 78.1874C125.148 78.3554 124.944 78.5367 124.675 78.6914L72.358 109.094L72.2695 140.504L124.586 110.115L124.728 110.031C124.944 109.903 125.099 109.753 125.294 109.616C125.572 109.43 125.84 109.231 126.098 109.019C126.122 108.998 126.147 108.979 126.174 108.961C126.43 108.725 126.668 108.469 126.885 108.196C126.929 108.139 126.965 108.077 127.009 108.015C127.053 107.953 127.093 107.891 127.133 107.825C127.21 107.725 127.281 107.62 127.345 107.511C127.466 107.304 127.568 107.087 127.65 106.861C127.65 106.83 127.65 106.795 127.681 106.76C127.712 106.724 127.681 106.68 127.716 106.636C127.766 106.491 127.806 106.344 127.836 106.194C127.878 105.978 127.903 105.759 127.911 105.539V105.438L127.999 74.0273C127.994 74.4298 127.929 74.8292 127.805 75.2121Z" fill="#AFCBE0"/>
<path d="M3.53094 78.6995C1.27186 77.3954 0.148961 75.6845 0.153382 73.9824L0.0605469 105.371C0.0605469 107.077 1.18345 108.788 3.44253 110.092L56.0909 140.504L56.1794 109.093L3.53094 78.6995Z" fill="#AFCBE0"/>
<path d="M72.2728 140.505L72.3612 109.094C71.8485 109.386 71.3151 109.641 70.7653 109.855L70.3232 110.023C69.9783 110.146 69.6114 110.248 69.2489 110.35C68.8864 110.451 68.4929 110.553 68.1039 110.637C67.6618 110.73 67.1843 110.814 66.7157 110.871L66.3753 110.92C65.7365 110.989 65.0946 111.024 64.4522 111.026H64.1428C63.5062 111.026 62.874 110.991 62.2462 110.92L61.9588 110.889C61.3355 110.814 60.721 110.708 60.1197 110.575L59.7926 110.496C59.2558 110.36 58.7261 110.198 58.2055 110.009C58.1127 109.978 58.0154 109.952 57.9226 109.917C57.3203 109.686 56.7365 109.409 56.1763 109.09L56.0879 140.5C56.6183 140.805 57.171 141.07 57.7413 141.292L57.8341 141.327C57.927 141.362 58.0243 141.389 58.1171 141.42C58.4531 141.544 58.7846 141.663 59.1295 141.765C59.3196 141.818 59.5141 141.858 59.7042 141.902C59.8147 141.933 59.9208 141.959 60.0313 141.981L60.3231 142.056C60.6945 142.132 61.0747 142.198 61.4593 142.251C61.5919 142.273 61.7334 142.282 61.8704 142.3L62.1578 142.331C62.2948 142.331 62.4319 142.366 62.5689 142.375C62.9447 142.406 63.3205 142.428 63.6963 142.437H64.8678C65.3099 142.437 65.7166 142.392 66.1366 142.353L66.2825 142.331L66.6273 142.282C66.9545 142.242 67.2816 142.207 67.5999 142.149C67.7414 142.123 67.874 142.074 68.0111 142.043C68.4045 141.964 68.7847 141.866 69.1605 141.76C69.3594 141.703 69.5716 141.672 69.7661 141.61C69.9607 141.548 70.0756 141.491 70.2303 141.433C70.3851 141.376 70.5309 141.323 70.6724 141.261C71.2248 141.051 71.7599 140.798 72.2728 140.505Z" fill="#C5D9E8"/>
<path d="M124.615 69.32C129.107 71.9107 129.115 76.1105 124.668 78.6923L72.3599 109.095C67.9125 111.681 60.6667 111.69 56.175 109.095L3.53105 78.7012C-0.960577 76.1105 -0.969417 71.9107 3.478 69.3289L55.7949 38.9397C60.2423 36.3579 67.4881 36.349 71.9797 38.9397L124.615 69.32Z" fill="#DBE7F3"/>
<path d="M90.6581 110.835L81.8959 115.985C81.4096 116.272 81.0117 116.109 81.0117 115.622C81.0409 115.335 81.1358 115.059 81.2891 114.814C81.4425 114.569 81.6501 114.363 81.8959 114.212L90.6581 109.062C91.1444 108.774 91.5423 108.938 91.5423 109.424C91.5138 109.712 91.4192 109.988 91.2658 110.233C91.1124 110.478 90.9044 110.684 90.6581 110.835Z" fill="#7CABD6"/>
<path d="M104.517 102.68L95.7592 107.831C95.2685 108.118 94.875 107.954 94.875 107.468C94.9031 107.181 94.9977 106.904 95.1511 106.659C95.3045 106.414 95.5127 106.208 95.7592 106.058L104.517 100.907C105.003 100.62 105.401 100.784 105.401 101.27C105.372 101.557 105.278 101.834 105.124 102.079C104.971 102.323 104.763 102.529 104.517 102.68Z" fill="#7CABD6"/>
<path d="M118.378 94.5292L109.621 99.6795C109.13 99.9669 108.736 99.8033 108.736 99.3126C108.765 99.0259 108.86 98.7498 109.013 98.5058C109.167 98.2619 109.375 98.0569 109.621 97.9067L118.378 92.752C118.865 92.4646 119.262 92.6326 119.262 93.1189C119.233 93.406 119.138 93.6825 118.985 93.927C118.831 94.1716 118.624 94.3776 118.378 94.5292Z" fill="#7CABD6"/>
<path d="M90.6581 115.152L81.8959 120.285C81.4096 120.572 81.0117 120.409 81.0117 119.918C81.0409 119.631 81.1358 119.355 81.2892 119.112C81.4426 118.868 81.6502 118.663 81.8959 118.512L90.6581 113.357C91.1444 113.07 91.5423 113.238 91.5423 113.724C91.5158 114.015 91.4221 114.295 91.2686 114.543C91.1152 114.79 90.9062 114.999 90.6581 115.152Z" fill="#7CABD6"/>
<path d="M104.517 106.996L95.7592 112.151C95.2685 112.439 94.875 112.275 94.875 111.784C94.9031 111.497 94.9977 111.221 95.1512 110.977C95.3046 110.733 95.5128 110.528 95.7592 110.378L104.517 105.224C105.003 104.936 105.401 105.1 105.401 105.591C105.372 105.877 105.277 106.153 105.123 106.397C104.97 106.641 104.762 106.846 104.517 106.996Z" fill="#7CABD6"/>
<path d="M118.378 98.8441L109.621 103.999C109.13 104.286 108.736 104.118 108.736 103.632C108.765 103.345 108.859 103.068 109.013 102.823C109.166 102.578 109.374 102.373 109.621 102.222L118.378 97.0713C118.865 96.784 119.262 96.9475 119.262 97.4383C119.233 97.7248 119.138 98.0006 118.985 98.2444C118.831 98.4883 118.624 98.6934 118.378 98.8441Z" fill="#7CABD6"/>
<path d="M90.6581 119.467L81.8959 124.622C81.4096 124.905 81.0117 124.741 81.0117 124.255C81.0409 123.968 81.1358 123.691 81.2891 123.447C81.4425 123.202 81.6501 122.996 81.8959 122.845L90.6581 117.695C91.1444 117.407 91.5423 117.571 91.5423 118.057C91.5138 118.344 91.4192 118.621 91.2658 118.866C91.1124 119.111 90.9044 119.316 90.6581 119.467Z" fill="#7CABD6"/>
<path d="M104.517 111.315L95.7592 116.465C95.2685 116.753 94.875 116.589 94.875 116.103C94.9031 115.815 94.9977 115.538 95.1511 115.294C95.3045 115.049 95.5127 114.843 95.7592 114.693L104.517 109.542C105.003 109.255 105.401 109.418 105.401 109.905C105.372 110.192 105.278 110.469 105.124 110.713C104.971 110.958 104.763 111.164 104.517 111.315Z" fill="#7CABD6"/>
<path d="M118.378 103.16L109.621 108.31C109.13 108.598 108.736 108.434 108.736 107.948C108.764 107.66 108.859 107.383 109.012 107.139C109.166 106.894 109.374 106.688 109.621 106.538L118.378 101.383C118.865 101.1 119.262 101.263 119.262 101.75C119.233 102.037 119.138 102.313 118.985 102.558C118.831 102.802 118.624 103.008 118.378 103.16Z" fill="#7CABD6"/>
<path d="M44.5959 108.851V108.789C44.5959 108.763 44.5959 108.741 44.5959 108.719C44.5959 108.696 44.5959 108.67 44.5959 108.648V108.577V108.515V108.44C44.5959 108.413 44.5959 108.387 44.5959 108.365C44.5978 108.338 44.5978 108.312 44.5959 108.285C44.5973 108.265 44.5973 108.244 44.5959 108.223C44.5972 108.198 44.5972 108.173 44.5959 108.148L44.5693 108.078L44.5428 108.007L44.5163 107.936L44.4898 107.879L44.4588 107.812L44.4234 107.733C44.407 107.706 44.3922 107.678 44.3792 107.649L44.3262 107.556C44.2941 107.496 44.2586 107.439 44.2201 107.383L44.1317 107.255C44.1136 107.225 44.0928 107.197 44.0698 107.171C44.052 107.147 44.0328 107.123 44.0123 107.1L43.9592 107.039L43.9018 106.977C43.886 106.963 43.8712 106.948 43.8576 106.932L43.7957 106.871L43.7338 106.813L43.6675 106.756L43.6365 106.729L43.6144 106.707L43.5525 106.658L43.4862 106.614L43.4287 106.574L43.3668 106.539L14.5338 89.9828L14.4896 89.9563L14.4321 89.9253L14.3746 89.8988L14.3172 89.8723H14.2597H14.2199H14.1624C14.142 89.8681 14.121 89.8681 14.1005 89.8723H14.0387H13.8309H13.7513L13.6584 89.8988C13.6168 89.9119 13.5768 89.9297 13.5391 89.9519L11.9785 90.8891C12.0436 90.8527 12.1136 90.8259 12.1863 90.8095C12.2671 90.8004 12.3486 90.8004 12.4294 90.8095C12.5198 90.8185 12.6088 90.8378 12.6947 90.867C12.796 90.9017 12.8937 90.9461 12.9865 90.9996L41.625 107.45C41.7255 107.509 41.8216 107.575 41.9124 107.649C42.0036 107.727 42.0907 107.809 42.1732 107.896C42.2572 107.989 42.3412 108.086 42.4164 108.188C42.4922 108.29 42.5616 108.396 42.6241 108.506C42.6863 108.615 42.7424 108.727 42.7921 108.842C42.8407 108.957 42.8835 109.073 42.9203 109.192C42.9553 109.309 42.9819 109.429 42.9999 109.55C43.021 109.665 43.0314 109.782 43.0309 109.899C43.03 110.003 43.0196 110.106 42.9999 110.208C42.9806 110.295 42.9525 110.379 42.9159 110.46C42.8859 110.521 42.8488 110.577 42.8054 110.628C42.8054 110.628 42.8054 110.664 42.7656 110.677C42.7214 110.728 42.6691 110.771 42.6109 110.805L44.1714 109.868C44.2311 109.834 44.2849 109.791 44.3306 109.74L44.3704 109.691L44.4234 109.625L44.4765 109.528C44.4765 109.505 44.4986 109.479 44.5074 109.452L44.534 109.377C44.534 109.355 44.534 109.329 44.534 109.302C44.536 109.293 44.536 109.284 44.534 109.276C44.534 109.276 44.534 109.253 44.534 109.245V109.174C44.534 109.152 44.534 109.13 44.534 109.103C44.5361 109.081 44.5361 109.059 44.534 109.037V108.971L44.5959 108.851Z" fill="#7CABD6"/>
<path d="M41.6169 107.37C42.0347 107.642 42.3825 108.009 42.6321 108.441C42.8817 108.872 43.0261 109.357 43.0537 109.855C43.0537 110.765 42.4038 111.132 41.608 110.677L12.9695 94.2225C12.5518 93.9516 12.2043 93.5856 11.9553 93.1545C11.7064 92.7234 11.5631 92.2395 11.5371 91.7424C11.5371 90.8317 12.187 90.4603 12.9783 90.9201L41.6169 107.37Z" fill="white"/>
<path d="M41.6192 107.372L12.9806 90.9217C12.8366 90.8174 12.6677 90.7527 12.4908 90.7341C12.3139 90.7155 12.1353 90.7436 11.9727 90.8156C12.1199 90.7831 12.2723 90.7808 12.4205 90.8089C12.5687 90.837 12.7096 90.895 12.8347 90.9792L41.4777 107.429C41.8949 107.702 42.2421 108.069 42.4909 108.5C42.7398 108.932 42.8834 109.416 42.9101 109.914C42.9279 110.094 42.8962 110.276 42.8183 110.44C42.7404 110.603 42.6192 110.742 42.468 110.842C42.6616 110.767 42.8242 110.629 42.9294 110.45C43.0345 110.271 43.076 110.062 43.0471 109.856C43.0206 109.359 42.8775 108.875 42.6295 108.444C42.3814 108.012 42.0353 107.645 41.6192 107.372Z" fill="white"/>
<path d="M44.5959 116.599V116.528C44.5959 116.506 44.5959 116.484 44.5959 116.462C44.5959 116.44 44.5959 116.413 44.5959 116.391V116.321V116.254V116.179C44.5959 116.157 44.5959 116.13 44.5959 116.104C44.5959 116.077 44.5959 116.055 44.5959 116.029L44.5738 115.967L44.5472 115.892L44.5207 115.821L44.4942 115.75L44.4677 115.68C44.4659 115.66 44.4659 115.641 44.4677 115.622L44.4367 115.551C44.4367 115.551 44.4367 115.503 44.4013 115.476L44.3571 115.392L44.3041 115.299C44.2687 115.242 44.2334 115.184 44.1936 115.127C44.1538 115.069 44.1361 115.043 44.1051 114.999L44.0388 114.915C44.0222 114.889 44.0029 114.866 43.9813 114.844L43.9283 114.778L43.8708 114.716L43.8266 114.667L43.7647 114.61L43.7028 114.548L43.6365 114.495L43.6056 114.468L43.5791 114.446L43.5172 114.397L43.4553 114.353L43.3934 114.313L43.3315 114.278L14.5338 97.7395L14.4896 97.7174L14.4321 97.6865L14.3746 97.66L14.3172 97.6334L14.2597 97.6113H14.2199H14.1624H14.1005H14.0387H13.8309H13.7513L13.6584 97.6379L13.5391 97.6909L11.9785 98.6281C12.0436 98.5918 12.1136 98.565 12.1863 98.5486C12.2668 98.5352 12.3489 98.5352 12.4294 98.5486C12.5198 98.5571 12.6089 98.5764 12.6947 98.606C12.7948 98.6437 12.8923 98.688 12.9865 98.7387L41.625 115.193C41.7255 115.252 41.8216 115.319 41.9124 115.392C42.0036 115.47 42.0907 115.553 42.1732 115.64C42.2603 115.732 42.3415 115.829 42.4164 115.932C42.4922 116.033 42.5616 116.139 42.6241 116.25C42.686 116.356 42.7435 116.471 42.7966 116.581C42.8452 116.701 42.8894 116.816 42.9292 116.935C42.9636 117.051 42.9902 117.169 43.0087 117.289C43.0262 117.403 43.0351 117.518 43.0353 117.634C43.0371 117.738 43.0268 117.841 43.0043 117.943C42.9871 118.032 42.9588 118.118 42.9203 118.199C42.8911 118.258 42.8555 118.313 42.8142 118.363L42.77 118.416C42.7247 118.466 42.6726 118.509 42.6153 118.544L44.1759 117.607C44.2345 117.572 44.288 117.529 44.335 117.479L44.3748 117.426C44.3938 117.406 44.4115 117.386 44.4279 117.364C44.4482 117.331 44.4659 117.297 44.4809 117.262C44.4931 117.238 44.5034 117.213 44.5119 117.187L44.5384 117.112C44.5384 117.085 44.5384 117.063 44.5384 117.037C44.5408 117.027 44.5408 117.016 44.5384 117.006C44.5384 117.006 44.5384 117.006 44.5384 116.975V116.909C44.5384 116.909 44.5384 116.86 44.5384 116.838C44.5406 116.816 44.5406 116.794 44.5384 116.771C44.5384 116.749 44.5384 116.727 44.5384 116.701C44.5384 116.701 44.5959 116.621 44.5959 116.599Z" fill="#7CABD6"/>
<path d="M41.6169 115.116C42.0348 115.387 42.3828 115.753 42.6325 116.184C42.8822 116.615 43.0265 117.099 43.0537 117.596C43.0537 118.511 42.4038 118.878 41.608 118.423L12.9695 101.968C12.5518 101.696 12.2042 101.33 11.9553 100.898C11.7064 100.466 11.5631 99.9815 11.5371 99.4838C11.5371 98.5775 12.187 98.2061 12.9783 98.6615L41.6169 115.116Z" fill="white"/>
<path d="M41.6192 115.115L12.9806 98.6606C12.8362 98.5572 12.6673 98.493 12.4906 98.4744C12.314 98.4558 12.1355 98.4834 11.9727 98.5545C12.12 98.5233 12.2721 98.5217 12.4201 98.5497C12.5681 98.5778 12.709 98.6351 12.8347 98.7181L41.4777 115.173C41.8948 115.444 42.242 115.81 42.4909 116.241C42.7398 116.672 42.8834 117.156 42.9101 117.653C42.9283 117.834 42.8967 118.016 42.8188 118.181C42.7409 118.345 42.6196 118.485 42.468 118.586C42.662 118.51 42.8247 118.371 42.9298 118.191C43.035 118.011 43.0763 117.801 43.0471 117.595C43.0209 117.099 42.878 116.615 42.6299 116.184C42.3818 115.753 42.0355 115.387 41.6192 115.115Z" fill="white"/>
<path d="M44.5959 124.343V124.263C44.5959 124.263 44.5959 124.219 44.5959 124.192C44.5959 124.166 44.5959 124.148 44.5959 124.126V124.051C44.5959 124.051 44.5959 124.007 44.5959 123.985C44.5959 123.963 44.5959 123.936 44.5959 123.91C44.598 123.885 44.598 123.859 44.5959 123.834C44.5959 123.808 44.5959 123.786 44.5959 123.759C44.5944 123.739 44.5944 123.718 44.5959 123.697L44.5693 123.622L44.5428 123.547C44.5372 123.522 44.5282 123.499 44.5163 123.476L44.4898 123.41C44.4898 123.388 44.4898 123.37 44.4898 123.353C44.4813 123.328 44.471 123.304 44.4588 123.282C44.4489 123.256 44.437 123.231 44.4234 123.207C44.4234 123.176 44.3925 123.149 44.3792 123.118L44.3262 123.025C44.2908 122.963 44.2555 122.91 44.2157 122.853C44.1887 122.809 44.1592 122.766 44.1272 122.725L44.0609 122.641L44.0079 122.574L43.9504 122.508L43.8929 122.446L43.8487 122.398L43.7868 122.336L43.725 122.278L43.6586 122.225L43.6277 122.199H43.6012L43.5393 122.15L43.4774 122.106L43.4155 122.066L43.3536 122.026L14.5338 105.47L14.4896 105.443L14.4321 105.413L14.3746 105.386L14.3172 105.364L14.2597 105.342H14.2199H14.1624H14.1005H14.0387H13.8353H13.7513L13.6584 105.368L13.5391 105.421L11.9785 106.359C12.043 106.318 12.1153 106.291 12.1907 106.279C12.2712 106.266 12.3534 106.266 12.4339 106.279C12.5241 106.288 12.6131 106.308 12.6991 106.336C12.7993 106.37 12.8956 106.415 12.9865 106.469L41.625 122.924C41.7261 122.98 41.8223 123.045 41.9124 123.118C42.0047 123.195 42.0918 123.278 42.1732 123.366C42.2624 123.456 42.3437 123.554 42.4164 123.658C42.4922 123.759 42.5616 123.865 42.6241 123.976C42.6877 124.085 42.7453 124.197 42.7966 124.312C42.8491 124.426 42.8934 124.545 42.9292 124.666C42.9645 124.785 42.9911 124.904 43.0132 125.019C43.0305 125.135 43.0393 125.252 43.0397 125.368C43.0412 125.472 43.0308 125.576 43.0087 125.678C42.9908 125.766 42.9626 125.852 42.9247 125.934C42.8967 125.995 42.8611 126.051 42.8187 126.102L42.7789 126.151C42.7322 126.202 42.6787 126.247 42.6197 126.284L44.1803 125.346C44.2401 125.311 44.2938 125.266 44.3394 125.214L44.3792 125.165C44.3993 125.145 44.4171 125.123 44.4323 125.099C44.4542 125.069 44.4721 125.036 44.4853 125.002C44.4853 124.975 44.5074 124.948 44.5163 124.926L44.5428 124.847C44.5428 124.847 44.5428 124.803 44.5428 124.776C44.5428 124.75 44.5428 124.754 44.5428 124.745C44.5428 124.745 44.5428 124.745 44.5428 124.714V124.648C44.5428 124.621 44.5428 124.599 44.5428 124.577C44.545 124.555 44.545 124.533 44.5428 124.511C44.5428 124.484 44.5428 124.462 44.5428 124.44C44.567 124.412 44.5851 124.379 44.5959 124.343Z" fill="#7CABD6"/>
<path d="M41.6169 122.861C42.0353 123.131 42.3837 123.497 42.6334 123.928C42.8832 124.359 43.0272 124.844 43.0537 125.341C43.0537 126.252 42.4038 126.623 41.608 126.163L12.9695 109.713C12.5518 109.441 12.2042 109.075 11.9553 108.643C11.7064 108.211 11.5631 107.726 11.5371 107.229C11.5371 106.318 12.187 105.951 12.9783 106.406L41.6169 122.861Z" fill="white"/>
<path d="M41.6192 122.861L12.9806 106.407C12.8362 106.303 12.6673 106.239 12.4906 106.22C12.314 106.202 12.1355 106.229 11.9727 106.301C12.1199 106.268 12.2723 106.266 12.4205 106.294C12.5687 106.322 12.7096 106.38 12.8347 106.464L41.4777 122.936C41.8947 123.208 42.2419 123.575 42.4915 124.005C42.7411 124.436 42.8859 124.92 42.9145 125.417C42.9312 125.597 42.899 125.779 42.8213 125.944C42.7435 126.108 42.623 126.248 42.4724 126.349C42.6664 126.274 42.8291 126.135 42.9343 125.955C43.0394 125.775 43.0807 125.565 43.0515 125.359C43.0283 124.859 42.8863 124.371 42.6372 123.937C42.3881 123.503 42.0391 123.134 41.6192 122.861Z" fill="white"/>
<path d="M127.805 38.2121L127.769 38.3403C127.632 38.7171 127.448 39.075 127.221 39.4058L127.097 39.5915C126.829 39.9565 126.524 40.2928 126.187 40.595C125.931 40.8072 125.664 41.0049 125.387 41.1874C125.148 41.3554 124.944 41.5367 124.675 41.6914L72.358 72.0939L72.2695 103.504L124.586 73.1151L124.728 73.0311C124.944 72.9029 125.099 72.7526 125.294 72.6155C125.572 72.4301 125.84 72.231 126.098 72.0187C126.122 71.9982 126.147 71.979 126.174 71.9612C126.43 71.7252 126.668 71.4695 126.885 71.1964C126.929 71.139 126.965 71.0771 127.009 71.0152C127.053 70.9533 127.093 70.8914 127.133 70.8251C127.21 70.725 127.281 70.6202 127.345 70.5112C127.466 70.3043 127.568 70.0868 127.65 69.8613C127.65 69.8304 127.65 69.795 127.681 69.7596C127.712 69.7243 127.681 69.6801 127.716 69.6359C127.766 69.4913 127.806 69.3436 127.836 69.1938C127.878 68.978 127.903 68.7592 127.911 68.5395V68.4378L127.999 37.0273C127.994 37.4298 127.929 37.8292 127.805 38.2121Z" fill="#AFCBE0"/>
<path d="M3.53094 41.6995C1.27186 40.3954 0.148961 38.6845 0.153382 36.9824L0.0605469 68.3708C0.0605469 70.0772 1.18345 71.7881 3.44253 73.0923L56.0909 103.504L56.1794 72.0932L3.53094 41.6995Z" fill="#AFCBE0"/>
<path d="M72.2728 103.505L72.3612 72.0943C71.8485 72.3864 71.3151 72.6406 70.7653 72.8547L70.3232 73.0227C69.9783 73.1464 69.6114 73.2481 69.2489 73.3498C68.8864 73.4515 68.4929 73.5532 68.1039 73.6372C67.6618 73.73 67.1843 73.814 66.7157 73.8715L66.3753 73.9201C65.7365 73.9886 65.0946 74.024 64.4522 74.0262H64.1428C63.5062 74.0262 62.874 73.9908 62.2462 73.9201L61.9588 73.8892C61.3355 73.814 60.721 73.7079 60.1197 73.5753L59.7926 73.4957C59.2558 73.3603 58.7261 73.198 58.2055 73.0094C58.1127 72.9785 58.0154 72.9519 57.9226 72.9165C57.3203 72.6858 56.7365 72.4094 56.1763 72.0898L56.0879 103.5C56.6183 103.805 57.171 104.07 57.7413 104.292L57.8341 104.327C57.927 104.362 58.0243 104.389 58.1171 104.42C58.4531 104.544 58.7846 104.663 59.1295 104.765C59.3196 104.818 59.5141 104.858 59.7042 104.902C59.8147 104.933 59.9208 104.959 60.0313 104.981L60.3231 105.056C60.6945 105.132 61.0747 105.198 61.4593 105.251C61.5919 105.273 61.7334 105.282 61.8704 105.3L62.1578 105.331C62.2948 105.331 62.4319 105.366 62.5689 105.375C62.9447 105.406 63.3205 105.428 63.6963 105.437H64.8678C65.3099 105.437 65.7166 105.392 66.1366 105.353L66.2825 105.331L66.6273 105.282C66.9545 105.242 67.2816 105.207 67.5999 105.149C67.7414 105.123 67.874 105.074 68.0111 105.043C68.4045 104.964 68.7847 104.866 69.1605 104.76C69.3594 104.703 69.5716 104.672 69.7661 104.61C69.9607 104.548 70.0756 104.491 70.2303 104.433C70.3851 104.376 70.5309 104.323 70.6724 104.261C71.2248 104.051 71.7599 103.798 72.2728 103.505Z" fill="#C5D9E8"/>
<path d="M124.615 32.32C129.107 34.9107 129.115 39.1105 124.668 41.6923L72.3599 72.0948C67.9125 74.681 60.6667 74.6899 56.175 72.0948L3.53105 41.7012C-0.960577 39.1105 -0.969417 34.9107 3.478 32.3289L55.7949 1.93967C60.2423 -0.642133 67.4881 -0.650975 71.9797 1.93967L124.615 32.32Z" fill="#DBE7F3"/>
<path d="M90.6581 73.8345L81.8959 78.9848C81.4096 79.2722 81.0117 79.1086 81.0117 78.6223C81.0409 78.3351 81.1358 78.0585 81.2891 77.8139C81.4425 77.5694 81.6501 77.3634 81.8959 77.2121L90.6581 72.0617C91.1444 71.7744 91.5423 71.9379 91.5423 72.4242C91.5138 72.7116 91.4192 72.9885 91.2658 73.2332C91.1124 73.4778 90.9044 73.6837 90.6581 73.8345Z" fill="#7CABD6"/>
<path d="M104.517 65.6802L95.7592 70.8305C95.2685 71.1179 94.875 70.9543 94.875 70.468C94.9031 70.1806 94.9977 69.9035 95.1511 69.6588C95.3045 69.4141 95.5127 69.2083 95.7592 69.0578L104.517 63.9074C105.003 63.6201 105.401 63.7836 105.401 64.2699C105.372 64.5572 105.278 64.834 105.124 65.0786C104.971 65.3232 104.763 65.5291 104.517 65.6802Z" fill="#7CABD6"/>
<path d="M118.378 57.5292L109.621 62.6795C109.13 62.9669 108.736 62.8033 108.736 62.3126C108.765 62.0259 108.86 61.7498 109.013 61.5058C109.167 61.2619 109.375 61.0569 109.621 60.9067L118.378 55.752C118.865 55.4646 119.262 55.6326 119.262 56.1189C119.233 56.406 119.138 56.6825 118.985 56.927C118.831 57.1716 118.624 57.3776 118.378 57.5292Z" fill="#7CABD6"/>
<path d="M90.6581 78.1523L81.8959 83.285C81.4096 83.5723 81.0117 83.4088 81.0117 82.9181C81.0409 82.6315 81.1358 82.3555 81.2892 82.1116C81.4426 81.8677 81.6502 81.6626 81.8959 81.5122L90.6581 76.3574C91.1444 76.0701 91.5423 76.2381 91.5423 76.7244C91.5158 77.0147 91.4221 77.2948 91.2686 77.5427C91.1152 77.7905 90.9062 77.9992 90.6581 78.1523Z" fill="#7CABD6"/>
<path d="M104.517 69.9964L95.7592 75.1512C95.2685 75.4386 94.875 75.275 94.875 74.7843C94.9031 74.4974 94.9977 74.221 95.1512 73.977C95.3046 73.733 95.5128 73.528 95.7592 73.3784L104.517 68.2237C105.003 67.9363 105.401 68.0999 105.401 68.5906C105.372 68.8771 105.277 69.153 105.123 69.3968C104.97 69.6406 104.762 69.8458 104.517 69.9964Z" fill="#7CABD6"/>
<path d="M118.378 61.8441L109.621 66.9989C109.13 67.2862 108.736 67.1182 108.736 66.6319C108.765 66.3445 108.859 66.0677 109.013 65.823C109.166 65.5783 109.374 65.3725 109.621 65.2217L118.378 60.0713C118.865 59.784 119.262 59.9475 119.262 60.4383C119.233 60.7248 119.138 61.0006 118.985 61.2444C118.831 61.4883 118.624 61.6934 118.378 61.8441Z" fill="#7CABD6"/>
<path d="M90.6581 82.4673L81.8959 87.6221C81.4096 87.905 81.0117 87.7414 81.0117 87.2551C81.0409 86.9679 81.1358 86.6913 81.2891 86.4467C81.4425 86.2022 81.6501 85.9962 81.8959 85.8449L90.6581 80.6945C91.1444 80.4072 91.5423 80.5707 91.5423 81.057C91.5138 81.3444 91.4192 81.6213 91.2658 81.866C91.1124 82.1106 90.9044 82.3165 90.6581 82.4673Z" fill="#7CABD6"/>
<path d="M104.517 74.315L95.7592 79.4653C95.2685 79.7527 94.875 79.5891 94.875 79.1028C94.9031 78.8153 94.9977 78.5383 95.1511 78.2936C95.3045 78.0489 95.5127 77.8431 95.7592 77.6925L104.517 72.5422C105.003 72.2548 105.401 72.4184 105.401 72.9047C105.372 73.192 105.278 73.4687 105.124 73.7134C104.971 73.958 104.763 74.1639 104.517 74.315Z" fill="#7CABD6"/>
<path d="M118.378 66.16L109.621 71.3104C109.13 71.5977 108.736 71.4342 108.736 70.9479C108.764 70.6604 108.859 70.3834 109.012 70.1387C109.166 69.8939 109.374 69.6882 109.621 69.5376L118.378 64.3828C118.865 64.0999 119.262 64.2635 119.262 64.7498C119.233 65.0369 119.138 65.3134 118.985 65.5579C118.831 65.8024 118.624 66.0084 118.378 66.16Z" fill="#7CABD6"/>
<path d="M44.5959 71.8512V71.7893C44.5959 71.7627 44.5959 71.7406 44.5959 71.7185C44.5959 71.6964 44.5959 71.6699 44.5959 71.6478V71.5771V71.5152V71.44C44.5959 71.4135 44.5959 71.387 44.5959 71.3649C44.5978 71.3384 44.5978 71.3118 44.5959 71.2853C44.5973 71.2647 44.5973 71.244 44.5959 71.2234C44.5972 71.1984 44.5972 71.1733 44.5959 71.1482L44.5693 71.0775L44.5428 71.0068L44.5163 70.936L44.4898 70.8786L44.4588 70.8123L44.4234 70.7327C44.407 70.7056 44.3922 70.6776 44.3792 70.6487L44.3262 70.5558C44.2941 70.4964 44.2586 70.4389 44.2201 70.3834L44.1317 70.2552C44.1136 70.2254 44.0928 70.1973 44.0698 70.1712C44.052 70.1466 44.0328 70.123 44.0123 70.1005L43.9592 70.0386L43.9018 69.9767C43.886 69.9631 43.8712 69.9483 43.8576 69.9325L43.7957 69.8706L43.7338 69.8131L43.6675 69.7557L43.6365 69.7291L43.6144 69.707L43.5525 69.6584L43.4862 69.6142L43.4287 69.5744L43.3668 69.539L14.5338 52.9828L14.4896 52.9563L14.4321 52.9253L14.3746 52.8988L14.3172 52.8723H14.2597H14.2199H14.1624C14.142 52.8681 14.121 52.8681 14.1005 52.8723H14.0387H13.8309H13.7513L13.6584 52.8988C13.6168 52.9119 13.5768 52.9297 13.5391 52.9519L11.9785 53.8891C12.0436 53.8527 12.1136 53.8259 12.1863 53.8095C12.2671 53.8004 12.3486 53.8004 12.4294 53.8095C12.5198 53.8185 12.6088 53.8378 12.6947 53.867C12.796 53.9017 12.8937 53.9461 12.9865 53.9996L41.625 70.4497C41.7255 70.509 41.8216 70.5755 41.9124 70.6487C42.0036 70.7266 42.0907 70.8092 42.1732 70.8963C42.2572 70.9891 42.3412 71.0864 42.4164 71.188C42.4922 71.2897 42.5616 71.396 42.6241 71.5063C42.6863 71.6151 42.7424 71.7273 42.7921 71.8423C42.8407 71.9565 42.8835 72.0731 42.9203 72.1916C42.9553 72.3089 42.9819 72.4286 42.9999 72.5497C43.021 72.6649 43.0314 72.7818 43.0309 72.8989C43.03 73.0028 43.0196 73.1064 42.9999 73.2084C42.9806 73.295 42.9525 73.3795 42.9159 73.4604C42.8859 73.5205 42.8488 73.5769 42.8054 73.6284C42.8054 73.6284 42.8054 73.6637 42.7656 73.677C42.7214 73.7279 42.6691 73.7712 42.6109 73.8052L44.1714 72.868C44.2311 72.8341 44.2849 72.7908 44.3306 72.7398L44.3704 72.6911L44.4234 72.6248L44.4765 72.5276C44.4765 72.5055 44.4986 72.4789 44.5074 72.4524L44.534 72.3772C44.534 72.3551 44.534 72.3286 44.534 72.3021C44.536 72.2934 44.536 72.2843 44.534 72.2756C44.534 72.2756 44.534 72.2535 44.534 72.2446V72.1739C44.534 72.1518 44.534 72.1297 44.534 72.1031C44.5361 72.0811 44.5361 72.0589 44.534 72.0368V71.9705L44.5959 71.8512Z" fill="#7CABD6"/>
<path d="M41.6169 70.3702C42.0347 70.6424 42.3825 71.0092 42.6321 71.4408C42.8817 71.8725 43.0261 72.3569 43.0537 72.8548C43.0537 73.7655 42.4038 74.1324 41.608 73.6771L12.9695 57.2225C12.5518 56.9516 12.2043 56.5856 11.9553 56.1545C11.7064 55.7234 11.5631 55.2395 11.5371 54.7424C11.5371 53.8317 12.187 53.4603 12.9783 53.9201L41.6169 70.3702Z" fill="white"/>
<path d="M41.6192 70.3718L12.9806 53.9217C12.8366 53.8174 12.6677 53.7527 12.4908 53.7341C12.3139 53.7155 12.1353 53.7436 11.9727 53.8156C12.1199 53.7831 12.2723 53.7808 12.4205 53.8089C12.5687 53.837 12.7096 53.895 12.8347 53.9792L41.4777 70.4293C41.8949 70.7017 42.2421 71.0686 42.4909 71.5003C42.7398 71.932 42.8834 72.4163 42.9101 72.9139C42.9279 73.0942 42.8962 73.276 42.8183 73.4396C42.7404 73.6032 42.6192 73.7424 42.468 73.8422C42.6616 73.7674 42.8242 73.6293 42.9294 73.4503C43.0345 73.2713 43.076 73.062 43.0471 72.8564C43.0206 72.3593 42.8775 71.8754 42.6295 71.4438C42.3814 71.0122 42.0353 70.645 41.6192 70.3718Z" fill="white"/>
<path d="M44.5959 79.5991V79.5283C44.5959 79.5062 44.5959 79.4841 44.5959 79.462C44.5959 79.4399 44.5959 79.4134 44.5959 79.3913V79.3205V79.2542V79.1791C44.5959 79.157 44.5959 79.1305 44.5959 79.1039C44.5959 79.0774 44.5959 79.0553 44.5959 79.0288L44.5738 78.9669L44.5472 78.8917L44.5207 78.821L44.4942 78.7502L44.4677 78.6795C44.4659 78.6604 44.4659 78.6412 44.4677 78.6221L44.4367 78.5513C44.4367 78.5513 44.4367 78.5027 44.4013 78.4762L44.3571 78.3922L44.3041 78.2993C44.2687 78.2419 44.2334 78.1844 44.1936 78.1269C44.1538 78.0694 44.1361 78.0429 44.1051 77.9987L44.0388 77.9147C44.0222 77.8892 44.0029 77.8655 43.9813 77.844L43.9283 77.7777L43.8708 77.7158L43.8266 77.6671L43.7647 77.6097L43.7028 77.5478L43.6365 77.4947L43.6056 77.4682L43.5791 77.4461L43.5172 77.3975L43.4553 77.3532L43.3934 77.3135L43.3315 77.2781L14.5338 60.7395L14.4896 60.7174L14.4321 60.6865L14.3746 60.66L14.3172 60.6334L14.2597 60.6113H14.2199H14.1624H14.1005H14.0387H13.8309H13.7513L13.6584 60.6379L13.5391 60.6909L11.9785 61.6281C12.0436 61.5918 12.1136 61.565 12.1863 61.5486C12.2668 61.5352 12.3489 61.5352 12.4294 61.5486C12.5198 61.5571 12.6089 61.5764 12.6947 61.606C12.7948 61.6437 12.8923 61.688 12.9865 61.7387L41.625 78.1932C41.7255 78.2524 41.8216 78.3189 41.9124 78.3922C42.0036 78.47 42.0907 78.5527 42.1732 78.6397C42.2603 78.7318 42.3415 78.8293 42.4164 78.9315C42.4922 79.0331 42.5616 79.1395 42.6241 79.2498C42.686 79.3559 42.7435 79.4709 42.7966 79.5814C42.8452 79.7007 42.8894 79.8157 42.9292 79.9351C42.9636 80.051 42.9902 80.1692 43.0087 80.2887C43.0262 80.4028 43.0351 80.5181 43.0353 80.6336C43.0371 80.7376 43.0268 80.8414 43.0043 80.943C42.9871 81.0316 42.9588 81.1178 42.9203 81.1994C42.8911 81.2577 42.8555 81.3126 42.8142 81.363L42.77 81.416C42.7247 81.4658 42.6726 81.5089 42.6153 81.5443L44.1759 80.607C44.2345 80.5717 44.288 80.5286 44.335 80.4788L44.3748 80.4258C44.3938 80.4063 44.4115 80.3856 44.4279 80.3639C44.4482 80.3314 44.4659 80.2974 44.4809 80.2622C44.4931 80.238 44.5034 80.2128 44.5119 80.187L44.5384 80.1119C44.5384 80.0854 44.5384 80.0633 44.5384 80.0367C44.5408 80.0266 44.5408 80.016 44.5384 80.0058C44.5384 80.0058 44.5384 80.0058 44.5384 79.9748V79.9085C44.5384 79.9085 44.5384 79.8599 44.5384 79.8378C44.5406 79.8157 44.5406 79.7935 44.5384 79.7715C44.5384 79.7494 44.5384 79.7273 44.5384 79.7008C44.5384 79.7008 44.5959 79.6212 44.5959 79.5991Z" fill="#7CABD6"/>
<path d="M41.6169 78.1161C42.0348 78.387 42.3828 78.7529 42.6325 79.1839C42.8822 79.6149 43.0265 80.0988 43.0537 80.5962C43.0537 81.5113 42.4038 81.8782 41.608 81.4229L12.9695 64.9683C12.5518 64.6964 12.2042 64.3296 11.9553 63.8978C11.7064 63.466 11.5631 62.9815 11.5371 62.4838C11.5371 61.5775 12.187 61.2061 12.9783 61.6615L41.6169 78.1161Z" fill="white"/>
<path d="M41.6192 78.1152L12.9806 61.6606C12.8362 61.5572 12.6673 61.493 12.4906 61.4744C12.314 61.4558 12.1355 61.4834 11.9727 61.5545C12.12 61.5233 12.2721 61.5217 12.4201 61.5497C12.5681 61.5778 12.709 61.6351 12.8347 61.7181L41.4777 78.1727C41.8948 78.4441 42.242 78.8102 42.4909 79.2412C42.7398 79.6722 42.8834 80.1558 42.9101 80.6528C42.9283 80.8338 42.8967 81.0163 42.8188 81.1807C42.7409 81.3451 42.6196 81.4851 42.468 81.5856C42.662 81.5099 42.8247 81.371 42.9298 81.1912C43.035 81.0115 43.0763 80.8015 43.0471 80.5953C43.0209 80.0987 42.878 79.6153 42.6299 79.1844C42.3818 78.7535 42.0355 78.3871 41.6192 78.1152Z" fill="white"/>
<path d="M44.5959 87.3428V87.2632C44.5959 87.2632 44.5959 87.219 44.5959 87.1925C44.5959 87.1659 44.5959 87.1483 44.5959 87.1262V87.051C44.5959 87.051 44.5959 87.0068 44.5959 86.9847C44.5959 86.9626 44.5959 86.9361 44.5959 86.9095C44.598 86.8845 44.598 86.8594 44.5959 86.8344C44.5959 86.8079 44.5959 86.7857 44.5959 86.7592C44.5944 86.7386 44.5944 86.7179 44.5959 86.6973L44.5693 86.6222L44.5428 86.547C44.5372 86.5224 44.5282 86.4986 44.5163 86.4763L44.4898 86.41C44.4898 86.3879 44.4898 86.3702 44.4898 86.3525C44.4813 86.3282 44.471 86.3045 44.4588 86.2818C44.4489 86.2559 44.437 86.2308 44.4234 86.2066C44.4234 86.1757 44.3925 86.1491 44.3792 86.1182L44.3262 86.0254C44.2908 85.9635 44.2555 85.9104 44.2157 85.8529C44.1887 85.8085 44.1592 85.7657 44.1272 85.7247L44.0609 85.6407L44.0079 85.5744L43.9504 85.5081L43.8929 85.4462L43.8487 85.3976L43.7868 85.3357L43.725 85.2782L43.6586 85.2252L43.6277 85.1986H43.6012L43.5393 85.15L43.4774 85.1058L43.4155 85.066L43.3536 85.0262L14.5338 68.47L14.4896 68.4435L14.4321 68.4125L14.3746 68.386L14.3172 68.3639L14.2597 68.3418H14.2199H14.1624H14.1005H14.0387H13.8353H13.7513L13.6584 68.3683L13.5391 68.4214L11.9785 69.3586C12.043 69.3178 12.1153 69.2907 12.1907 69.279C12.2712 69.2657 12.3534 69.2657 12.4339 69.279C12.5241 69.2885 12.6131 69.3077 12.6991 69.3365C12.7993 69.3705 12.8956 69.4149 12.9865 69.4691L41.625 85.9237C41.7261 85.9803 41.8223 86.0454 41.9124 86.1182C42.0047 86.1949 42.0918 86.2776 42.1732 86.3658C42.2624 86.456 42.3437 86.5536 42.4164 86.6575C42.4922 86.7592 42.5616 86.8655 42.6241 86.9759C42.6877 87.0846 42.7453 87.1968 42.7966 87.3118C42.8491 87.4264 42.8934 87.5446 42.9292 87.6655C42.9645 87.7849 42.9911 87.9042 43.0132 88.0192C43.0305 88.1348 43.0393 88.2515 43.0397 88.3684C43.0412 88.4724 43.0308 88.5763 43.0087 88.6779C42.9908 88.7663 42.9626 88.8524 42.9247 88.9343C42.8967 88.9946 42.8611 89.0511 42.8187 89.1023L42.7789 89.1509C42.7322 89.2023 42.6787 89.247 42.6197 89.2836L44.1803 88.3463C44.2401 88.3109 44.2938 88.2661 44.3394 88.2137L44.3792 88.1651C44.3993 88.145 44.4171 88.1227 44.4323 88.0988C44.4542 88.0689 44.4721 88.0361 44.4853 88.0015C44.4853 87.975 44.5074 87.9484 44.5163 87.9263L44.5428 87.8468C44.5428 87.8468 44.5428 87.8026 44.5428 87.776C44.5428 87.7495 44.5428 87.7539 44.5428 87.7451C44.5428 87.7451 44.5428 87.7451 44.5428 87.7141V87.6478C44.5428 87.6213 44.5428 87.5992 44.5428 87.5771C44.545 87.555 44.545 87.5328 44.5428 87.5108C44.5428 87.4843 44.5428 87.4621 44.5428 87.44C44.567 87.4116 44.5851 87.3785 44.5959 87.3428Z" fill="#7CABD6"/>
<path d="M41.6169 85.861C42.0353 86.1314 42.3837 86.4972 42.6334 86.9283C42.8832 87.3594 43.0272 87.8436 43.0537 88.3411C43.0537 89.2518 42.4038 89.6232 41.608 89.1634L12.9695 72.7133C12.5518 72.4414 12.2042 72.0746 11.9553 71.6428C11.7064 71.211 11.5631 70.7265 11.5371 70.2287C11.5371 69.318 12.187 68.9511 12.9783 69.4064L41.6169 85.861Z" fill="white"/>
<path d="M41.6192 85.8613L12.9806 69.4067C12.8362 69.3033 12.6673 69.2391 12.4906 69.2205C12.314 69.2019 12.1355 69.2295 11.9727 69.3006C12.1199 69.2681 12.2723 69.2659 12.4205 69.294C12.5687 69.3221 12.7096 69.38 12.8347 69.4642L41.4777 85.9365C41.8947 86.2085 42.2419 86.5746 42.4915 87.0054C42.7411 87.4362 42.8859 87.9195 42.9145 88.4166C42.9312 88.5974 42.899 88.7794 42.8213 88.9436C42.7435 89.1077 42.623 89.2479 42.4724 89.3494C42.6664 89.2737 42.8291 89.1348 42.9343 88.955C43.0394 88.7753 43.0807 88.5653 43.0515 88.3591C43.0283 87.8589 42.8863 87.3715 42.6372 86.9371C42.3881 86.5027 42.0391 86.1339 41.6192 85.8613Z" fill="white"/>
</svg>
