<svg width="161" height="36" viewBox="0 0 161 36" fill="none" xmlns="http://www.w3.org/2000/svg">
<g clip-path="url(#clip0_904_7)">
<path d="M0 28.3958V3.7208H4.76791L15.3712 21.1343H12.8449L23.2702 3.7208H28.0026L28.0737 28.3958H22.6653L22.6298 11.9341H23.626L15.3 25.7873H12.7026L4.1986 11.9341H5.40837V28.3958H0Z" fill="#060931"/>
<path d="M34.0858 28.3958V9.4313H39.6365V28.3958H34.0858ZM36.8612 6.78755C35.8412 6.78755 35.0109 6.4938 34.3705 5.9063C33.73 5.3188 33.4098 4.5903 33.4098 3.7208C33.4098 2.8513 33.73 2.1228 34.3705 1.5353C35.0109 0.947803 35.8412 0.654053 36.8612 0.654053C37.8812 0.654053 38.7114 0.936053 39.3519 1.50005C39.9923 2.04055 40.3126 2.74555 40.3126 3.61505C40.3126 4.53155 39.9923 5.2953 39.3519 5.9063C38.7351 6.4938 37.9049 6.78755 36.8612 6.78755Z" fill="#060931"/>
<path d="M56.9173 9.1493C58.4355 9.1493 59.7876 9.4548 60.9736 10.0658C62.1834 10.6533 63.1322 11.5698 63.8201 12.8153C64.508 14.0373 64.852 15.6118 64.852 17.5388V28.3958H59.3013V18.3848C59.3013 16.8573 58.9573 15.7293 58.2694 15.0008C57.6052 14.2723 56.6564 13.9081 55.4229 13.9081C54.5452 13.9081 53.7506 14.0961 53.039 14.4721C52.351 14.8246 51.8055 15.3768 51.4022 16.1288C51.0227 16.8808 50.8329 17.8443 50.8329 19.0193V28.3958H45.2822V9.4313H50.5838V14.6836L49.5876 13.0973C50.2755 11.8283 51.2599 10.8531 52.5408 10.1716C53.8217 9.49005 55.2806 9.1493 56.9173 9.1493Z" fill="#060931"/>
<path d="M70.3776 28.3958V9.4313H75.9283V28.3958H70.3776ZM73.1529 6.78755C72.1329 6.78755 71.3027 6.4938 70.6622 5.9063C70.0218 5.3188 69.7015 4.5903 69.7015 3.7208C69.7015 2.8513 70.0218 2.1228 70.6622 1.5353C71.3027 0.947803 72.1329 0.654053 73.1529 0.654053C74.1729 0.654053 75.0032 0.936053 75.6436 1.50005C76.2841 2.04055 76.6043 2.74555 76.6043 3.61505C76.6043 4.53155 76.2841 5.2953 75.6436 5.9063C75.0269 6.4938 74.1967 6.78755 73.1529 6.78755Z" fill="#060931"/>
<path d="M93.2091 9.1493C94.7272 9.1493 96.0793 9.4548 97.2654 10.0658C98.4752 10.6533 99.424 11.5698 100.112 12.8153C100.8 14.0373 101.144 15.6118 101.144 17.5388V28.3958H95.5931V18.3848C95.5931 16.8573 95.2491 15.7293 94.5612 15.0008C93.897 14.2723 92.9482 13.9081 91.7147 13.9081C90.837 13.9081 90.0424 14.0961 89.3307 14.4721C88.6428 14.8246 88.0973 15.3768 87.694 16.1288C87.3145 16.8808 87.1247 17.8443 87.1247 19.0193V28.3958H81.574V9.4313H86.8756V14.6836L85.8793 13.0973C86.5672 11.8283 87.5517 10.8531 88.8326 10.1716C90.1135 9.49005 91.5724 9.1493 93.2091 9.1493Z" fill="#060931"/>
<path d="M115.81 35.5163C114.008 35.5163 112.264 35.2931 110.58 34.8466C108.92 34.4236 107.532 33.7773 106.417 32.9078L108.623 28.9598C109.43 29.6178 110.45 30.1348 111.683 30.5108C112.94 30.9103 114.174 31.1101 115.383 31.1101C117.352 31.1101 118.776 30.6753 119.653 29.8058C120.555 28.9363 121.005 27.6438 121.005 25.9283V23.0731L121.361 18.3143L121.29 13.5203V9.4313H126.556V25.2233C126.556 28.7483 125.631 31.345 123.781 33.0135C121.93 34.682 119.274 35.5163 115.81 35.5163ZM114.957 27.4793C113.177 27.4793 111.564 27.1033 110.117 26.3513C108.694 25.5758 107.544 24.5066 106.666 23.1436C105.812 21.7571 105.385 20.1473 105.385 18.3143C105.385 16.4578 105.812 14.8481 106.666 13.4851C107.544 12.0986 108.694 11.0293 110.117 10.2773C111.564 9.5253 113.177 9.1493 114.957 9.1493C116.57 9.1493 117.993 9.4783 119.226 10.1363C120.46 10.7708 121.42 11.7696 122.108 13.1326C122.796 14.4721 123.14 16.1993 123.14 18.3143C123.14 20.4058 122.796 22.1331 122.108 23.4961C121.42 24.8356 120.46 25.8343 119.226 26.4923C117.993 27.1503 116.57 27.4793 114.957 27.4793ZM116.06 22.9673C117.032 22.9673 117.898 22.7793 118.657 22.4033C119.416 22.0038 120.009 21.4516 120.436 20.7466C120.863 20.0416 121.077 19.2308 121.077 18.3143C121.077 17.3743 120.863 16.5636 120.436 15.8821C120.009 15.1771 119.416 14.6366 118.657 14.2606C117.898 13.8611 117.032 13.6613 116.06 13.6613C115.087 13.6613 114.221 13.8611 113.462 14.2606C112.703 14.6366 112.098 15.1771 111.647 15.8821C111.22 16.5636 111.007 17.3743 111.007 18.3143C111.007 19.2308 111.22 20.0416 111.647 20.7466C112.098 21.4516 112.703 22.0038 113.462 22.4033C114.221 22.7793 115.087 22.9673 116.06 22.9673Z" fill="#060931"/>
<path d="M131.473 14.9813V11.7735L137.131 6.9795C137.676 6.533 138.02 6.16875 138.162 5.88675C138.328 5.58125 138.411 5.311 138.411 5.076C138.411 4.794 138.293 4.559 138.056 4.371C137.842 4.183 137.486 4.089 136.988 4.089C136.443 4.089 135.968 4.2065 135.565 4.4415C135.162 4.6765 134.841 5.0055 134.604 5.4285L130.477 3.48975C130.999 2.47925 131.841 1.645 133.003 0.987C134.165 0.329 135.66 0 137.486 0C139.455 0 141.033 0.423 142.219 1.269C143.428 2.0915 144.033 3.2195 144.033 4.653C144.033 5.358 143.844 6.063 143.464 6.768C143.108 7.4495 142.349 8.2955 141.187 9.306L137.131 12.7605L136.241 10.9628H144.496V14.9813H131.473Z" fill="#1BE046"/>
<path d="M145.975 12.5843V9.27075L152.202 0.3525H158.144L151.882 9.27075L149.427 8.56575H160.955V12.5843H145.975ZM153.768 14.9813V12.5843L154.408 8.56575V6.627H159.176V14.9813H153.768Z" fill="#1BE046"/>
</g>
<defs>
<clipPath id="clip0_904_7">
<rect width="160.95" height="35.52" fill="white"/>
</clipPath>
</defs>
</svg>
