<svg width="128" height="106" viewBox="0 0 128 106" fill="none" xmlns="http://www.w3.org/2000/svg">
<path d="M127.805 38.2121L127.769 38.3403C127.632 38.7171 127.448 39.075 127.221 39.4058L127.097 39.5915C126.829 39.9565 126.524 40.2928 126.187 40.595C125.931 40.8072 125.664 41.0049 125.387 41.1874C125.148 41.3554 124.944 41.5367 124.675 41.6914L72.358 72.0939L72.2695 103.504L124.586 73.1151L124.728 73.0311C124.944 72.9029 125.099 72.7526 125.294 72.6155C125.572 72.4301 125.84 72.231 126.098 72.0187C126.122 71.9982 126.147 71.979 126.174 71.9612C126.43 71.7252 126.668 71.4695 126.885 71.1964C126.929 71.139 126.965 71.0771 127.009 71.0152C127.053 70.9533 127.093 70.8914 127.133 70.8251C127.21 70.725 127.281 70.6202 127.345 70.5112C127.466 70.3043 127.568 70.0868 127.65 69.8613C127.65 69.8304 127.65 69.795 127.681 69.7596C127.712 69.7243 127.681 69.6801 127.716 69.6359C127.766 69.4913 127.806 69.3436 127.836 69.1938C127.878 68.978 127.903 68.7592 127.911 68.5395V68.4378L127.999 37.0273C127.994 37.4298 127.929 37.8292 127.805 38.2121Z" fill="#AFAFE0"/>
<path d="M3.53094 41.6995C1.27186 40.3954 0.148961 38.6845 0.153382 36.9824L0.0605469 68.3708C0.0605469 70.0772 1.18345 71.7881 3.44253 73.0923L56.0909 103.504L56.1794 72.0932L3.53094 41.6995Z" fill="#AFAFE0"/>
<path d="M72.2728 103.505L72.3612 72.0943C71.8485 72.3864 71.3151 72.6406 70.7653 72.8547L70.3232 73.0227C69.9783 73.1464 69.6114 73.2481 69.2489 73.3498C68.8864 73.4515 68.4929 73.5532 68.1039 73.6372C67.6618 73.73 67.1843 73.814 66.7157 73.8715L66.3753 73.9201C65.7365 73.9886 65.0946 74.024 64.4522 74.0262H64.1428C63.5062 74.0262 62.874 73.9908 62.2462 73.9201L61.9588 73.8892C61.3355 73.814 60.721 73.7079 60.1197 73.5753L59.7926 73.4957C59.2558 73.3603 58.7261 73.198 58.2055 73.0094C58.1127 72.9785 58.0154 72.9519 57.9226 72.9165C57.3203 72.6858 56.7365 72.4094 56.1763 72.0898L56.0879 103.5C56.6183 103.805 57.171 104.07 57.7413 104.292L57.8341 104.327C57.927 104.362 58.0243 104.389 58.1171 104.42C58.4531 104.544 58.7846 104.663 59.1295 104.765C59.3196 104.818 59.5141 104.858 59.7042 104.902C59.8147 104.933 59.9208 104.959 60.0313 104.981L60.3231 105.056C60.6945 105.132 61.0747 105.198 61.4593 105.251C61.5919 105.273 61.7334 105.282 61.8704 105.3L62.1578 105.331C62.2948 105.331 62.4319 105.366 62.5689 105.375C62.9447 105.406 63.3205 105.428 63.6963 105.437H64.8678C65.3099 105.437 65.7166 105.392 66.1366 105.353L66.2825 105.331L66.6273 105.282C66.9545 105.242 67.2816 105.207 67.5999 105.149C67.7414 105.123 67.874 105.074 68.0111 105.043C68.4045 104.964 68.7847 104.866 69.1605 104.76C69.3594 104.703 69.5716 104.672 69.7661 104.61C69.9607 104.548 70.0756 104.491 70.2303 104.433C70.3851 104.376 70.5309 104.323 70.6724 104.261C71.2248 104.051 71.7599 103.798 72.2728 103.505Z" fill="#C5C5E8"/>
<path d="M124.615 32.32C129.107 34.9107 129.115 39.1105 124.668 41.6923L72.3599 72.0948C67.9125 74.681 60.6667 74.6899 56.175 72.0948L3.53105 41.7012C-0.960577 39.1105 -0.969417 34.9107 3.478 32.3289L55.7949 1.93967C60.2423 -0.642133 67.4881 -0.650975 71.9797 1.93967L124.615 32.32Z" fill="#DBDBF3"/>
<path d="M90.6581 73.8345L81.8959 78.9848C81.4096 79.2722 81.0117 79.1086 81.0117 78.6223C81.0409 78.3351 81.1358 78.0585 81.2891 77.8139C81.4425 77.5694 81.6501 77.3634 81.8959 77.2121L90.6581 72.0617C91.1444 71.7744 91.5423 71.9379 91.5423 72.4242C91.5138 72.7116 91.4192 72.9885 91.2658 73.2332C91.1124 73.4778 90.9044 73.6837 90.6581 73.8345Z" fill="#7C7CD6"/>
<path d="M104.517 65.6802L95.7592 70.8305C95.2685 71.1179 94.875 70.9543 94.875 70.468C94.9031 70.1806 94.9977 69.9035 95.1511 69.6588C95.3045 69.4141 95.5127 69.2083 95.7592 69.0578L104.517 63.9074C105.003 63.6201 105.401 63.7836 105.401 64.2699C105.372 64.5572 105.278 64.834 105.124 65.0786C104.971 65.3232 104.763 65.5291 104.517 65.6802Z" fill="#7C7CD6"/>
<path d="M118.378 57.5292L109.621 62.6795C109.13 62.9669 108.736 62.8033 108.736 62.3126C108.765 62.0259 108.86 61.7498 109.013 61.5058C109.167 61.2619 109.375 61.0569 109.621 60.9067L118.378 55.752C118.865 55.4646 119.262 55.6326 119.262 56.1189C119.233 56.406 119.138 56.6825 118.985 56.927C118.831 57.1716 118.624 57.3776 118.378 57.5292Z" fill="#7C7CD6"/>
<path d="M90.6581 78.1523L81.8959 83.285C81.4096 83.5723 81.0117 83.4088 81.0117 82.9181C81.0409 82.6315 81.1358 82.3555 81.2892 82.1116C81.4426 81.8677 81.6502 81.6626 81.8959 81.5122L90.6581 76.3574C91.1444 76.0701 91.5423 76.2381 91.5423 76.7244C91.5158 77.0147 91.4221 77.2948 91.2686 77.5427C91.1152 77.7905 90.9062 77.9992 90.6581 78.1523Z" fill="#7C7CD6"/>
<path d="M104.517 69.9964L95.7592 75.1512C95.2685 75.4386 94.875 75.275 94.875 74.7843C94.9031 74.4974 94.9977 74.221 95.1512 73.977C95.3046 73.733 95.5128 73.528 95.7592 73.3784L104.517 68.2237C105.003 67.9363 105.401 68.0999 105.401 68.5906C105.372 68.8771 105.277 69.153 105.123 69.3968C104.97 69.6406 104.762 69.8458 104.517 69.9964Z" fill="#7C7CD6"/>
<path d="M118.378 61.8441L109.621 66.9989C109.13 67.2862 108.736 67.1182 108.736 66.6319C108.765 66.3445 108.859 66.0677 109.013 65.823C109.166 65.5783 109.374 65.3725 109.621 65.2217L118.378 60.0713C118.865 59.784 119.262 59.9475 119.262 60.4383C119.233 60.7248 119.138 61.0006 118.985 61.2444C118.831 61.4883 118.624 61.6934 118.378 61.8441Z" fill="#7C7CD6"/>
<path d="M90.6581 82.4673L81.8959 87.6221C81.4096 87.905 81.0117 87.7414 81.0117 87.2551C81.0409 86.9679 81.1358 86.6913 81.2891 86.4467C81.4425 86.2022 81.6501 85.9962 81.8959 85.8449L90.6581 80.6945C91.1444 80.4072 91.5423 80.5707 91.5423 81.057C91.5138 81.3444 91.4192 81.6213 91.2658 81.866C91.1124 82.1106 90.9044 82.3165 90.6581 82.4673Z" fill="#7C7CD6"/>
<path d="M104.517 74.315L95.7592 79.4653C95.2685 79.7527 94.875 79.5891 94.875 79.1028C94.9031 78.8153 94.9977 78.5383 95.1511 78.2936C95.3045 78.0489 95.5127 77.8431 95.7592 77.6925L104.517 72.5422C105.003 72.2548 105.401 72.4184 105.401 72.9047C105.372 73.192 105.278 73.4687 105.124 73.7134C104.971 73.958 104.763 74.1639 104.517 74.315Z" fill="#7C7CD6"/>
<path d="M118.378 66.16L109.621 71.3104C109.13 71.5977 108.736 71.4342 108.736 70.9479C108.764 70.6604 108.859 70.3834 109.012 70.1387C109.166 69.8939 109.374 69.6882 109.621 69.5376L118.378 64.3828C118.865 64.0999 119.262 64.2635 119.262 64.7498C119.233 65.0369 119.138 65.3134 118.985 65.5579C118.831 65.8024 118.624 66.0084 118.378 66.16Z" fill="#7C7CD6"/>
<path d="M44.5959 71.8512V71.7893C44.5959 71.7627 44.5959 71.7406 44.5959 71.7185C44.5959 71.6964 44.5959 71.6699 44.5959 71.6478V71.5771V71.5152V71.44C44.5959 71.4135 44.5959 71.387 44.5959 71.3649C44.5978 71.3384 44.5978 71.3118 44.5959 71.2853C44.5973 71.2647 44.5973 71.244 44.5959 71.2234C44.5972 71.1984 44.5972 71.1733 44.5959 71.1482L44.5693 71.0775L44.5428 71.0068L44.5163 70.936L44.4898 70.8786L44.4588 70.8123L44.4234 70.7327C44.407 70.7056 44.3922 70.6776 44.3792 70.6487L44.3262 70.5558C44.2941 70.4964 44.2586 70.4389 44.2201 70.3834L44.1317 70.2552C44.1136 70.2254 44.0928 70.1973 44.0698 70.1712C44.052 70.1466 44.0328 70.123 44.0123 70.1005L43.9592 70.0386L43.9018 69.9767C43.886 69.9631 43.8712 69.9483 43.8576 69.9325L43.7957 69.8706L43.7338 69.8131L43.6675 69.7557L43.6365 69.7291L43.6144 69.707L43.5525 69.6584L43.4862 69.6142L43.4287 69.5744L43.3668 69.539L14.5338 52.9828L14.4896 52.9563L14.4321 52.9253L14.3746 52.8988L14.3172 52.8723H14.2597H14.2199H14.1624C14.142 52.8681 14.121 52.8681 14.1005 52.8723H14.0387H13.8309H13.7513L13.6584 52.8988C13.6168 52.9119 13.5768 52.9297 13.5391 52.9519L11.9785 53.8891C12.0436 53.8527 12.1136 53.8259 12.1863 53.8095C12.2671 53.8004 12.3486 53.8004 12.4294 53.8095C12.5198 53.8185 12.6088 53.8378 12.6947 53.867C12.796 53.9017 12.8937 53.9461 12.9865 53.9996L41.625 70.4497C41.7255 70.509 41.8216 70.5755 41.9124 70.6487C42.0036 70.7266 42.0907 70.8092 42.1732 70.8963C42.2572 70.9891 42.3412 71.0864 42.4164 71.188C42.4922 71.2897 42.5616 71.396 42.6241 71.5063C42.6863 71.6151 42.7424 71.7273 42.7921 71.8423C42.8407 71.9565 42.8835 72.0731 42.9203 72.1916C42.9553 72.3089 42.9819 72.4286 42.9999 72.5497C43.021 72.6649 43.0314 72.7818 43.0309 72.8989C43.03 73.0028 43.0196 73.1064 42.9999 73.2084C42.9806 73.295 42.9525 73.3795 42.9159 73.4604C42.8859 73.5205 42.8488 73.5769 42.8054 73.6284C42.8054 73.6284 42.8054 73.6637 42.7656 73.677C42.7214 73.7279 42.6691 73.7712 42.6109 73.8052L44.1714 72.868C44.2311 72.8341 44.2849 72.7908 44.3306 72.7398L44.3704 72.6911L44.4234 72.6248L44.4765 72.5276C44.4765 72.5055 44.4986 72.4789 44.5074 72.4524L44.534 72.3772C44.534 72.3551 44.534 72.3286 44.534 72.3021C44.536 72.2934 44.536 72.2843 44.534 72.2756C44.534 72.2756 44.534 72.2535 44.534 72.2446V72.1739C44.534 72.1518 44.534 72.1297 44.534 72.1031C44.5361 72.0811 44.5361 72.0589 44.534 72.0368V71.9705L44.5959 71.8512Z" fill="#7C7CD6"/>
<path d="M41.6169 70.3702C42.0347 70.6424 42.3825 71.0092 42.6321 71.4408C42.8817 71.8725 43.0261 72.3569 43.0537 72.8548C43.0537 73.7655 42.4038 74.1324 41.608 73.6771L12.9695 57.2225C12.5518 56.9516 12.2043 56.5856 11.9553 56.1545C11.7064 55.7234 11.5631 55.2395 11.5371 54.7424C11.5371 53.8317 12.187 53.4603 12.9783 53.9201L41.6169 70.3702Z" fill="white"/>
<path d="M41.6192 70.3718L12.9806 53.9217C12.8366 53.8174 12.6677 53.7527 12.4908 53.7341C12.3139 53.7155 12.1353 53.7436 11.9727 53.8156C12.1199 53.7831 12.2723 53.7808 12.4205 53.8089C12.5687 53.837 12.7096 53.895 12.8347 53.9792L41.4777 70.4293C41.8949 70.7017 42.2421 71.0686 42.4909 71.5003C42.7398 71.932 42.8834 72.4163 42.9101 72.9139C42.9279 73.0942 42.8962 73.276 42.8183 73.4396C42.7404 73.6032 42.6192 73.7424 42.468 73.8422C42.6616 73.7674 42.8242 73.6293 42.9294 73.4503C43.0345 73.2713 43.076 73.062 43.0471 72.8564C43.0206 72.3593 42.8775 71.8754 42.6295 71.4438C42.3814 71.0122 42.0353 70.645 41.6192 70.3718Z" fill="white"/>
<path d="M44.5959 79.5991V79.5283C44.5959 79.5062 44.5959 79.4841 44.5959 79.462C44.5959 79.4399 44.5959 79.4134 44.5959 79.3913V79.3205V79.2542V79.1791C44.5959 79.157 44.5959 79.1305 44.5959 79.1039C44.5959 79.0774 44.5959 79.0553 44.5959 79.0288L44.5738 78.9669L44.5472 78.8917L44.5207 78.821L44.4942 78.7502L44.4677 78.6795C44.4659 78.6604 44.4659 78.6412 44.4677 78.6221L44.4367 78.5513C44.4367 78.5513 44.4367 78.5027 44.4013 78.4762L44.3571 78.3922L44.3041 78.2993C44.2687 78.2419 44.2334 78.1844 44.1936 78.1269C44.1538 78.0694 44.1361 78.0429 44.1051 77.9987L44.0388 77.9147C44.0222 77.8892 44.0029 77.8655 43.9813 77.844L43.9283 77.7777L43.8708 77.7158L43.8266 77.6671L43.7647 77.6097L43.7028 77.5478L43.6365 77.4947L43.6056 77.4682L43.5791 77.4461L43.5172 77.3975L43.4553 77.3532L43.3934 77.3135L43.3315 77.2781L14.5338 60.7395L14.4896 60.7174L14.4321 60.6865L14.3746 60.66L14.3172 60.6334L14.2597 60.6113H14.2199H14.1624H14.1005H14.0387H13.8309H13.7513L13.6584 60.6379L13.5391 60.6909L11.9785 61.6281C12.0436 61.5918 12.1136 61.565 12.1863 61.5486C12.2668 61.5352 12.3489 61.5352 12.4294 61.5486C12.5198 61.5571 12.6089 61.5764 12.6947 61.606C12.7948 61.6437 12.8923 61.688 12.9865 61.7387L41.625 78.1932C41.7255 78.2524 41.8216 78.3189 41.9124 78.3922C42.0036 78.47 42.0907 78.5527 42.1732 78.6397C42.2603 78.7318 42.3415 78.8293 42.4164 78.9315C42.4922 79.0331 42.5616 79.1395 42.6241 79.2498C42.686 79.3559 42.7435 79.4709 42.7966 79.5814C42.8452 79.7007 42.8894 79.8157 42.9292 79.9351C42.9636 80.051 42.9902 80.1692 43.0087 80.2887C43.0262 80.4028 43.0351 80.5181 43.0353 80.6336C43.0371 80.7376 43.0268 80.8414 43.0043 80.943C42.9871 81.0316 42.9588 81.1178 42.9203 81.1994C42.8911 81.2577 42.8555 81.3126 42.8142 81.363L42.77 81.416C42.7247 81.4658 42.6726 81.5089 42.6153 81.5443L44.1759 80.607C44.2345 80.5717 44.288 80.5286 44.335 80.4788L44.3748 80.4258C44.3938 80.4063 44.4115 80.3856 44.4279 80.3639C44.4482 80.3314 44.4659 80.2974 44.4809 80.2622C44.4931 80.238 44.5034 80.2128 44.5119 80.187L44.5384 80.1119C44.5384 80.0854 44.5384 80.0633 44.5384 80.0367C44.5408 80.0266 44.5408 80.016 44.5384 80.0058C44.5384 80.0058 44.5384 80.0058 44.5384 79.9748V79.9085C44.5384 79.9085 44.5384 79.8599 44.5384 79.8378C44.5406 79.8157 44.5406 79.7935 44.5384 79.7715C44.5384 79.7494 44.5384 79.7273 44.5384 79.7008C44.5384 79.7008 44.5959 79.6212 44.5959 79.5991Z" fill="#7C7CD6"/>
<path d="M41.6169 78.1161C42.0348 78.387 42.3828 78.7529 42.6325 79.1839C42.8822 79.6149 43.0265 80.0988 43.0537 80.5962C43.0537 81.5113 42.4038 81.8782 41.608 81.4229L12.9695 64.9683C12.5518 64.6964 12.2042 64.3296 11.9553 63.8978C11.7064 63.466 11.5631 62.9815 11.5371 62.4838C11.5371 61.5775 12.187 61.2061 12.9783 61.6615L41.6169 78.1161Z" fill="white"/>
<path d="M41.6192 78.1152L12.9806 61.6606C12.8362 61.5572 12.6673 61.493 12.4906 61.4744C12.314 61.4558 12.1355 61.4834 11.9727 61.5545C12.12 61.5233 12.2721 61.5217 12.4201 61.5497C12.5681 61.5778 12.709 61.6351 12.8347 61.7181L41.4777 78.1727C41.8948 78.4441 42.242 78.8102 42.4909 79.2412C42.7398 79.6722 42.8834 80.1558 42.9101 80.6528C42.9283 80.8338 42.8967 81.0163 42.8188 81.1807C42.7409 81.3451 42.6196 81.4851 42.468 81.5856C42.662 81.5099 42.8247 81.371 42.9298 81.1912C43.035 81.0115 43.0763 80.8015 43.0471 80.5953C43.0209 80.0987 42.878 79.6153 42.6299 79.1844C42.3818 78.7535 42.0355 78.3871 41.6192 78.1152Z" fill="white"/>
<path d="M44.5959 87.3428V87.2632C44.5959 87.2632 44.5959 87.219 44.5959 87.1925C44.5959 87.1659 44.5959 87.1483 44.5959 87.1262V87.051C44.5959 87.051 44.5959 87.0068 44.5959 86.9847C44.5959 86.9626 44.5959 86.9361 44.5959 86.9095C44.598 86.8845 44.598 86.8594 44.5959 86.8344C44.5959 86.8079 44.5959 86.7857 44.5959 86.7592C44.5944 86.7386 44.5944 86.7179 44.5959 86.6973L44.5693 86.6222L44.5428 86.547C44.5372 86.5224 44.5282 86.4986 44.5163 86.4763L44.4898 86.41C44.4898 86.3879 44.4898 86.3702 44.4898 86.3525C44.4813 86.3282 44.471 86.3045 44.4588 86.2818C44.4489 86.2559 44.437 86.2308 44.4234 86.2066C44.4234 86.1757 44.3925 86.1491 44.3792 86.1182L44.3262 86.0254C44.2908 85.9635 44.2555 85.9104 44.2157 85.8529C44.1887 85.8085 44.1592 85.7657 44.1272 85.7247L44.0609 85.6407L44.0079 85.5744L43.9504 85.5081L43.8929 85.4462L43.8487 85.3976L43.7868 85.3357L43.725 85.2782L43.6586 85.2252L43.6277 85.1986H43.6012L43.5393 85.15L43.4774 85.1058L43.4155 85.066L43.3536 85.0262L14.5338 68.47L14.4896 68.4435L14.4321 68.4125L14.3746 68.386L14.3172 68.3639L14.2597 68.3418H14.2199H14.1624H14.1005H14.0387H13.8353H13.7513L13.6584 68.3683L13.5391 68.4214L11.9785 69.3586C12.043 69.3178 12.1153 69.2907 12.1907 69.279C12.2712 69.2657 12.3534 69.2657 12.4339 69.279C12.5241 69.2885 12.6131 69.3077 12.6991 69.3365C12.7993 69.3705 12.8956 69.4149 12.9865 69.4691L41.625 85.9237C41.7261 85.9803 41.8223 86.0454 41.9124 86.1182C42.0047 86.1949 42.0918 86.2776 42.1732 86.3658C42.2624 86.456 42.3437 86.5536 42.4164 86.6575C42.4922 86.7592 42.5616 86.8655 42.6241 86.9759C42.6877 87.0846 42.7453 87.1968 42.7966 87.3118C42.8491 87.4264 42.8934 87.5446 42.9292 87.6655C42.9645 87.7849 42.9911 87.9042 43.0132 88.0192C43.0305 88.1348 43.0393 88.2515 43.0397 88.3684C43.0412 88.4724 43.0308 88.5763 43.0087 88.6779C42.9908 88.7663 42.9626 88.8524 42.9247 88.9343C42.8967 88.9946 42.8611 89.0511 42.8187 89.1023L42.7789 89.1509C42.7322 89.2023 42.6787 89.247 42.6197 89.2836L44.1803 88.3463C44.2401 88.3109 44.2938 88.2661 44.3394 88.2137L44.3792 88.1651C44.3993 88.145 44.4171 88.1227 44.4323 88.0988C44.4542 88.0689 44.4721 88.0361 44.4853 88.0015C44.4853 87.975 44.5074 87.9484 44.5163 87.9263L44.5428 87.8468C44.5428 87.8468 44.5428 87.8026 44.5428 87.776C44.5428 87.7495 44.5428 87.7539 44.5428 87.7451C44.5428 87.7451 44.5428 87.7451 44.5428 87.7141V87.6478C44.5428 87.6213 44.5428 87.5992 44.5428 87.5771C44.545 87.555 44.545 87.5328 44.5428 87.5108C44.5428 87.4843 44.5428 87.4621 44.5428 87.44C44.567 87.4116 44.5851 87.3785 44.5959 87.3428Z" fill="#7C7CD6"/>
<path d="M41.6169 85.861C42.0353 86.1314 42.3837 86.4972 42.6334 86.9283C42.8832 87.3594 43.0272 87.8436 43.0537 88.3411C43.0537 89.2518 42.4038 89.6232 41.608 89.1634L12.9695 72.7133C12.5518 72.4414 12.2042 72.0746 11.9553 71.6428C11.7064 71.211 11.5631 70.7265 11.5371 70.2287C11.5371 69.318 12.187 68.9511 12.9783 69.4064L41.6169 85.861Z" fill="white"/>
<path d="M41.6192 85.8613L12.9806 69.4067C12.8362 69.3033 12.6673 69.2391 12.4906 69.2205C12.314 69.2019 12.1355 69.2295 11.9727 69.3006C12.1199 69.2681 12.2723 69.2659 12.4205 69.294C12.5687 69.3221 12.7096 69.38 12.8347 69.4642L41.4777 85.9365C41.8947 86.2085 42.2419 86.5746 42.4915 87.0054C42.7411 87.4362 42.8859 87.9195 42.9145 88.4166C42.9312 88.5974 42.899 88.7794 42.8213 88.9436C42.7435 89.1077 42.623 89.2479 42.4724 89.3494C42.6664 89.2737 42.8291 89.1348 42.9343 88.955C43.0394 88.7753 43.0807 88.5653 43.0515 88.3591C43.0283 87.8589 42.8863 87.3715 42.6372 86.9371C42.3881 86.5027 42.0391 86.1339 41.6192 85.8613Z" fill="white"/>
</svg>
