<svg xmlns="http://www.w3.org/2000/svg" width="0" height="0" style="display: none;">
  <symbol xmlns="http://www.w3.org/2000/svg" viewBox="0 0 20 20" id="icon-dashboard">
    <path d="M8 11H1C0.734784 11 0.48043 11.1054 0.292893 11.2929C0.105357 11.4804 0 11.7348 0 12V19C0 19.2652 0.105357 19.5196 0.292893 19.7071C0.48043 19.8946 0.734784 20 1 20H8C8.26522 20 8.51957 19.8946 8.70711 19.7071C8.89464 19.5196 9 19.2652 9 19V12C9 11.7348 8.89464 11.4804 8.70711 11.2929C8.51957 11.1054 8.26522 11 8 11ZM7 18H2V13H7V18ZM19 0H12C11.7348 0 11.4804 0.105357 11.2929 0.292893C11.1054 0.48043 11 0.734784 11 1V8C11 8.26522 11.1054 8.51957 11.2929 8.70711C11.4804 8.89464 11.7348 9 12 9H19C19.2652 9 19.5196 8.89464 19.7071 8.70711C19.8946 8.51957 20 8.26522 20 8V1C20 0.734784 19.8946 0.48043 19.7071 0.292893C19.5196 0.105357 19.2652 0 19 0ZM18 7H13V2H18V7ZM19 11H12C11.7348 11 11.4804 11.1054 11.2929 11.2929C11.1054 11.4804 11 11.7348 11 12V19C11 19.2652 11.1054 19.5196 11.2929 19.7071C11.4804 19.8946 11.7348 20 12 20H19C19.2652 20 19.5196 19.8946 19.7071 19.7071C19.8946 19.5196 20 19.2652 20 19V12C20 11.7348 19.8946 11.4804 19.7071 11.2929C19.5196 11.1054 19.2652 11 19 11ZM18 18H13V13H18V18ZM8 0H1C0.734784 0 0.48043 0.105357 0.292893 0.292893C0.105357 0.48043 0 0.734784 0 1V8C0 8.26522 0.105357 8.51957 0.292893 8.70711C0.48043 8.89464 0.734784 9 1 9H8C8.26522 9 8.51957 8.89464 8.70711 8.70711C8.89464 8.51957 9 8.26522 9 8V1C9 0.734784 8.89464 0.48043 8.70711 0.292893C8.51957 0.105357 8.26522 0 8 0ZM7 7H2V2H7V7Z"/>
  </symbol>
  <symbol xmlns="http://www.w3.org/2000/svg" viewBox="0 0 16 20" id="icon-contract">
    <path d="M4 14.5C3.80222 14.5 3.60888 14.5586 3.44443 14.6685C3.27998 14.7784 3.15181 14.9346 3.07612 15.1173C3.00043 15.3 2.98063 15.5011 3.01921 15.6951C3.0578 15.8891 3.15304 16.0673 3.29289 16.2071C3.43275 16.347 3.61093 16.4422 3.80491 16.4808C3.99889 16.5194 4.19996 16.4996 4.38268 16.4239C4.56541 16.3482 4.72159 16.22 4.83147 16.0556C4.94135 15.8911 5 15.6978 5 15.5C5 15.2348 4.89464 14.9804 4.70711 14.7929C4.51957 14.6054 4.26522 14.5 4 14.5V14.5ZM8 0C4 0 0 1.37 0 4V16C0 18.63 4 20 8 20C12 20 16 18.63 16 16V4C16 1.37 12 0 8 0ZM14 16C14 16.71 11.72 18 8 18C4.28 18 2 16.71 2 16V12.73C3.87207 13.62 5.92789 14.0551 8 14C10.0721 14.0551 12.1279 13.62 14 12.73V16ZM14 10C14 10.71 11.72 12 8 12C4.28 12 2 10.71 2 10V6.73C3.87207 7.61996 5.92789 8.05511 8 8C10.0721 8.05511 12.1279 7.61996 14 6.73V10ZM8 6C4.28 6 2 4.71 2 4C2 3.29 4.28 2 8 2C11.72 2 14 3.29 14 4C14 4.71 11.72 6 8 6ZM4 8.5C3.80222 8.5 3.60888 8.55865 3.44443 8.66853C3.27998 8.77841 3.15181 8.93459 3.07612 9.11732C3.00043 9.30004 2.98063 9.50111 3.01921 9.69509C3.0578 9.88907 3.15304 10.0673 3.29289 10.2071C3.43275 10.347 3.61093 10.4422 3.80491 10.4808C3.99889 10.5194 4.19996 10.4996 4.38268 10.4239C4.56541 10.3482 4.72159 10.22 4.83147 10.0556C4.94135 9.89112 5 9.69778 5 9.5C5 9.23478 4.89464 8.98043 4.70711 8.79289C4.51957 8.60536 4.26522 8.5 4 8.5V8.5Z" />
  </symbol>
  <symbol xmlns="http://www.w3.org/2000/svg" viewBox="0 0 20 20" id="icon-shop">
    <path d="M11.9544 16.0656C12.2196 16.0656 12.474 15.9602 12.6615 15.7727C12.849 15.5851 12.9544 15.3308 12.9544 15.0656V13.0656C12.9544 12.8004 12.849 12.546 12.6615 12.3585C12.474 12.1709 12.2196 12.0656 11.9544 12.0656C11.6892 12.0656 11.4348 12.1709 11.2473 12.3585C11.0597 12.546 10.9544 12.8004 10.9544 13.0656V15.0656C10.9544 15.3308 11.0597 15.5851 11.2473 15.7727C11.4348 15.9602 11.6892 16.0656 11.9544 16.0656ZM7.95438 16.0656C8.2196 16.0656 8.47395 15.9602 8.66149 15.7727C8.84903 15.5851 8.95438 15.3308 8.95438 15.0656V13.0656C8.95438 12.8004 8.84903 12.546 8.66149 12.3585C8.47395 12.1709 8.2196 12.0656 7.95438 12.0656C7.68917 12.0656 7.43481 12.1709 7.24728 12.3585C7.05974 12.546 6.95438 12.8004 6.95438 13.0656V15.0656C6.95438 15.3308 7.05974 15.5851 7.24728 15.7727C7.43481 15.9602 7.68917 16.0656 7.95438 16.0656ZM16.9544 4.06558H15.5744L13.8444 0.615579C13.7915 0.488632 13.713 0.373953 13.6139 0.278707C13.5147 0.183461 13.3969 0.109696 13.2679 0.062021C13.1389 0.0143462 13.0015 -0.00621351 12.8642 0.0016267C12.7269 0.0094669 12.5927 0.0455386 12.47 0.107587C12.3473 0.169636 12.2387 0.256329 12.151 0.362247C12.0633 0.468166 11.9984 0.591033 11.9603 0.723173C11.9222 0.855312 11.9118 0.993883 11.9297 1.13023C11.9476 1.26657 11.9935 1.39775 12.0644 1.51558L13.3344 4.06558H6.57438L7.84438 1.51558C7.94145 1.28249 7.94674 1.0213 7.8592 0.784466C7.77167 0.54763 7.59778 0.352676 7.37244 0.238745C7.14711 0.124813 6.88703 0.10034 6.6444 0.170238C6.40177 0.240136 6.19456 0.39923 6.06438 0.615579L4.33438 4.06558H2.95438C2.24757 4.07633 1.56726 4.33633 1.03343 4.79971C0.499605 5.2631 0.146556 5.9001 0.036553 6.59839C-0.0734502 7.29667 0.0666586 8.01137 0.432168 8.61643C0.797678 9.22149 1.36511 9.67805 2.03438 9.90558L2.77438 17.3656C2.849 18.1081 3.19773 18.7962 3.75245 19.2955C4.30718 19.7948 5.02808 20.0693 5.77438 20.0656H14.1544C14.9007 20.0693 15.6216 19.7948 16.1763 19.2955C16.731 18.7962 17.0798 18.1081 17.1544 17.3656L17.8944 9.90558C18.5651 9.67737 19.1334 9.21915 19.4987 8.61206C19.8639 8.00498 20.0025 7.28821 19.89 6.58872C19.7774 5.88923 19.4208 5.25217 18.8835 4.79035C18.3462 4.32854 17.6628 4.07179 16.9544 4.06558V4.06558ZM15.1444 17.1656C15.1195 17.4131 15.0033 17.6425 14.8184 17.8089C14.6334 17.9753 14.3932 18.0668 14.1444 18.0656H5.76438C5.51562 18.0668 5.27532 17.9753 5.09041 17.8089C4.9055 17.6425 4.78926 17.4131 4.76438 17.1656L4.05438 10.0656H15.8544L15.1444 17.1656ZM16.9544 8.06558H2.95438C2.68917 8.06558 2.43481 7.96022 2.24728 7.77269C2.05974 7.58515 1.95438 7.3308 1.95438 7.06558C1.95438 6.80036 2.05974 6.54601 2.24728 6.35847C2.43481 6.17094 2.68917 6.06558 2.95438 6.06558H16.9544C17.2196 6.06558 17.474 6.17094 17.6615 6.35847C17.849 6.54601 17.9544 6.80036 17.9544 7.06558C17.9544 7.3308 17.849 7.58515 17.6615 7.77269C17.474 7.96022 17.2196 8.06558 16.9544 8.06558Z" />
  </symbol>
  <symbol xmlns="http://www.w3.org/2000/svg" viewBox="0 0 20 20" id="icon-statistics">
    <path d="M5.5 14C5.89782 14 6.27936 13.842 6.56066 13.5607C6.84196 13.2794 7 12.8978 7 12.5C7.00488 12.4501 7.00488 12.3999 7 12.35L9.79 9.56H10.02H10.25L11.86 11.17C11.86 11.17 11.86 11.22 11.86 11.25C11.86 11.6478 12.018 12.0294 12.2993 12.3107C12.5806 12.592 12.9622 12.75 13.36 12.75C13.7578 12.75 14.1394 12.592 14.4207 12.3107C14.702 12.0294 14.86 11.6478 14.86 11.25V11.17L18.5 7.5C18.7967 7.5 19.0867 7.41203 19.3334 7.2472C19.58 7.08238 19.7723 6.84811 19.8858 6.57403C19.9993 6.29994 20.0291 5.99834 19.9712 5.70736C19.9133 5.41639 19.7704 5.14912 19.5607 4.93934C19.3509 4.72956 19.0836 4.5867 18.7926 4.52882C18.5017 4.47094 18.2001 4.50065 17.926 4.61418C17.6519 4.72771 17.4176 4.91997 17.2528 5.16664C17.088 5.41332 17 5.70333 17 6C16.9951 6.04988 16.9951 6.10012 17 6.15L13.39 9.76H13.23L11.5 8C11.5 7.60218 11.342 7.22064 11.0607 6.93934C10.7794 6.65804 10.3978 6.5 10 6.5C9.60218 6.5 9.22064 6.65804 8.93934 6.93934C8.65804 7.22064 8.5 7.60218 8.5 8L5.5 11C5.10218 11 4.72064 11.158 4.43934 11.4393C4.15804 11.7206 4 12.1022 4 12.5C4 12.8978 4.15804 13.2794 4.43934 13.5607C4.72064 13.842 5.10218 14 5.5 14V14ZM19 18H2V1C2 0.734784 1.89464 0.48043 1.70711 0.292893C1.51957 0.105357 1.26522 0 1 0C0.734784 0 0.48043 0.105357 0.292893 0.292893C0.105357 0.48043 0 0.734784 0 1V19C0 19.2652 0.105357 19.5196 0.292893 19.7071C0.48043 19.8946 0.734784 20 1 20H19C19.2652 20 19.5196 19.8946 19.7071 19.7071C19.8946 19.5196 20 19.2652 20 19C20 18.7348 19.8946 18.4804 19.7071 18.2929C19.5196 18.1054 19.2652 18 19 18Z" />
  </symbol>
  <symbol xmlns="http://www.w3.org/2000/svg" viewBox="0 0 18 20" id="icon-transactions">
    <path d="M7 6H13C13.2652 6 13.5196 5.89464 13.7071 5.70711C13.8946 5.51957 14 5.26522 14 5C14 4.73478 13.8946 4.48043 13.7071 4.29289C13.5196 4.10536 13.2652 4 13 4H7C6.73478 4 6.48043 4.10536 6.29289 4.29289C6.10536 4.48043 6 4.73478 6 5C6 5.26522 6.10536 5.51957 6.29289 5.70711C6.48043 5.89464 6.73478 6 7 6V6ZM5 10H13C13.2652 10 13.5196 9.89464 13.7071 9.70711C13.8946 9.51957 14 9.26522 14 9C14 8.73478 13.8946 8.48043 13.7071 8.29289C13.5196 8.10536 13.2652 8 13 8H5C4.73478 8 4.48043 8.10536 4.29289 8.29289C4.10536 8.48043 4 8.73478 4 9C4 9.26522 4.10536 9.51957 4.29289 9.70711C4.48043 9.89464 4.73478 10 5 10ZM5 14H13C13.2652 14 13.5196 13.8946 13.7071 13.7071C13.8946 13.5196 14 13.2652 14 13C14 12.7348 13.8946 12.4804 13.7071 12.2929C13.5196 12.1054 13.2652 12 13 12H5C4.73478 12 4.48043 12.1054 4.29289 12.2929C4.10536 12.4804 4 12.7348 4 13C4 13.2652 4.10536 13.5196 4.29289 13.7071C4.48043 13.8946 4.73478 14 5 14ZM17 0H1C0.734784 0 0.48043 0.105357 0.292893 0.292893C0.105357 0.48043 0 0.734784 0 1V19C0 19.1857 0.0517147 19.3678 0.149349 19.5257C0.246984 19.6837 0.386681 19.8114 0.552786 19.8944C0.718892 19.9775 0.904844 20.0126 1.08981 19.996C1.27477 19.9793 1.45143 19.9114 1.6 19.8L3.67 18.25L5.73 19.8C5.9031 19.9298 6.11363 20 6.33 20C6.54637 20 6.7569 19.9298 6.93 19.8L9 18.25L11.07 19.8C11.2431 19.9298 11.4536 20 11.67 20C11.8864 20 12.0969 19.9298 12.27 19.8L14.33 18.25L16.4 19.8C16.5493 19.9113 16.7267 19.9786 16.9122 19.9945C17.0977 20.0104 17.284 19.9742 17.45 19.89C17.6149 19.8069 17.7536 19.6798 17.8507 19.5227C17.9478 19.3656 17.9994 19.1847 18 19V1C18 0.734784 17.8946 0.48043 17.7071 0.292893C17.5196 0.105357 17.2652 0 17 0V0ZM16 17L14.93 16.2C14.7569 16.0702 14.5464 16 14.33 16C14.1136 16 13.9031 16.0702 13.73 16.2L11.67 17.75L9.6 16.2C9.4269 16.0702 9.21637 16 9 16C8.78363 16 8.5731 16.0702 8.4 16.2L6.33 17.75L4.27 16.2C4.0969 16.0702 3.88637 16 3.67 16C3.45363 16 3.2431 16.0702 3.07 16.2L2 17V2H16V17Z" />
  </symbol>
  <symbol xmlns="http://www.w3.org/2000/svg" viewBox="0 0 20 20" id="icon-referrals">
    <path d="M19.3 8.08004C19.019 7.74269 18.6674 7.47113 18.27 7.28452C17.8726 7.0979 17.439 7.0008 17 7.00004H12.44L13 5.57004C13.2329 4.94393 13.3105 4.27065 13.2261 3.60797C13.1416 2.94528 12.8977 2.31297 12.5152 1.76527C12.1327 1.21758 11.623 0.770841 11.0299 0.463388C10.4369 0.155934 9.77803 -0.00305943 9.11 4.45912e-05C8.91764 0.000445953 8.72948 0.0563198 8.56807 0.160967C8.40666 0.265615 8.27887 0.414594 8.2 0.590044L5.35 7.00004H3C2.20435 7.00004 1.44129 7.31611 0.87868 7.87872C0.316071 8.44133 0 9.2044 0 10V17C0 17.7957 0.316071 18.5588 0.87868 19.1214C1.44129 19.684 2.20435 20 3 20H15.73C16.4318 19.9998 17.1113 19.7535 17.6503 19.3041C18.1893 18.8546 18.5537 18.2304 18.68 17.54L19.95 10.54C20.0286 10.1074 20.011 9.66283 19.8987 9.23772C19.7864 8.81262 19.582 8.4174 19.3 8.08004ZM5 18H3C2.73478 18 2.48043 17.8947 2.29289 17.7072C2.10536 17.5196 2 17.2653 2 17V10C2 9.73483 2.10536 9.48047 2.29289 9.29294C2.48043 9.1054 2.73478 9.00004 3 9.00004H5V18ZM18 10.18L16.73 17.18C16.6874 17.413 16.5635 17.6233 16.3804 17.7734C16.1973 17.9236 15.9668 18.0039 15.73 18H7V8.21004L9.72 2.09004C9.99998 2.17167 10.26 2.31045 10.4837 2.49763C10.7073 2.6848 10.8897 2.91631 11.0194 3.17754C11.1491 3.43876 11.2232 3.72403 11.2371 4.01535C11.2509 4.30666 11.2043 4.59768 11.1 4.87004L10.57 6.30005C10.4571 6.6023 10.4189 6.92739 10.4589 7.24758C10.4988 7.56776 10.6156 7.87353 10.7993 8.13878C10.983 8.40404 11.2282 8.62091 11.5139 8.77088C11.7996 8.92086 12.1173 8.99948 12.44 9.00004H17C17.1469 8.99981 17.2921 9.03194 17.4252 9.09416C17.5582 9.15638 17.676 9.24716 17.77 9.36004C17.8663 9.47137 17.9369 9.60259 17.9767 9.74434C18.0164 9.88608 18.0244 10.0349 18 10.18Z" />
  </symbol>
  <symbol xmlns="http://www.w3.org/2000/svg" viewBox="0 0 20 20" id="icon-settings">
    <path d="M19.32 7.55L17.43 6.92L18.32 5.14C18.4102 4.95369 18.4404 4.74397 18.4064 4.53978C18.3723 4.33558 18.2758 4.14699 18.13 4L16 1.87C15.8522 1.72209 15.6618 1.62421 15.4555 1.59013C15.2493 1.55605 15.0375 1.58748 14.85 1.68L13.07 2.57L12.44 0.680003C12.3735 0.482996 12.2472 0.311629 12.0787 0.189751C11.9102 0.0678737 11.7079 0.00154767 11.5 3.33354e-06H8.5C8.29036 -0.000537828 8.08585 0.0648223 7.91537 0.186845C7.7449 0.308868 7.61709 0.481382 7.55 0.680003L6.92 2.57L5.14 1.68C4.95369 1.58978 4.74397 1.55961 4.53978 1.59364C4.33558 1.62767 4.14699 1.72423 4 1.87L1.87 4C1.72209 4.14777 1.62421 4.33818 1.59013 4.54446C1.55605 4.75074 1.58748 4.96251 1.68 5.15L2.57 6.93L0.680003 7.56C0.482996 7.62654 0.311629 7.75283 0.189751 7.92131C0.0678737 8.08979 0.00154767 8.29207 3.33354e-06 8.5V11.5C-0.000537828 11.7096 0.0648223 11.9142 0.186845 12.0846C0.308868 12.2551 0.481382 12.3829 0.680003 12.45L2.57 13.08L1.68 14.86C1.58978 15.0463 1.55961 15.256 1.59364 15.4602C1.62767 15.6644 1.72423 15.853 1.87 16L4 18.13C4.14777 18.2779 4.33818 18.3758 4.54446 18.4099C4.75074 18.444 4.96251 18.4125 5.15 18.32L6.93 17.43L7.56 19.32C7.62709 19.5186 7.7549 19.6911 7.92537 19.8132C8.09585 19.9352 8.30036 20.0005 8.51 20H11.51C11.7196 20.0005 11.9242 19.9352 12.0946 19.8132C12.2651 19.6911 12.3929 19.5186 12.46 19.32L13.09 17.43L14.87 18.32C15.0551 18.4079 15.2628 18.4369 15.4649 18.4029C15.667 18.3689 15.8538 18.2737 16 18.13L18.13 16C18.2779 15.8522 18.3758 15.6618 18.4099 15.4555C18.444 15.2493 18.4125 15.0375 18.32 14.85L17.43 13.07L19.32 12.44C19.517 12.3735 19.6884 12.2472 19.8103 12.0787C19.9321 11.9102 19.9985 11.7079 20 11.5V8.5C20.0005 8.29036 19.9352 8.08585 19.8132 7.91537C19.6911 7.7449 19.5186 7.61709 19.32 7.55ZM18 10.78L16.8 11.18C16.5241 11.2695 16.2709 11.418 16.0581 11.6151C15.8452 11.8122 15.6778 12.0533 15.5675 12.3216C15.4571 12.5899 15.4064 12.879 15.419 13.1688C15.4315 13.4586 15.5069 13.7422 15.64 14L16.21 15.14L15.11 16.24L14 15.64C13.7436 15.5122 13.4627 15.4411 13.1763 15.4313C12.89 15.4215 12.6049 15.4734 12.3403 15.5834C12.0758 15.6934 11.8379 15.8589 11.6429 16.0688C11.4479 16.2787 11.3003 16.5281 11.21 16.8L10.81 18H9.22L8.82 16.8C8.73049 16.5241 8.58203 16.2709 8.3849 16.0581C8.18778 15.8452 7.94671 15.6778 7.67842 15.5675C7.41014 15.4571 7.12105 15.4064 6.83123 15.419C6.5414 15.4315 6.25777 15.5069 6 15.64L4.86 16.21L3.76 15.11L4.36 14C4.4931 13.7422 4.56852 13.4586 4.58105 13.1688C4.59357 12.879 4.5429 12.5899 4.43254 12.3216C4.32218 12.0533 4.15478 11.8122 3.94195 11.6151C3.72912 11.418 3.47595 11.2695 3.2 11.18L2 10.78V9.22L3.2 8.82C3.47595 8.73049 3.72912 8.58203 3.94195 8.3849C4.15478 8.18778 4.32218 7.94671 4.43254 7.67842C4.5429 7.41014 4.59357 7.12105 4.58105 6.83123C4.56852 6.5414 4.4931 6.25777 4.36 6L3.79 4.89L4.89 3.79L6 4.36C6.25777 4.4931 6.5414 4.56852 6.83123 4.58105C7.12105 4.59357 7.41014 4.5429 7.67842 4.43254C7.94671 4.32218 8.18778 4.15478 8.3849 3.94195C8.58203 3.72912 8.73049 3.47595 8.82 3.2L9.22 2H10.78L11.18 3.2C11.2695 3.47595 11.418 3.72912 11.6151 3.94195C11.8122 4.15478 12.0533 4.32218 12.3216 4.43254C12.5899 4.5429 12.879 4.59357 13.1688 4.58105C13.4586 4.56852 13.7422 4.4931 14 4.36L15.14 3.79L16.24 4.89L15.64 6C15.5122 6.25645 15.4411 6.53735 15.4313 6.82369C15.4215 7.11003 15.4734 7.39513 15.5834 7.65969C15.6934 7.92424 15.8589 8.16207 16.0688 8.35708C16.2787 8.5521 16.5281 8.69973 16.8 8.79L18 9.19V10.78ZM10 6C9.20888 6 8.43552 6.2346 7.77772 6.67413C7.11993 7.11365 6.60724 7.73836 6.30448 8.46927C6.00173 9.20017 5.92252 10.0044 6.07686 10.7804C6.2312 11.5563 6.61217 12.269 7.17158 12.8284C7.73099 13.3878 8.44372 13.7688 9.21964 13.9231C9.99557 14.0775 10.7998 13.9983 11.5307 13.6955C12.2616 13.3928 12.8864 12.8801 13.3259 12.2223C13.7654 11.5645 14 10.7911 14 10C14 8.93914 13.5786 7.92172 12.8284 7.17158C12.0783 6.42143 11.0609 6 10 6V6ZM10 12C9.60444 12 9.21776 11.8827 8.88886 11.6629C8.55996 11.4432 8.30362 11.1308 8.15224 10.7654C8.00087 10.3999 7.96126 9.99778 8.03843 9.60982C8.1156 9.22186 8.30608 8.86549 8.58579 8.58579C8.86549 8.30608 9.22186 8.1156 9.60982 8.03843C9.99778 7.96126 10.3999 8.00087 10.7654 8.15224C11.1308 8.30362 11.4432 8.55996 11.6629 8.88886C11.8827 9.21776 12 9.60444 12 10C12 10.5304 11.7893 11.0391 11.4142 11.4142C11.0391 11.7893 10.5304 12 10 12Z" />
  </symbol>
  <symbol xmlns="http://www.w3.org/2000/svg" viewBox="0 0 18 19" id="icon-profile">
    <path d="M13.7105 11.7096C14.6909 10.9383 15.4065 9.88056 15.7577 8.68358C16.109 7.4866 16.0784 6.2099 15.6703 5.0311C15.2621 3.85231 14.4967 2.83003 13.4806 2.10649C12.4644 1.38296 11.2479 0.994141 10.0005 0.994141C8.75303 0.994141 7.5366 1.38296 6.52041 2.10649C5.50423 2.83003 4.73883 3.85231 4.3307 5.0311C3.92257 6.2099 3.892 7.4866 4.24325 8.68358C4.59449 9.88056 5.31009 10.9383 6.29048 11.7096C4.61056 12.3827 3.14477 13.499 2.04938 14.9396C0.953983 16.3801 0.270048 18.0909 0.070485 19.8896C0.0560396 20.021 0.0676015 20.1538 0.10451 20.2807C0.141419 20.4075 0.202952 20.5259 0.285596 20.629C0.452504 20.8371 0.695269 20.9705 0.960485 20.9996C1.2257 21.0288 1.49164 20.9514 1.69981 20.7845C1.90798 20.6176 2.04131 20.3749 2.07049 20.1096C2.29007 18.1548 3.22217 16.3494 4.6887 15.0384C6.15524 13.7274 8.05338 13.0027 10.0205 13.0027C11.9876 13.0027 13.8857 13.7274 15.3523 15.0384C16.8188 16.3494 17.7509 18.1548 17.9705 20.1096C17.9977 20.3554 18.1149 20.5823 18.2996 20.7467C18.4843 20.911 18.7233 21.0011 18.9705 20.9996H19.0805C19.3426 20.9695 19.5822 20.8369 19.747 20.6309C19.9119 20.4248 19.9886 20.162 19.9605 19.8996C19.76 18.0958 19.0724 16.3806 17.9713 14.9378C16.8703 13.4951 15.3974 12.3791 13.7105 11.7096V11.7096ZM10.0005 10.9996C9.20936 10.9996 8.436 10.765 7.7782 10.3255C7.12041 9.88599 6.60772 9.26128 6.30497 8.53037C6.00222 7.79947 5.923 6.9952 6.07734 6.21928C6.23168 5.44335 6.61265 4.73062 7.17206 4.17121C7.73147 3.6118 8.4442 3.23084 9.22012 3.0765C9.99605 2.92215 10.8003 3.00137 11.5312 3.30412C12.2621 3.60687 12.8868 4.11956 13.3264 4.77736C13.7659 5.43515 14.0005 6.20851 14.0005 6.99964C14.0005 8.0605 13.5791 9.07792 12.8289 9.82806C12.0788 10.5782 11.0614 10.9996 10.0005 10.9996Z" />
  </symbol>
  <symbol fill="none" xmlns="http://www.w3.org/2000/svg" viewBox="0 0 21 16" id="icon-arrow">
    <path d="M1.63721 8.35025H19.1372M19.1372 8.35025L13.1372 2.35025M19.1372 8.35025L13.1372 14.3503" stroke="#1BE046" stroke-width="3" stroke-linecap="round" stroke-linejoin="round"/>
  </symbol>
  <symbol fill="none" xmlns="http://www.w3.org/2000/svg" viewBox="0 0 20 23" id="icon-referral">
    <path d="M14.6372 0.35025H2.63721C1.53221 0.35025 0.637207 1.24525 0.637207 2.35025V16.3503H2.63721V2.35025H14.6372V0.35025ZM17.6372 4.35025H6.63721C5.53221 4.35025 4.63721 5.24525 4.63721 6.35025V20.3503C4.63721 21.4552 5.53221 22.3503 6.63721 22.3503H17.6372C18.7422 22.3503 19.6372 21.4552 19.6372 20.3503V6.35025C19.6372 5.24525 18.7422 4.35025 17.6372 4.35025ZM17.6372 20.3503H6.63721V6.35025H17.6372V20.3503Z" fill="white"/>
  </symbol>
  <symbol fill="none" xmlns="http://www.w3.org/2000/svg" viewBox="0 0 24 24" id="icon-bitcoin">
    <path d="M23.8996 11.9996C23.8996 15.0231 22.6985 17.9227 20.5606 20.0606C18.4227 22.1985 15.5231 23.3996 12.4996 23.3996C9.47613 23.3996 6.5765 22.1985 4.43859 20.0606C2.30068 17.9227 1.09961 15.0231 1.09961 11.9996C1.09961 8.97613 2.30068 6.0765 4.43859 3.93859C6.5765 1.80068 9.47613 0.599609 12.4996 0.599609C15.5231 0.599609 18.4227 1.80068 20.5606 3.93859C22.6985 6.0765 23.8996 8.97613 23.8996 11.9996Z" fill="#1BC040"/>
    <path d="M21.5 12C21.5 14.3869 20.5518 16.6761 18.8639 18.3639C17.1761 20.0518 14.8869 21 12.5 21C10.113 21 7.82386 20.0518 6.13604 18.3639C4.44821 16.6761 3.5 14.3869 3.5 12C3.5 9.61305 4.44821 7.32386 6.13604 5.63604C7.82386 3.94821 10.113 3 12.5 3C14.8869 3 17.1761 3.94821 18.8639 5.63604C20.5518 7.32386 21.5 9.61305 21.5 12Z" fill="#1BE046"/>
    <path d="M12.4996 0.600809C9.47613 0.600809 6.5765 1.80188 4.43859 3.93979C2.30068 6.0777 1.09961 8.97733 1.09961 12.0008C1.10356 14.3423 1.8284 16.6257 3.17561 18.5408L19.0408 2.67561C17.1254 1.32816 14.8415 0.60451 12.4996 0.600809ZM19.9948 3.42321L3.92681 19.4912C4.30155 19.9269 4.70872 20.3337 5.14481 20.708L21.1996 4.65201C20.8295 4.21264 20.4268 3.80187 19.9948 3.42321Z" fill="#3EFF68"/>
    <path d="M12.5 3C10.113 3 7.82386 3.94821 6.13604 5.63604C4.44821 7.32386 3.5 9.61305 3.5 12C3.50052 13.7057 3.98576 15.3762 4.8992 16.8168L17.3096 4.4064C15.8719 3.49174 14.204 3.00403 12.5 3ZM18.2984 5.1168L5.624 17.7936C5.99455 18.2336 6.40644 18.637 6.854 18.9984L19.5008 6.3504C19.1412 5.90097 18.7394 5.48708 18.3008 5.1144L18.2984 5.1168Z" fill="white"/>
    <path d="M12.5 0C5.87959 0 0.5 5.37959 0.5 12C0.5 18.6204 5.87959 24 12.5 24C14.9126 24.004 17.2699 23.2776 19.262 21.9167C19.3271 21.8722 19.3827 21.8153 19.4258 21.7492C19.4689 21.6832 19.4986 21.6094 19.5131 21.5319C19.5277 21.4544 19.5268 21.3748 19.5106 21.2976C19.4944 21.2205 19.4631 21.1472 19.4186 21.0822C19.3741 21.0171 19.3172 20.9613 19.2511 20.9182C19.1851 20.8751 19.1112 20.8455 19.0337 20.8309C18.9562 20.8164 18.8766 20.8174 18.7994 20.8336C18.7223 20.8498 18.6491 20.881 18.584 20.9256C16.792 22.1509 14.6708 22.8044 12.5 22.8C6.52879 22.8 1.7 17.9724 1.7 12C1.7 6.02879 6.52879 1.2 12.5 1.2C18.4712 1.2 23.3 6.02879 23.3 12C23.3041 14.096 22.6951 16.1473 21.548 17.9015C21.4638 18.0347 21.4353 18.1957 21.4687 18.3496C21.5022 18.5036 21.5949 18.6383 21.7268 18.7245C21.8588 18.8107 22.0193 18.8415 22.1737 18.8103C22.3282 18.7792 22.4642 18.6886 22.5524 18.5579C23.8266 16.6083 24.5035 14.329 24.5 12C24.5 5.37959 19.1204 0 12.5 0ZM12.5 2.4C7.20559 2.4 2.9 6.70559 2.9 12C2.9 17.2956 7.20559 21.6 12.5 21.6C17.7944 21.6 22.1 17.2956 22.1 12C22.1 6.70559 17.7944 2.4 12.5 2.4ZM12.5 3.6C17.1464 3.6 20.9 7.35359 20.9 12C20.9 16.6464 17.1464 20.4 12.5 20.4C7.85359 20.4 4.1 16.6464 4.1 12C4.1 7.35359 7.85359 3.6 12.5 3.6ZM20.6936 19.3008C20.5376 19.3074 20.3904 19.3746 20.2832 19.488L20.1512 19.6223C20.0947 19.6783 20.0499 19.745 20.0194 19.8184C19.9889 19.8919 19.9734 19.9705 19.9736 20.05C19.9738 20.1295 19.9898 20.2082 20.0207 20.2815C20.0516 20.3547 20.0968 20.4212 20.1535 20.4769C20.2103 20.5325 20.2776 20.5764 20.3515 20.6058C20.4253 20.6352 20.5043 20.6496 20.5838 20.6483C20.6633 20.6469 20.7418 20.6298 20.8146 20.5979C20.8874 20.5659 20.9531 20.5198 21.008 20.4622L21.1436 20.3256C21.2294 20.2402 21.2875 20.1308 21.31 20.0118C21.3325 19.8928 21.3185 19.7698 21.2698 19.6589C21.2211 19.548 21.14 19.4545 21.0372 19.3906C20.9343 19.3266 20.8146 19.2953 20.6936 19.3008Z" fill="#008C1F"/>
    <path d="M12.1867 6.55379V5.00169L13.4299 5V6.5798C13.8627 6.63682 14.2851 6.76119 14.683 6.9488C15.4105 7.28655 15.9838 7.90925 16.2807 8.68444C16.4275 9.07594 16.5 9.51417 16.5 9.994H13.852C13.852 9.71511 13.8224 9.4743 13.7597 9.27335C13.7114 9.09227 13.6252 8.92486 13.5074 8.78319C13.4035 8.65668 13.2724 8.55806 13.1249 8.49561C12.9782 8.43498 12.8199 8.40384 12.6484 8.40384C12.4772 8.4003 12.3071 8.43392 12.1488 8.50259C12.0205 8.55463 11.905 8.63622 11.8108 8.74154C11.7253 8.8498 11.6618 8.97542 11.6245 9.11053C11.5816 9.24738 11.5585 9.39806 11.5585 9.55396C11.5575 9.70569 11.5798 9.85668 11.6245 10.001C11.6698 10.1399 11.7448 10.2662 11.8438 10.37C11.9686 10.498 12.1082 10.6092 12.2593 10.7009C12.4712 10.821 12.6904 10.9261 12.9155 11.016C13.39 11.2033 13.8575 11.4096 14.317 11.6345C14.716 11.8202 15.0911 12.0583 15.4332 12.3431C15.7375 12.5953 15.9889 12.9107 16.1719 13.2697C16.3483 13.6231 16.4357 14.0458 16.4357 14.5412C16.442 14.9458 16.3649 15.3472 16.2098 15.7175C16.0581 16.0623 15.8454 16.3635 15.5684 16.6181C15.2708 16.8806 14.9322 17.087 14.5676 17.228C14.1521 17.3876 13.7177 17.4867 13.2766 17.5225V19H12.0301V17.5156C11.5816 17.4723 11.1447 17.377 10.716 17.228C10.2939 17.0807 9.91798 16.8659 9.58822 16.5818C9.26176 16.2977 8.99795 15.9392 8.80009 15.5131C8.60224 15.0835 8.5 14.5655 8.5 13.9626H11.1381C11.1303 14.2439 11.1728 14.5242 11.2634 14.789C11.3317 14.981 11.4414 15.1537 11.5839 15.2938C11.7263 15.4338 11.8976 15.5373 12.0845 15.5962C12.2675 15.6499 12.4604 15.6793 12.6583 15.6793C12.8312 15.6832 13.0033 15.654 13.1661 15.5928C13.2973 15.5468 13.4167 15.4694 13.5148 15.3669C13.6129 15.2645 13.6872 15.1396 13.7317 15.002C13.7782 14.8588 13.8005 14.7081 13.7976 14.5568C13.8013 14.3802 13.7751 14.2041 13.7201 14.0371C13.6732 13.8882 13.5929 13.7535 13.486 13.644C13.3645 13.5147 13.2243 13.4064 13.0705 13.3234C12.8974 13.2247 12.6896 13.1278 12.4456 13.0291C11.9295 12.8316 11.4547 12.6341 11.0227 12.4332C10.589 12.2322 10.2148 11.9984 9.9015 11.7385C9.58822 11.4787 9.34582 11.1738 9.1727 10.8204C9.00122 10.467 8.91547 10.0426 8.91547 9.54021C8.91149 9.14314 8.99206 8.75004 9.15126 8.38988C9.30869 8.04205 9.53592 7.73417 9.81737 7.48738C10.1226 7.2155 10.4715 7.00324 10.8479 6.86041C11.2786 6.69385 11.7291 6.59066 12.1867 6.55379Z" fill="#008C1F"/>
  </symbol>
</svg>
